<svg width="79" height="79" viewBox="0 0 79 79" fill="none" xmlns="http://www.w3.org/2000/svg">
<path d="M40.2664 2.84949C38.5697 2.84949 36.8455 2.95083 35.1208 3.15195C34.3113 3.25503 33.5063 3.3757 32.7302 3.50874C32.2306 3.5857 31.7704 3.73336 31.3556 3.94597C15.106 6.10917 2.66574 18.2889 0.346878 34.3653C-2.49385 54.0616 12.4268 72.6214 33.6069 75.7372C35.469 76.0113 37.386 76.1503 39.3039 76.1503C39.3047 76.1503 39.3039 76.1503 39.3056 76.1503C58.7482 76.1503 75.6385 62.9303 78.5919 45.3998C80.2948 35.2976 76.6172 24.212 68.5046 14.9848C61.6239 7.15916 51.5942 2.84949 40.2664 2.84949ZM42.5451 11.8902C50.1035 12.4234 56.6653 15.5553 62.0598 21.2071C68.4057 27.8557 71.237 37.2027 69.4484 45.5997C67.1734 56.2882 55.934 67.1081 38.8584 67.1081C36.8765 67.1081 34.9251 66.9358 33.0601 66.5927C17.3632 63.7128 6.74974 49.232 9.40067 34.3094C11.6751 21.5131 22.9362 12.5761 36.7884 12.5761C37.7229 12.5761 38.6726 12.6181 39.61 12.7011C40.7634 12.8026 41.7519 12.5105 42.5451 11.8902Z" fill="white"/>
<g clip-path="url(#clip0_131_230)">
<path d="M34.1139 28.145C31.9283 26.8913 30.1562 27.9184 30.1562 30.4372V49.0253C30.1562 51.5467 31.9283 52.5724 34.1139 51.3199L50.3608 42.0024C52.5473 40.7482 52.5473 38.7162 50.3608 37.4624L34.1139 28.145Z" fill="white"/>
</g>
<defs>
<clipPath id="clip0_131_230">
<rect width="24.2433" height="24.2433" fill="white" transform="translate(28.957 27.6105)"/>
</clipPath>
</defs>
</svg>
