<svg width="1114" height="363" viewBox="0 0 1114 363" fill="none" xmlns="http://www.w3.org/2000/svg">
<g clip-path="url(#clip0_279_883)">
<path fill-rule="evenodd" clip-rule="evenodd" d="M0 235.614V234.92C0 166.559 53.1368 108.667 127.906 108.667C165.109 108.667 189.904 117.377 212.585 133.424C215.327 135.43 217.559 138.054 219.098 141.083C220.638 144.112 221.442 147.462 221.446 150.86C221.446 162.378 211.883 172.144 199.829 172.144C194.161 172.144 189.911 169.699 186.364 167.253C170.423 155.751 153.063 148.067 126.132 148.067C80.4297 148.067 45.7097 187.489 45.7097 234.218V234.92C45.7097 285.143 79.3655 322.112 130.034 322.112C153.417 322.112 174.672 314.791 189.911 303.628V257.941H141.016C130.381 257.941 121.535 249.925 121.535 239.464C121.535 228.995 130.381 220.624 141.016 220.624H210.109C222.503 220.624 232.073 230.044 232.073 242.256V307.47C232.073 319.674 227.114 328.4 216.842 334.672C195.579 348.628 165.818 361.18 128.623 361.18C51.0158 361.172 0 306.775 0 235.614V235.614ZM271.148 121.566C271.148 110.056 280.357 100.636 292.396 100.636C304.449 100.636 314.013 110.056 314.013 121.566V337.812C314.013 349.67 304.442 358.735 292.396 358.735C280.712 358.735 271.148 349.677 271.148 337.804V121.559V121.566ZM347.223 265.964V265.255C347.223 212.593 389.732 168.997 447.134 168.997C504.527 168.997 546.697 211.899 546.697 264.568V265.255C546.697 317.584 504.18 361.18 446.424 361.18C389.378 361.18 347.223 318.278 347.223 265.964V265.964ZM503.826 265.964V265.255C503.826 232.829 480.08 205.974 446.424 205.974C412.051 205.974 390.087 232.482 390.087 264.568V265.255C390.087 297.348 413.825 324.203 447.134 324.203C481.854 324.203 503.818 297.695 503.818 265.964H503.826ZM653.733 360.478H651.605C639.921 360.478 632.116 353.157 627.165 341.986L564.82 201.43C563.748 198.29 562.329 194.818 562.329 190.969C562.329 180.507 571.892 170.741 583.584 170.741C595.268 170.741 601.291 177.368 604.838 186.093L653.024 308.156L701.918 185.398C705.111 178.07 710.772 170.741 722.116 170.741C733.808 170.741 743.016 179.466 743.016 190.969C743.016 194.818 741.605 199 740.548 201.083L678.188 341.993C673.207 352.802 665.432 360.486 653.733 360.486V360.478ZM758.648 265.964V265.255C758.648 212.593 801.165 168.997 858.581 168.997C915.96 168.997 958.13 211.899 958.13 264.568V265.255C958.13 317.584 915.613 361.18 857.857 361.18C800.818 361.18 758.648 318.278 758.648 265.964V265.964ZM915.266 265.964V265.255C915.266 232.829 891.52 205.974 857.857 205.974C823.491 205.974 801.527 232.482 801.527 264.568V265.255C801.527 297.348 825.258 324.203 858.574 324.203C893.286 324.203 915.258 297.695 915.258 265.964H915.266ZM1029.82 1.82007C983.4 1.82007 945.638 39.0083 945.638 84.6953C945.638 102.101 951.133 118.812 961.511 133.017L963.753 136.073L1007.58 196.962C1007.58 196.962 1012.93 205.566 1024.59 205.566H1035.06C1046.73 205.566 1052.06 196.962 1052.06 196.962L1095.89 136.073L1098.11 133.017C1108.43 119.02 1114 102.086 1114 84.6953C1114 39.0083 1076.24 1.82007 1029.82 1.82007ZM1064.46 109.165L1062.13 112.381L1029.83 157.268L997.567 112.471L995.197 109.218C989.944 102.12 987.103 93.5258 987.091 84.6953C987.091 61.5008 1006.26 42.6312 1029.81 42.6312C1053.38 42.6312 1072.54 61.5008 1072.54 84.6953C1072.54 93.4885 1069.75 101.95 1064.46 109.165V109.165ZM1006.14 242.951V242.785C1006.14 230.406 1016.13 220.149 1029.62 220.149C1043.12 220.149 1053.02 230.233 1053.02 242.619V242.785C1053.02 255.073 1043.03 265.323 1029.46 265.323C1016.06 265.323 1006.13 255.246 1006.13 242.951H1006.14Z" fill="white"/>
</g>
<defs>
<clipPath id="clip0_279_883">
<rect width="1114" height="361.382" fill="white" transform="translate(0 0.809082)"/>
</clipPath>
</defs>
</svg>
