<svg width="1001" height="164" viewBox="0 0 1001 164" fill="none" xmlns="http://www.w3.org/2000/svg">
<path d="M528.273 0H637.414V26.7044H557.754V64.6247H635.197V90.4211H557.754V128.982H637.414V155.687H528.273V0ZM938.826 158.491C972.287 158.491 991.14 142.468 991.14 120.464C991.14 104.788 979.978 93.0916 956.611 88.0177L931.91 82.9706C917.57 80.3002 913.057 77.6297 913.057 72.2888C913.057 65.3724 919.973 61.1264 932.711 61.1264C946.517 61.1264 956.745 64.8383 959.415 77.603H988.363C986.787 53.5691 969.51 37.7066 934.474 37.7066C904.191 37.7066 882.934 50.2043 882.934 74.4252C882.934 91.1689 894.631 102.064 919.866 107.378L947.479 113.761C958.374 115.897 961.285 118.835 961.285 123.348C961.285 130.531 953.06 135.044 939.761 135.044C923.044 135.044 913.484 131.332 909.772 118.568H880.664C884.91 142.548 902.695 158.491 938.826 158.491V158.491ZM872.252 155.58H840.928C821.273 155.58 810.378 143.349 810.378 127.914V66.761H788.347V40.6975H810.485V7.98462H839.593V40.6975H872.252V66.761H839.593V120.464C839.593 126.579 843.839 129.516 850.488 129.516H872.252V155.58ZM746.742 40.7509V51.1122C736.493 42.449 723.496 37.7158 710.076 37.76C702.042 37.5911 694.055 39.0275 686.583 41.9852C679.112 44.943 672.305 49.3624 666.564 54.9846C660.822 60.6068 656.26 67.3185 653.146 74.7265C650.032 82.1344 648.428 90.0895 648.428 98.1254C648.428 106.161 650.032 114.116 653.146 121.524C656.26 128.932 660.822 135.644 666.564 141.266C672.305 146.888 679.112 151.308 686.583 154.265C694.055 157.223 702.042 158.66 710.076 158.491C723.498 158.549 736.5 153.814 746.742 145.138V155.527H775.769V40.6975L746.742 40.7509ZM712.48 133.282C705.517 133.361 698.687 131.369 692.859 127.557C687.032 123.746 682.468 118.288 679.75 111.878C677.031 105.467 676.28 98.3924 677.591 91.5536C678.903 84.7148 682.218 78.4203 687.116 73.4701C692.013 68.5199 698.272 65.1375 705.096 63.7527C711.92 62.368 719.002 63.0435 725.442 65.6933C731.882 68.343 737.388 72.8475 741.261 78.6343C745.135 84.421 747.2 91.2287 747.195 98.1921C747.238 102.782 746.369 107.336 744.64 111.588C742.911 115.841 740.356 119.708 737.123 122.966C733.889 126.225 730.041 128.809 725.802 130.571C721.563 132.332 717.017 133.236 712.426 133.228L712.48 133.282Z" fill="white"/>
<path d="M463.488 62.248C448.88 62.248 438.519 73.6775 438.519 91.2223V155.58H416.221V42.2998H438.252V56.1327C440.969 51.548 444.864 47.7734 449.531 45.2003C454.198 42.6272 459.469 41.3492 464.796 41.4987H472.808V62.248H463.488ZM400.812 98.9399C400.812 65.1588 376.778 39.8964 344.252 39.8964C336.567 39.9486 328.968 41.5198 321.893 44.5197C314.817 47.5195 308.405 51.8888 303.024 57.3762C297.643 62.8636 293.401 69.3607 290.541 76.4939C287.68 83.627 286.259 91.2553 286.357 98.9399C286.357 132.694 312.394 158.224 346.362 158.224C355.851 158.403 365.243 156.299 373.748 152.088C382.253 147.877 389.621 141.684 395.231 134.029L379.048 122.173C375.336 127.354 370.423 131.56 364.731 134.429C359.038 137.299 352.736 138.747 346.362 138.649C337.284 138.607 328.522 135.313 321.663 129.366C314.805 123.418 310.304 115.211 308.976 106.23H400.866L400.812 98.9399ZM309.457 88.5518C313.436 71.2741 327.242 59.5776 343.985 59.5776C360.729 59.5776 374.509 71.2741 378.247 88.5518H309.457ZM215.724 39.8964C208.272 39.9027 200.895 41.3856 194.02 44.2595C187.145 47.1334 180.907 51.3413 175.667 56.6401V0H153.369V155.58H175.4V141.213C186.073 152.01 200.596 158.128 215.777 158.224C223.653 158.391 231.482 156.984 238.807 154.086C246.131 151.188 252.803 146.857 258.432 141.347C264.061 135.836 268.533 129.257 271.586 121.996C274.639 114.735 276.211 106.937 276.211 99.06C276.211 91.183 274.639 83.3853 271.586 76.1239C268.533 68.8626 264.061 62.2839 258.432 56.7735C252.803 51.2631 246.131 46.9319 238.807 44.0338C231.482 41.1357 223.653 39.7291 215.777 39.8964H215.724ZM214.122 138.302C206.35 138.339 198.741 136.067 192.263 131.773C185.784 127.479 180.727 121.357 177.733 114.185C174.74 107.012 173.944 99.1118 175.447 91.4862C176.95 83.8606 180.685 76.8535 186.177 71.3539C191.669 65.8542 198.671 62.11 206.295 60.5962C213.918 59.0825 221.82 59.8675 228.996 62.8515C236.173 65.8356 242.302 70.8843 246.604 77.357C250.907 83.8297 253.19 91.4346 253.164 99.2069C253.171 104.333 252.165 109.411 250.205 114.148C248.245 118.885 245.369 123.188 241.741 126.811C238.114 130.433 233.806 133.304 229.067 135.257C224.327 137.211 219.248 138.209 214.122 138.195V138.302ZM71.2532 137.234C92.777 137.234 109.494 120.731 109.494 96.0024V0H132.593V155.58H109.761V140.866C104.427 146.379 98.0293 150.753 90.956 153.722C83.8828 156.692 76.2807 158.196 68.6095 158.144C35.4159 158.144 9.85974 133.949 9.85974 97.2575V0H33.3863V96.1359C33.3863 120.998 49.409 137.234 71.2532 137.234V137.234Z" fill="white"/>
</svg>
