<svg width="729" height="245" viewBox="0 0 729 245" fill="none" xmlns="http://www.w3.org/2000/svg">
<g clip-path="url(#clip0_279_873)">
<path d="M266.32 171.07H282.955L280.133 158.148V81.3562H264.24V116.41C259.487 110.914 252.803 107.647 245.079 107.647C229.186 107.647 216.858 120.866 216.858 140.027C216.858 159.336 229.186 172.407 245.079 172.407C252.952 172.407 259.784 168.991 264.537 163.198L266.32 171.07ZM580.616 124.876C583.883 124.876 586.854 125.768 589.528 127.699L597.103 110.766C593.538 108.538 589.527 107.647 585.517 107.647C578.388 107.647 572.298 110.914 568.584 117.004L566.95 109.132H550.612L553.285 121.312V171.219H569.178V131.56C571.258 127.401 575.268 124.876 580.616 124.876V124.876ZM627.106 155.771C617.897 155.771 611.065 149.681 611.065 140.175C611.065 130.521 617.897 124.579 627.106 124.579C636.464 124.579 643.148 130.521 643.148 140.175C643.148 149.533 636.464 155.771 627.106 155.771ZM232.306 140.027C232.306 130.372 239.138 124.431 248.347 124.431C257.705 124.431 264.389 130.372 264.389 140.027C264.389 149.533 257.705 155.623 248.347 155.623C239.138 155.771 232.306 149.533 232.306 140.027ZM697.66 155.771C688.45 155.771 681.618 149.681 681.618 140.175C681.618 130.521 688.45 124.579 697.66 124.579C707.017 124.579 713.701 130.521 713.701 140.175C713.553 149.533 706.869 155.771 697.66 155.771ZM321.574 123.54C329.743 123.54 335.09 127.401 336.873 134.531H306.275C307.909 127.253 313.405 123.54 321.574 123.54V123.54ZM511.548 123.54C519.717 123.54 525.064 127.401 526.847 134.531H496.249C498.18 127.253 503.527 123.54 511.548 123.54ZM434.013 171.07H459.561L476.197 108.835H458.818L446.787 159.336L434.608 108.983H417.526L434.013 171.07ZM393.167 171.07H409.06V108.835H393.167V171.07ZM323.951 172.258C332.862 172.258 341.477 169.733 348.756 165.129L342.666 151.464C337.021 154.583 330.486 156.217 324.099 156.217C315.781 156.217 309.988 152.949 307.315 146.859H352.172C352.617 144.483 352.914 142.403 352.914 139.581C352.914 120.272 339.546 107.498 321.871 107.498C303.899 107.498 290.828 120.569 290.828 139.878C290.679 159.633 303.75 172.258 323.951 172.258V172.258ZM729 140.027C729 120.717 715.632 107.647 697.66 107.647C679.538 107.647 666.319 120.866 666.319 140.027C666.319 159.188 679.687 172.407 697.66 172.407C715.632 172.407 729 159.336 729 140.027ZM513.776 172.407C522.688 172.407 531.303 170.03 538.581 165.277L532.491 151.612C526.847 154.732 520.311 156.365 513.924 156.365C505.606 156.365 499.814 153.098 497.14 147.008H541.997C542.443 144.631 542.74 142.552 542.74 139.73C542.74 120.42 529.372 107.647 511.696 107.647C493.724 107.647 480.653 120.717 480.653 140.027C480.653 159.93 493.575 172.407 513.776 172.407ZM627.106 172.407C645.227 172.407 658.447 159.188 658.447 140.027C658.447 120.866 645.079 107.647 627.106 107.647C608.985 107.647 595.766 120.866 595.766 140.027C595.766 159.188 608.985 172.407 627.106 172.407ZM363.015 171.07H378.908V81.3562H363.015V171.07ZM401.188 100.368C406.683 100.368 411.139 95.9125 411.139 90.2682C411.139 84.624 406.832 80.168 401.188 80.168C395.543 80.168 391.087 84.624 391.087 90.2682C391.087 95.9125 395.395 100.368 401.188 100.368ZM128.035 24.7651L118.975 110.914L103.528 38.2817L54.8087 48.5304L70.1076 121.163L0 136.016L12.4768 193.944L135.908 220.235L164.129 157.108L177.497 29.9638L128.035 24.7651ZM88.9713 149.83C86.4462 152.206 83.1785 151.909 79.4652 150.721C75.9004 149.533 74.415 145.374 75.6033 140.027C76.643 136.165 81.2476 135.571 83.7726 135.571C84.6638 135.571 85.555 135.719 86.4462 136.165C88.0801 136.908 90.9022 138.541 91.4963 140.918C92.3875 144.483 91.4963 147.453 88.9713 149.83V149.83ZM124.768 153.692C122.837 156.96 118.084 157.405 113.182 155.029C109.914 153.395 109.914 149.533 110.36 147.008C110.509 145.671 111.103 144.334 111.994 143.295C113.182 141.809 115.113 139.878 117.193 139.878C120.906 139.73 123.877 141.364 125.659 144.334C127.441 147.305 126.55 150.573 124.768 153.692V153.692Z" fill="white"/>
</g>
<defs>
<clipPath id="clip0_279_873">
<rect width="729" height="244.652" fill="white" transform="translate(0 0.173828)"/>
</clipPath>
</defs>
</svg>
