<svg width="139" height="25" viewBox="0 0 139 25" fill="none" xmlns="http://www.w3.org/2000/svg">
<path d="M12.9091 0.873779L16.6056 7.83361L24.367 9.19848L18.8901 14.8648L19.9905 22.6681L12.9091 19.2103L5.82766 22.6681L6.92801 14.8648L1.4511 9.19848L9.21257 7.83361L12.9091 0.873779Z" fill="#FEBB38"/>
<path d="M41.3853 0.874023L45.0818 7.83385L52.8432 9.19872L47.3663 14.865L48.4667 22.6684L41.3853 19.2105L34.3039 22.6684L35.4042 14.865L29.9273 9.19872L37.6888 7.83385L41.3853 0.874023Z" fill="#FEBB38"/>
<path d="M69.8615 0.874023L73.558 7.83385L81.3194 9.19872L75.8425 14.865L76.9429 22.6684L69.8615 19.2105L62.78 22.6684L63.8804 14.865L58.4035 9.19872L66.165 7.83385L69.8615 0.874023Z" fill="#FEBB38"/>
<path d="M98.3377 0.874023L102.034 7.83385L109.796 9.19872L104.319 14.865L105.419 22.6684L98.3377 19.2105L91.2562 22.6684L92.3566 14.865L86.8797 9.19872L94.6412 7.83385L98.3377 0.874023Z" fill="#FEBB38"/>
<path d="M126.814 0.874023L130.51 7.83385L138.272 9.19872L132.795 14.865L133.895 22.6684L126.814 19.2105L119.732 22.6684L120.833 14.865L115.356 9.19872L123.117 7.83385L126.814 0.874023Z" fill="#FEBB38"/>
</svg>
