<svg width="2308" height="1233" viewBox="0 0 2308 1233" fill="none" xmlns="http://www.w3.org/2000/svg">
<mask id="mask0_483_844" style="mask-type:alpha" maskUnits="userSpaceOnUse" x="0" y="0" width="2308" height="1233">
<rect width="2308" height="1233" fill="#D9D9D9"/>
</mask>
<g mask="url(#mask0_483_844)">
<line x1="201.572" y1="-741.849" x2="-385.221" y2="1104.13" stroke="#141414"/>
<line x1="274.954" y1="-718.522" x2="-311.839" y2="1127.46" stroke="#141414"/>
<line x1="348.336" y1="-695.196" x2="-238.457" y2="1150.78" stroke="#141414"/>
<line x1="421.718" y1="-671.87" x2="-165.075" y2="1174.11" stroke="#141414"/>
<line x1="495.1" y1="-648.543" x2="-91.6934" y2="1197.44" stroke="#141414"/>
<line x1="568.481" y1="-625.217" x2="-18.3121" y2="1220.76" stroke="#141414"/>
<line x1="641.863" y1="-601.891" x2="55.0698" y2="1244.09" stroke="#141414"/>
<line x1="715.245" y1="-578.564" x2="128.452" y2="1267.42" stroke="#141414"/>
<line x1="788.626" y1="-555.238" x2="201.833" y2="1290.74" stroke="#141414"/>
<line x1="862.008" y1="-531.912" x2="275.215" y2="1314.07" stroke="#141414"/>
<line x1="935.39" y1="-508.585" x2="348.597" y2="1337.39" stroke="#141414"/>
<line x1="1008.77" y1="-485.259" x2="421.978" y2="1360.72" stroke="#141414"/>
<line x1="1082.15" y1="-461.933" x2="495.36" y2="1384.05" stroke="#141414"/>
<line x1="1155.54" y1="-438.606" x2="568.742" y2="1407.37" stroke="#141414"/>
<line x1="1228.92" y1="-415.28" x2="642.124" y2="1430.7" stroke="#141414"/>
<line x1="1302.3" y1="-391.954" x2="715.506" y2="1454.03" stroke="#141414"/>
<line x1="1375.68" y1="-368.628" x2="788.888" y2="1477.35" stroke="#141414"/>
<line x1="1449.06" y1="-345.301" x2="862.269" y2="1500.68" stroke="#141414"/>
<line x1="1522.44" y1="-321.975" x2="935.651" y2="1524.01" stroke="#141414"/>
<line x1="1595.83" y1="-298.649" x2="1009.03" y2="1547.33" stroke="#141414"/>
<line x1="1669.21" y1="-275.322" x2="1082.42" y2="1570.66" stroke="#141414"/>
<line x1="1742.59" y1="-251.996" x2="1155.8" y2="1593.98" stroke="#141414"/>
<line x1="1815.97" y1="-228.67" x2="1229.18" y2="1617.31" stroke="#141414"/>
<line x1="1889.35" y1="-205.344" x2="1302.56" y2="1640.64" stroke="#141414"/>
<line x1="1962.74" y1="-182.017" x2="1375.94" y2="1663.96" stroke="#141414"/>
<line x1="2036.12" y1="-158.691" x2="1449.32" y2="1687.29" stroke="#141414"/>
<line x1="2109.5" y1="-135.364" x2="1522.71" y2="1710.62" stroke="#141414"/>
<line x1="2182.88" y1="-112.038" x2="1596.09" y2="1733.94" stroke="#141414"/>
<line x1="2256.26" y1="-88.7118" x2="1669.47" y2="1757.27" stroke="#141414"/>
<line x1="2329.64" y1="-65.3856" x2="1742.85" y2="1780.59" stroke="#141414"/>
<line x1="2403.03" y1="-42.059" x2="1816.23" y2="1803.92" stroke="#141414"/>
<line x1="2476.41" y1="-18.7328" x2="1889.62" y2="1827.25" stroke="#141414"/>
<line x1="2549.79" y1="4.59336" x2="1963" y2="1850.57" stroke="#141414"/>
<line x1="2623.17" y1="27.9195" x2="2036.38" y2="1873.9" stroke="#141414"/>
<line x1="2696.55" y1="51.2462" x2="2109.76" y2="1897.23" stroke="#141414"/>
<line x1="182.162" y1="-682.437" x2="2677.14" y2="110.657" stroke="#141414"/>
<line x1="159.442" y1="-610.961" x2="2654.42" y2="182.133" stroke="#141414"/>
<line x1="136.721" y1="-539.485" x2="2631.7" y2="253.609" stroke="#141414"/>
<line x1="114.001" y1="-468.01" x2="2608.98" y2="325.085" stroke="#141414"/>
<line x1="91.2804" y1="-396.534" x2="2586.26" y2="396.561" stroke="#141414"/>
<line x1="68.5602" y1="-325.058" x2="2563.54" y2="468.036" stroke="#141414"/>
<line x1="45.8395" y1="-253.582" x2="2540.82" y2="539.512" stroke="#141414"/>
<line x1="23.1192" y1="-182.106" x2="2518.1" y2="610.988" stroke="#141414"/>
<line x1="0.39854" y1="-110.631" x2="2495.38" y2="682.464" stroke="#141414"/>
<line x1="-22.3217" y1="-39.1552" x2="2472.66" y2="753.939" stroke="#141414"/>
<line x1="-45.0424" y1="32.3209" x2="2449.94" y2="825.415" stroke="#141414"/>
<line x1="-67.7626" y1="103.796" x2="2427.22" y2="896.891" stroke="#141414"/>
<line x1="-90.4828" y1="175.272" x2="2404.5" y2="968.366" stroke="#141414"/>
<line x1="-113.204" y1="246.748" x2="2381.78" y2="1039.84" stroke="#141414"/>
<line x1="-135.924" y1="318.224" x2="2359.06" y2="1111.32" stroke="#141414"/>
<line x1="-158.644" y1="389.699" x2="2336.34" y2="1182.79" stroke="#141414"/>
<line x1="-181.365" y1="461.175" x2="2313.62" y2="1254.27" stroke="#141414"/>
<line x1="-204.085" y1="532.651" x2="2290.89" y2="1325.75" stroke="#141414"/>
<line x1="-226.806" y1="604.127" x2="2268.17" y2="1397.22" stroke="#141414"/>
<line x1="-249.526" y1="675.602" x2="2245.45" y2="1468.7" stroke="#141414"/>
<line x1="-272.246" y1="747.078" x2="2222.73" y2="1540.17" stroke="#141414"/>
<line x1="-294.967" y1="818.554" x2="2200.01" y2="1611.65" stroke="#141414"/>
<line x1="-317.687" y1="890.029" x2="2177.29" y2="1683.12" stroke="#141414"/>
<line x1="-340.408" y1="961.505" x2="2154.57" y2="1754.6" stroke="#141414"/>
<line x1="-363.128" y1="1032.98" x2="2131.85" y2="1826.08" stroke="#141414"/>
<line x1="-385.849" y1="1104.46" x2="2109.13" y2="1897.55" stroke="#141414"/>
</g>
</svg>
