<svg width="119" height="106" viewBox="0 0 119 106" fill="none" xmlns="http://www.w3.org/2000/svg">
<path d="M1.34003 23.5915C1.15718 23.6097 1.0749 23.6966 1.07947 23.8383C1.02004 24.4326 0.960615 25.0223 0.937759 25.6211C0.901189 26.5902 0.86919 27.5593 0.841763 28.5284C0.786909 30.462 0.759481 32.4002 0.736625 34.3384C0.695484 38.3794 0.805194 42.4295 0.997185 46.4659C1.3766 54.4976 2.044 62.5155 2.89882 70.5106C3.53422 76.435 4.19248 82.2999 4.42104 88.2608C4.64046 93.9245 4.8096 99.5791 5.29872 105.229C5.32158 105.494 5.70099 105.229 5.72384 105.074C7.23235 93.4308 6.15354 81.7605 4.88274 70.1587C4.03249 62.3601 3.38337 54.5387 2.93539 46.7082C2.7114 42.7129 2.51484 38.7177 2.35027 34.7224C2.19028 30.8094 2.32284 26.7868 1.85658 22.8966C1.83372 22.7184 1.65544 22.6772 1.50459 22.7641C1.07947 23.0063 0.933189 23.2029 1.01547 23.7103C1.04747 23.9252 1.30803 23.6966 1.34003 23.5915Z" fill="white"/>
<path d="M1.3709 22.8462C2.17087 22.9239 3.08055 22.3297 3.75709 21.9868C5.09189 21.3057 6.43127 20.6429 7.7615 19.9526C11.5511 17.9961 15.3863 16.1219 19.281 14.3711C22.7963 12.7895 26.371 11.3358 29.964 9.94619C33.1913 8.69367 36.8391 7.51886 39.1705 4.81726C39.2436 4.73497 39.3487 4.4287 39.1156 4.50641C36.1397 5.5578 33.3421 7.10745 30.3983 8.26397C26.8236 9.66734 23.2671 11.1119 19.7656 12.7026C16.1954 14.33 12.6847 16.0762 9.22886 17.9321C7.70664 18.7458 6.19813 19.5778 4.68962 20.4143C3.73881 20.94 2.70114 21.868 1.63604 22.124C1.39376 22.1834 0.904638 22.8005 1.3709 22.8462Z" fill="white"/>
<path d="M39.1461 5.93739C39.2467 5.8094 39.3427 5.68598 39.4387 5.56255C39.2467 5.60827 39.0501 5.65855 38.8581 5.70426C38.9175 5.75454 38.9495 6.66422 38.9724 6.77393C39.105 7.55104 39.3564 8.29158 39.4707 9.07783C39.7129 10.7326 39.7129 12.4148 39.7998 14.0788C39.9918 17.6032 40.3575 21.123 40.5312 24.652C40.8878 31.7969 41.0797 38.9372 41.5963 46.0729C42.0397 52.1983 42.6248 58.3146 43.1368 64.4355C43.3928 67.5074 43.6259 70.5793 43.8179 73.6511C43.9276 75.3882 44.019 77.1207 44.1013 78.8578C44.1882 80.6771 44.5859 82.3776 44.8876 84.1604C44.947 84.5215 45.4041 84.1147 45.4224 83.9044C45.587 82.1216 45.843 80.3891 45.7973 78.5926C45.7561 76.8464 45.6327 75.0956 45.5276 73.3494C45.3356 70.1084 45.0841 66.8674 44.8144 63.631C44.2796 57.1581 43.6625 50.6944 43.1962 44.2215C42.9494 40.7519 41.7289 4.67116 39.425 4.91801C39.1553 4.94544 38.8673 5.16485 38.8078 5.4437C38.7667 5.64941 38.7713 5.74997 38.7758 5.97854C38.785 6.21167 39.0867 6.02425 39.1461 5.93739Z" fill="white"/>
<path d="M45.3608 82.9123C41.6901 84.4757 38.2891 86.9213 34.8516 88.9418C31.3317 91.0125 27.757 93.0056 24.164 94.953C20.6716 96.8454 17.0969 98.5688 13.5724 100.397C12.1051 101.156 10.72 102.084 9.28462 102.902C8.00925 103.629 6.66073 104.118 5.44021 104.927C5.31679 105.005 5.11565 105.293 5.32136 105.394C6.41846 105.933 7.51098 105.215 8.51208 104.708C10.1303 103.89 11.6388 102.866 13.2159 101.974C16.7952 99.9585 20.571 98.2671 24.1823 96.306C27.8576 94.3084 31.4597 92.1965 35.0481 90.0526C38.5725 87.9452 42.3438 85.8973 45.4797 83.2232C45.6397 83.0906 45.6122 82.8072 45.3608 82.9123Z" fill="white"/>
<path d="M38.6661 5.17831C40.0237 5.26059 41.3082 5.864 42.5882 6.27998C44.1744 6.79196 45.7743 7.2308 47.3834 7.66049C51.3741 8.71188 55.3876 9.66727 59.3829 10.6821C63.3096 11.674 67.1677 12.9723 71.099 13.9185C72.8269 14.3391 74.596 14.5768 76.3376 14.9333C78.0153 15.2762 79.9809 15.5779 81.558 16.2361C81.7317 16.3093 82.1065 15.9344 81.9237 15.8019C80.534 14.8053 79.4598 14.1334 77.7456 13.7311C75.8576 13.2831 73.9286 13.0363 72.0361 12.6157C67.9128 11.6969 63.8673 10.2798 59.7669 9.24214C55.5842 8.18619 51.3878 7.18509 47.2188 6.07427C45.5686 5.63544 43.9321 5.1006 42.2682 4.71662C41.1071 4.44691 39.8546 4.25492 38.7575 4.80804C38.6615 4.85832 38.4238 5.1646 38.6661 5.17831Z" fill="white"/>
<path d="M45.6359 83.8542C49.4985 84.6953 52.8676 86.6838 56.5154 88.1283C59.5416 89.3259 62.7186 90.2082 65.7767 91.3419C69.0634 92.5624 72.3319 93.8423 75.582 95.1588C77.118 95.7851 78.6493 96.4251 80.1716 97.0788C81.6435 97.705 83.1246 98.0799 84.6376 98.569C84.8388 98.6375 85.2959 98.2079 85.0673 98.0616C83.9794 97.3713 82.992 96.6171 81.8081 96.0868C80.1898 95.3691 78.5488 94.6971 76.9077 94.0252C73.5295 92.6401 70.1285 91.319 66.7047 90.0482C63.6374 88.91 60.4924 87.982 57.4296 86.8483C53.7269 85.4724 50.2345 82.9079 46.1387 83.0085C45.8507 83.0176 45.1742 83.7536 45.6359 83.8542Z" fill="white"/>
<path d="M81.9825 16.1994C81.6991 19.5958 82.0191 23.0928 82.1425 26.4938C82.2705 30.0274 82.3711 33.5655 82.5265 37.0991C82.8419 44.3491 83.1116 51.6037 83.3767 58.8628C83.6373 66.0808 83.8384 73.2987 83.9344 80.5213C83.9756 83.7166 83.9847 86.8845 84.2498 90.0706C84.3778 91.602 84.4875 93.1333 84.5012 94.6693C84.5104 95.9721 84.2727 97.2566 84.3047 98.5548C84.323 99.2085 85.1595 98.5366 85.2875 98.308C86.636 95.9584 86.1652 92.7905 85.964 90.2032C85.7218 87.0536 85.6166 83.9497 85.5801 80.7956C85.4978 73.4039 85.2875 66.0168 85.0224 58.6296C84.7527 51.2105 84.3687 43.8005 84.003 36.386C83.8293 32.889 83.5961 29.392 83.3904 25.895C83.1939 22.5717 83.2304 19.1022 82.6133 15.8246C82.5448 15.4726 82.0008 16.0029 81.9825 16.1994Z" fill="white"/>
<path d="M82.2091 15.6464C82.2091 15.6419 82.2411 15.0065 82.072 15.2396C81.9074 15.3402 81.7429 15.4407 81.5783 15.5413C84.1565 15.5779 86.7758 14.2293 89.066 13.1917C92.0647 11.834 94.9766 10.3209 98.0713 9.18727C104.485 6.84223 111.771 5.2743 117.344 1.16475C117.426 1.10076 117.554 0.799054 117.339 0.872193C114.116 1.90072 111.04 3.32238 107.872 4.50633C104.357 5.81827 100.805 7.02965 97.2851 8.3416C94.1675 9.50269 91.2282 11.1163 88.1975 12.4831C86.6341 13.1825 85.0433 13.7768 83.4068 14.2796C82.6251 14.5219 81.6194 14.5219 81.3223 15.3904C81.2995 15.4544 81.304 15.5733 81.3635 15.619C81.5372 15.7561 81.6926 15.7516 81.8754 15.8887C82.0126 15.9938 82.2046 15.779 82.2091 15.6464Z" fill="white"/>
<path d="M117.311 1.47544C117.891 7.65575 117.037 13.7081 117.027 19.8838C117.014 26.5898 116.822 33.3004 116.753 40.0018C116.675 46.9501 116.616 53.8984 116.538 60.8512C116.465 67.4978 116.355 74.2221 116.877 80.855C116.895 81.1018 117.224 80.823 117.238 80.6858C117.987 73.8656 118.079 66.9401 118.134 60.0833C118.188 53.1441 118.225 46.205 118.284 39.2659C118.344 32.5781 118.646 25.8584 118.508 19.1707C118.449 16.1125 118.719 13.0498 118.801 9.99165C118.879 7.07063 118.906 3.92562 117.823 1.16917C117.718 0.904034 117.293 1.28345 117.311 1.47544Z" fill="white"/>
<path d="M84.7541 98.459C87.3505 98.1984 89.979 96.4065 92.2509 95.218C95.1674 93.6912 98.0427 92.0867 100.909 90.473C106.371 87.4012 111.848 84.3247 117.109 80.9146C117.269 80.8095 117.324 80.4849 117.054 80.5946C111.432 82.9534 106.189 86.1167 100.891 89.1062C98.1798 90.6376 95.4645 92.1553 92.7217 93.6272C90.075 95.0489 87.0351 96.2511 84.7495 98.2213C84.6992 98.267 84.6124 98.4727 84.7541 98.459Z" fill="white"/>
<path d="M11.6076 79.7715C11.7722 75.8768 11.2922 72.0507 12.2842 68.2246C13.2213 64.6087 16.06 61.6923 19.8587 61.2352C26.6607 60.4169 30.7108 66.7572 31.2685 72.741C31.7805 78.2585 29.7966 84.7725 25.2208 88.1735C22.6746 90.066 19.5799 90.4591 16.9057 88.6215C14.1584 86.7335 12.755 83.5977 12.1196 80.4435C12.0556 80.1372 11.9093 79.8767 11.7905 79.5978C11.6214 79.2138 11.1094 79.7441 11.0545 79.9544C10.2683 82.7337 12.1105 85.897 13.8247 87.986C15.6212 90.1757 18.2588 91.5836 21.1158 91.1265C26.1442 90.322 29.7737 85.5176 31.3645 81.0149C33.1656 75.9134 33.1565 69.8337 30.3314 65.0979C27.2778 59.9781 20.8553 58.5839 15.9092 61.8249C10.2591 65.5276 10.0671 74.0803 11.2419 79.9864C11.2831 80.1829 11.6031 79.8904 11.6076 79.7715Z" fill="white"/>
<path d="M20.1639 76.5126C20.4199 74.2818 20.0405 71.9185 20.0222 69.6694C20.0039 67.201 20.2096 64.7416 20.5159 62.296C20.1639 62.5063 19.8119 62.7166 19.4599 62.9268C20.9502 67.6261 21.485 72.4944 22.1478 77.3582C22.2438 78.0348 23.2769 77.3217 23.2266 76.8417C22.7101 71.9139 22.0015 66.9084 20.4976 62.1817C20.301 61.5646 19.4782 62.5017 19.4371 62.8126C19.1399 65.2353 19.1034 67.6672 19.1171 70.1037C19.1308 72.2156 18.9708 74.7709 19.7113 76.7823C19.8073 77.0428 20.1502 76.6497 20.1639 76.5126Z" fill="white"/>
<path d="M19.3295 76.8556C19.7729 78.7755 20.4632 80.6132 20.8563 82.5605C21.286 84.6816 21.606 86.8209 22.1774 88.9099C22.2917 89.3122 22.8494 88.7042 22.8722 88.4985C23.1328 86.1946 22.9728 83.877 23.0505 81.564C23.0962 80.2932 23.6402 78.5927 23.247 77.3721C23.0962 76.9104 22.182 77.5916 22.3511 78.0121C22.8676 79.2829 22.3465 81.1114 22.3054 82.4508C22.2414 84.5856 22.4014 86.7112 22.1682 88.8368C22.3968 88.6997 22.6299 88.5625 22.8585 88.4254C22.2779 86.3409 21.9397 84.2061 21.5191 82.0851C21.1626 80.284 20.838 78.0487 19.6312 76.5996C19.5215 76.467 19.3021 76.7413 19.3295 76.8556Z" fill="white"/>
<path d="M23.259 77.655C24.7812 76.8505 26.2669 75.9408 27.7205 75.0129C28.4656 74.5375 30.3124 73.6186 30.4541 72.6267C30.477 72.4758 30.4404 72.2655 30.2301 72.2838C28.7948 72.4118 27.4188 72.7684 26.0703 73.2621C25.0829 73.6232 23.8578 74.0026 23.2041 74.8666C23.1219 74.9717 23.0579 75.246 23.2773 75.2414C24.0544 75.2231 24.8406 74.5969 25.5537 74.2997C25.9103 74.1535 29.5627 73.2438 29.5582 73.0289C29.5536 72.8872 28.4245 73.7878 28.2371 73.9249C27.6382 74.3683 27.0074 74.766 26.3811 75.1637C25.3023 75.8403 24.1824 76.4482 23.1858 77.2391C23.0076 77.3808 22.907 77.8379 23.259 77.655Z" fill="white"/>
<path d="M18.9505 75.7995C16.8066 77.0291 14.5804 78.5102 12.6879 80.101C12.5645 80.2016 12.112 80.8918 12.5965 80.8324C15.1473 80.517 17.7529 79.8816 20.0979 78.8165C20.1665 78.7845 20.3448 78.5376 20.1665 78.5422C17.7117 78.5925 15.3484 79.6804 12.9028 79.9958C12.9394 80.2061 12.9805 80.4164 13.0171 80.6267C14.9141 79.0039 17.4877 77.9479 19.0968 76.028C19.202 75.9 19.1243 75.7035 18.9505 75.7995Z" fill="white"/>
<path d="M25.2904 65.0388C25.0527 65.3496 24.7556 65.7336 24.5727 66.177C24.335 66.7438 24.207 67.2695 24.2207 67.8821C24.2253 68.0283 24.4081 67.9461 24.4584 67.8912C24.9338 67.3929 25.2767 66.8215 25.5098 66.1816C25.6104 65.8936 25.6927 65.601 25.7201 65.2993C25.7338 65.1485 25.647 65.0707 25.6424 64.993C25.6195 64.7736 25.359 64.9473 25.2904 65.0388Z" fill="white"/>
<path d="M12.6887 70.8532C13.091 70.8989 13.5572 71.1321 13.9183 71.2966C14.3709 71.5069 14.7777 71.5755 15.2669 71.6349C15.372 71.6486 15.6006 71.4292 15.4863 71.3241C14.7275 70.6521 13.7675 70.0304 12.7527 70.5881C12.6841 70.6292 12.5195 70.8349 12.6887 70.8532Z" fill="white"/>
<path d="M16.2205 85.8885C17.0662 85.2074 17.5096 84.188 17.9118 83.2098C17.9576 83.1001 17.857 83.0406 17.7656 83.1183C16.9519 83.804 16.2251 84.7366 15.9691 85.7879C15.9279 85.9616 16.1199 85.9708 16.2205 85.8885Z" fill="white"/>
<path d="M27.435 79.726C27.723 79.9774 28.0979 80.11 28.4316 80.2791C28.9161 80.5305 29.3367 80.6859 29.8624 80.8139C30.0086 80.8505 30.2738 80.6219 30.1503 80.4802C29.5149 79.7443 28.6236 79.1226 27.6042 79.4517C27.5265 79.4746 27.3299 79.6345 27.435 79.726Z" fill="white"/>
<path d="M102.002 44.3584C99.7031 40.4911 96.6861 37.2136 94.9125 33.0126C94.0622 31.0012 93.4771 28.7476 93.7971 26.5534C94.1536 24.1352 96.0644 21.9776 98.126 20.7937C100.499 19.436 103.09 20.1126 104.544 22.4027C105.906 24.5558 105.691 27.4402 105.285 29.831C104.859 32.3269 104.078 34.8182 103.282 37.2136C102.807 38.6626 102.295 40.098 101.838 41.5517C101.527 42.5345 100.951 43.7824 101.385 44.7972C101.49 45.0395 101.829 44.7927 101.916 44.6647C102.693 43.4761 102.944 42.0682 103.369 40.7288C103.927 38.9598 104.562 37.2181 105.12 35.4536C105.957 32.8069 106.697 30.0641 106.939 27.2894C107.168 24.7158 106.706 22.037 104.882 20.108C103.049 18.1652 100.284 18.444 98.1123 19.564C95.9456 20.6748 94.1811 22.6633 93.1022 24.8209C92.0691 26.8826 92.1789 29.2276 92.6908 31.4127C93.308 34.0548 94.661 36.537 96.1147 38.8043C97.5363 41.0077 99.2231 43.3527 101.408 44.8612C101.641 45.0167 102.153 44.6144 102.002 44.3584Z" fill="white"/>
<path d="M95.7629 29.0404C95.804 26.9559 96.6406 23.9434 98.8622 23.2623C100.86 22.6452 102.569 24.5194 103.068 26.229C103.548 27.893 103.145 30.2426 101.751 31.3763C100.16 32.6745 97.2257 32.2036 96.9377 29.9455C96.924 29.8129 96.8874 29.7032 96.7503 29.6483C96.6863 29.6255 96.6177 29.6026 96.5537 29.5798C96.4349 29.534 96.2749 29.6255 96.1972 29.7123C95.2829 30.7591 95.836 32.0985 96.924 32.8116C97.9936 33.511 99.5707 33.511 100.727 33.0493C103.337 32.0071 104.604 29.0724 104.348 26.3936C104.083 23.6097 101.573 21.5938 98.7936 22.4623C96.1423 23.2852 94.9172 26.6907 95.5755 29.1546C95.6029 29.2552 95.7583 29.1043 95.7629 29.0404Z" fill="white"/>
<path d="M25.57 56.4218C26.7905 55.3155 27.1562 53.2448 27.7459 51.7637C28.4179 50.0586 29.1584 48.2256 30.0315 46.621C30.1229 46.4565 29.9447 46.3971 29.8258 46.4885C28.2442 47.677 27.2476 49.0667 26.4568 50.886C25.7437 52.5225 24.738 54.5841 24.8614 56.4081C24.8889 56.8378 25.3917 56.5818 25.57 56.4218Z" fill="white"/>
<path d="M32.4851 44.0937C33.2713 43.9337 33.9616 42.9646 34.5284 42.4526C35.3238 41.7349 36.0872 41.0721 36.7592 40.231C36.8415 40.1213 36.8415 39.9064 36.654 39.9567C35.5112 40.2767 34.6427 40.9121 33.7787 41.7029C33.3353 42.1098 31.9639 43.2983 32.3159 44.0251C32.3525 44.0983 32.4165 44.1074 32.4851 44.0937Z" fill="white"/>
<path d="M45.3295 36.2491C46.1386 36.793 47.3865 36.4913 48.3236 36.8525C48.8265 37.0445 49.2607 37.3873 49.7179 37.6661C50.4081 38.0913 51.2355 38.2696 51.9806 38.5758C52.1041 38.6307 52.36 38.4067 52.2823 38.2741C51.4367 36.7839 50.9064 35.7279 49.2105 35.1063C47.9214 34.6354 46.358 35.0057 45.4072 35.9519C45.3569 36.0022 45.2335 36.1805 45.3295 36.2491Z" fill="white"/>
<path d="M55.1759 41.7891C57.4981 45.2724 57.7541 49.4688 59.5826 53.1349C59.6969 53.3635 60.026 53.0298 60.026 52.8698C60.0169 48.9431 59.3997 43.3982 55.6148 41.2772C55.3816 41.1492 55.0388 41.588 55.1759 41.7891Z" fill="white"/>
<path d="M61.1138 59.7088C60.5607 62.3418 61.8544 65.496 63.8246 67.2147C63.9663 67.3427 64.2497 67.0867 64.2223 66.9313C64.012 65.5737 63.756 64.376 63.2715 63.0869C62.8326 61.903 62.4669 60.3122 61.4018 59.5351C61.2921 59.4573 61.1367 59.6036 61.1138 59.7088Z" fill="white"/>
<path d="M67.5518 69.747C67.5975 72.1789 71.0671 72.6634 72.8728 72.2063C73.0008 72.1743 73.2293 71.9366 73.0556 71.8269C72.2328 71.3195 71.474 70.7984 70.5963 70.3778C69.682 69.9435 68.9643 69.3767 67.9175 69.3767C67.7438 69.3767 67.5473 69.5687 67.5518 69.747Z" fill="white"/>
<path d="M78.2668 71.731C78.9251 72.1378 79.981 71.4064 80.4884 71.027C81.1467 70.5288 81.6678 69.8065 81.9467 69.0294C82.0107 68.8511 81.7958 68.8831 81.709 68.938C80.621 69.6145 79.4462 70.2865 78.4314 71.0727C78.2531 71.2144 77.988 71.5573 78.2668 71.731Z" fill="white"/>
<path d="M88.344 65.0067C90.7851 63.5714 92.5496 60.1521 92.9884 57.4322C93.0341 57.1671 92.7096 57.2951 92.6273 57.4276C91.7862 58.7441 90.9496 60.0607 90.1451 61.4046C89.464 62.5337 88.5177 63.5942 88.1292 64.8696C88.088 65.0113 88.2343 65.0707 88.344 65.0067Z" fill="white"/>
<path d="M96.2923 53.4692C96.9368 52.8018 97.4031 51.9835 97.9699 51.2521C98.5825 50.4659 99.2362 49.7299 99.7939 48.9025C99.8899 48.7608 99.8396 48.5734 99.6476 48.6648C98.6465 49.1539 97.8237 49.7893 97.1106 50.6441C96.4843 51.3984 95.6158 52.4772 95.826 53.524C95.8717 53.748 96.2192 53.5469 96.2923 53.4692Z" fill="white"/>
<path d="M103.007 47.2699C103.043 47.0916 103.048 46.9636 102.998 46.7854C102.925 47.0779 102.851 47.3751 102.778 47.6676C102.765 47.6905 102.746 47.7133 102.733 47.7408C102.257 47.727 101.786 47.7179 101.311 47.7088C101.297 47.9007 101.32 48.0699 101.361 48.2573C101.453 48.6596 102.02 48.5499 102.266 48.431C102.728 48.2116 103.185 47.7042 103.19 47.1693C103.19 47.0459 103.185 46.9271 103.19 46.8036C103.222 45.9488 102.061 46.4471 101.768 46.7716C101.521 47.0459 101.338 47.2882 101.224 47.6448C101.151 47.8642 101.21 48.239 101.48 48.303C102.102 48.4584 102.883 47.9007 103.007 47.2699Z" fill="white"/>
<path d="M113.669 63.3248C113.765 66.0629 113.801 68.7554 113.664 71.4936C113.536 74.0169 113.312 76.5951 113.952 79.0681C113.993 79.2281 114.245 78.995 114.245 78.8898C114.249 76.1334 114.24 73.3861 114.35 70.6296C114.441 68.1703 114.619 65.5555 113.934 63.1648C113.897 63.0231 113.664 63.2288 113.669 63.3248Z" fill="white"/>
<path d="M111.964 66.8489C111.507 68.9151 111.695 71.1276 111.782 73.2303C111.873 75.4794 112.047 77.701 112.307 79.9364C112.325 80.0918 112.531 79.9135 112.54 79.8221C112.737 77.6782 112.673 75.5937 112.536 73.4452C112.394 71.2327 112.545 68.938 112.252 66.7438C112.229 66.5563 111.987 66.7483 111.964 66.8489Z" fill="white"/>
<path d="M109.939 70.1036C109.061 73.4772 109.701 77.3719 109.902 80.8049C109.911 80.9512 110.117 80.8049 110.131 80.7181C110.414 78.9581 110.496 77.2165 110.432 75.4337C110.368 73.6189 110.51 71.7584 110.336 69.9574C110.314 69.6968 109.971 69.9756 109.939 70.1036Z" fill="white"/>
<path d="M106.314 81.5134C109.528 80.1923 112.691 78.2724 115.493 76.2245C115.562 76.1742 115.662 75.9319 115.488 75.9868C112.179 77.0336 109.061 79.2598 106.273 81.2803C106.163 81.358 106.113 81.5957 106.314 81.5134Z" fill="white"/>
<path d="M107.965 78.0162C110.392 77.4128 112.994 76.2105 115.014 74.7432C115.092 74.6837 115.215 74.3866 115.009 74.4597C112.637 75.31 109.986 76.1557 107.961 77.6962C107.869 77.7693 107.723 78.0756 107.965 78.0162Z" fill="white"/>
<path d="M42.3582 8.51559C42.2531 10.7646 42.6782 13.0868 42.8885 15.3313C43.0942 17.5804 43.3822 19.7654 43.8302 21.9779C43.8576 22.1059 44.0862 21.9185 44.0816 21.827C43.9399 19.546 43.7845 17.2832 43.5513 15.0113C43.3319 12.8354 43.3319 10.4401 42.6097 8.36474C42.564 8.22303 42.3628 8.43331 42.3582 8.51559Z" fill="white"/>
<path d="M44.1731 9.38394C44.3057 10.9519 44.3788 12.8626 45.0462 14.3026C45.1194 14.4626 45.3388 14.2294 45.3388 14.1289C45.3708 12.5884 45.3022 10.5542 44.4931 9.19194C44.4017 9.04109 44.164 9.26051 44.1731 9.38394Z" fill="white"/>
<path d="M43.8231 24.1489C43.7499 25.4334 43.8322 26.9556 44.3168 28.1579C44.367 28.2813 44.5408 28.0939 44.5453 28.0207C44.6276 26.7728 44.8196 25.0631 44.0699 23.9706C43.9968 23.8655 43.8276 24.0803 43.8231 24.1489Z" fill="white"/>
<path d="M41.7927 10.9014C42.5607 11.2763 43.3972 11.4637 44.1972 11.7608C44.9697 12.0534 45.7377 12.2911 46.5559 12.4099C46.6748 12.4282 46.8896 12.2042 46.7845 12.0945C45.5914 10.9106 43.5846 10.2934 41.9344 10.6134C41.843 10.6317 41.651 10.8329 41.7927 10.9014Z" fill="white"/>
<path d="M5.50028 25.0131C5.76998 27.8793 6.19053 30.6952 6.28653 33.5751C6.38253 36.5646 6.16768 39.5634 6.52881 42.5393C6.55623 42.7312 6.82594 42.5393 6.84422 42.425C7.23278 39.5177 7.24649 36.6104 7.15507 33.6848C7.06364 30.7957 6.96307 27.541 5.77455 24.8531C5.71055 24.7114 5.49113 24.9126 5.50028 25.0131Z" fill="white"/>
<path d="M8.3707 23.1706C8.36613 24.6974 8.53069 26.2379 8.60383 27.7647C8.67697 29.296 8.75011 30.736 9.28952 32.1805C9.34437 32.3222 9.55465 32.1119 9.55465 32.0205C9.56379 30.4754 9.46322 28.944 9.36266 27.4035C9.26209 25.9225 9.23923 24.3728 8.71354 22.9649C8.6404 22.782 8.3707 23.0517 8.3707 23.1706Z" fill="white"/>
<path d="M10.5233 21.6943C10.4364 23.0611 10.6467 24.4645 10.6833 25.8358C10.7107 26.9741 10.8798 28.1489 11.2364 29.2323C11.2867 29.3831 11.5198 29.1637 11.5152 29.0677C11.4924 27.6872 11.5472 26.3021 11.4878 24.9216C11.4421 23.8108 11.4558 22.4714 10.857 21.4977C10.7519 21.3286 10.5324 21.5709 10.5233 21.6943Z" fill="white"/>
<path d="M3.83254 27.989C5.79817 27.1616 7.69067 26.1376 9.58773 25.1685C11.4665 24.2131 13.295 23.2258 14.8721 21.8178C14.9772 21.7264 14.9681 21.5024 14.7898 21.5984C12.8836 22.5995 11.0322 23.6966 9.13061 24.7023C7.31125 25.6668 5.43705 26.5765 3.80511 27.8427C3.74112 27.893 3.70912 28.0393 3.83254 27.989Z" fill="white"/>
<path d="M4.81992 30.2056C6.59356 29.5748 8.24835 28.4411 9.77057 27.3623C9.87114 27.2938 9.91228 27.0881 9.734 27.1566C7.99693 27.8423 6.19586 28.6926 4.76963 29.9314C4.68735 30.0045 4.62793 30.2788 4.81992 30.2056Z" fill="white"/>
<path d="M80.7066 82.5877C80.7935 84.055 81.0403 85.4813 81.0586 86.9623C81.0769 88.5897 80.9855 90.2216 81.15 91.8399C81.1683 92.0456 81.438 91.8124 81.4517 91.6936C81.6437 90.0022 81.7946 88.3109 81.7991 86.6058C81.8083 85.3807 81.9043 83.3465 81.0266 82.3545C80.9215 82.2311 80.702 82.478 80.7066 82.5877Z" fill="white"/>
<path d="M79.1704 86.1443C79.0653 88.3111 79.1704 90.5693 79.367 92.7315C79.3807 92.8686 79.5773 92.7269 79.591 92.6492C80.0024 90.5373 80.2264 88.0231 79.4813 85.9569C79.4173 85.7832 79.175 86.0438 79.1704 86.1443Z" fill="white"/>
<path d="M76.8469 89.5501C77.6835 89.5684 78.6663 90.1078 79.4068 90.4552C80.2251 90.8346 81.1028 91.0997 81.953 91.3923C82.0856 91.438 82.3096 91.2186 82.209 91.0906C80.9702 89.5044 78.8811 88.6496 76.9384 89.3078C76.8652 89.3307 76.6824 89.5501 76.8469 89.5501Z" fill="white"/>
</svg>
