<svg width="1645" height="93" viewBox="0 0 1645 93" fill="none" xmlns="http://www.w3.org/2000/svg">
<path d="M0 93V29.5747L21 26.5057L84 18.3218L167 20.8793L239 31.1092L283.5 39.8046L328 42.3621L411.5 28.5517L497.5 17.2988L619.5 6.55746L780 3.99999H854.5L965 10.6494L1126.5 30.0862L1188.5 42.3621L1217 39.8046L1281 42.3621L1347 47.9885L1403.5 56.6839L1436.5 47.9885L1499 39.8046L1540.5 41.8506L1611 54.1264L1645 64.8678V93H0Z" fill="#1C1C1C"/>
<path fill-rule="evenodd" clip-rule="evenodd" d="M761 0C910.837 0 1053.01 12.8059 1180.65 35.7708C1186.34 36.7949 1192.15 37.1536 1197.98 36.8875C1210.87 36.2991 1223.88 36 1237 36C1287.85 36 1337.13 40.4943 1384 48.9236C1396.18 51.114 1408.8 50.4264 1421.04 47.3452C1450.47 39.9342 1481.28 36 1513 36C1559.45 36 1603.94 44.4351 1645 59.8572V68.4185C1604.03 52.6459 1559.53 44 1513 44C1481.95 44 1451.79 47.8516 1422.99 55.1031C1409.77 58.4309 1396 59.2101 1382.58 56.7972C1336.19 48.4529 1287.38 44 1237 44C1224.01 44 1211.12 44.2961 1198.34 44.8792C1191.94 45.1711 1185.54 44.7789 1179.23 43.6443C1052.09 20.7688 910.392 8 761 8C611.371 8 469.459 20.8092 342.166 43.7532C335.643 44.929 329.009 45.3076 322.389 44.968C312.685 44.4703 302.906 44.1624 293.06 44.0491C287.37 43.9836 281.502 43.3408 275.931 42.178C159.928 17.9618 69.8284 17.587 0 33.8346V25.6232C71.0217 9.47473 161.843 10.1891 277.566 34.3467C282.631 35.4042 287.983 35.9902 293.152 36.0496C303.104 36.1641 312.988 36.4753 322.799 36.9785C328.842 37.2886 334.861 36.9409 340.747 35.8801C468.538 12.8464 610.925 0 761 0Z" fill="#131313"/>
</svg>
