<svg width="1645" height="58" viewBox="0 0 1645 58" fill="none" xmlns="http://www.w3.org/2000/svg">
<path fill-rule="evenodd" clip-rule="evenodd" d="M0 40.3603V0.5H1645V46.7296V50.5V55.1525C1608.54 43.0321 1569.53 36.4696 1529 36.4696C1497.95 36.4696 1467.79 40.3212 1438.99 47.5729C1425.77 50.9005 1412 51.6796 1398.58 49.267C1352.19 40.9225 1303.38 36.4696 1253 36.4696C1197.52 36.4696 1143.94 41.8703 1093.39 51.9218C1084.55 53.6803 1075.49 54.1173 1066.54 53.0629C974.926 42.2726 877.711 36.4696 777 36.4696C673.807 36.4696 574.285 42.5622 480.697 53.8695C471.096 55.0297 461.378 54.4677 451.926 52.421C404.028 42.0492 353.182 36.4696 300.5 36.4696C171.001 30.6234 73.429 35.3646 0 48.4855V45V40.3603Z" fill="#1C1C1C"/>
<path fill-rule="evenodd" clip-rule="evenodd" d="M1645 48.7297C1608.47 36.8758 1569.48 30.4696 1529 30.4696C1497.28 30.4696 1466.47 34.4038 1437.04 41.8149C1424.8 44.896 1412.18 45.5836 1400 43.3932C1353.13 34.9639 1303.85 30.4696 1253 30.4696C1197 30.4696 1142.9 35.9205 1091.83 46.0755C1083.76 47.6799 1075.55 48.0688 1067.48 47.1177C975.543 36.2899 878.015 30.4696 777 30.4696C673.495 30.4696 573.653 36.5803 479.738 47.9273C471.082 48.9732 462.261 48.4734 453.619 46.6021C405.213 36.1205 353.862 30.4824 300.681 30.4696C171.786 24.6591 74.0405 29.291 0 42.3602V50.4854C73.429 37.3645 171.001 32.6234 300.5 38.4696C353.182 38.4696 404.028 44.0492 451.926 54.4209C461.378 56.4676 471.096 57.0296 480.697 55.8696C574.285 44.562 673.807 38.4696 777 38.4696C877.711 38.4696 974.926 44.2725 1066.54 55.0628C1075.49 56.1174 1084.55 55.6803 1093.39 53.9218C1143.94 43.8703 1197.52 38.4696 1253 38.4696C1303.38 38.4696 1352.19 42.9225 1398.58 51.2669C1412 53.6797 1425.77 52.9006 1438.99 49.5728C1467.79 42.3212 1497.95 38.4696 1529 38.4696C1569.53 38.4696 1608.54 45.032 1645 57.1524V48.7297Z" fill="#131313"/>
</svg>
