<svg width="1596" height="33" viewBox="0 0 1596 33" fill="none" xmlns="http://www.w3.org/2000/svg">
<path fill-rule="evenodd" clip-rule="evenodd" d="M1596 14.3065V0H0L0 15.2911C34.2943 26.8021 70.7318 32.9995 108.5 32.9995C127.591 32.9995 146.341 31.4161 164.647 28.3634C277.967 9.46582 410.376 11.8439 523.918 29.3584C539.494 31.7611 555.376 33.0001 571.5 33.0001C587.763 33.0001 603.779 31.7397 619.483 29.2963C730.054 12.0924 857.692 9.80737 968.053 28.3131C986.454 31.3987 1005.31 32.9995 1024.5 32.9995C1044.02 32.9995 1063.19 31.3434 1081.89 28.1533C1193.55 9.10645 1323.35 10.4346 1435.13 28.7477C1452.23 31.5502 1469.72 33.0001 1487.5 33.0001C1525.27 33.0001 1561.71 26.4579 1596 14.3065Z" fill="#1C1C1C"/>
</svg>
