<svg width="161" height="121" viewBox="0 0 161 121" fill="none" xmlns="http://www.w3.org/2000/svg">
<path d="M6.17659 31.3013L6.17653 31.3013L6.17436 31.3088C4.20701 38.1287 2.81702 45.0462 2.95809 52.2212C3.09158 59.405 5.70487 66.2106 10.3738 71.6583C18.9203 81.6406 33.0163 87.1334 45.9173 83.0213C51.2407 81.3259 55.8546 77.9395 59.9681 74.3741C64.3777 70.5531 68.587 65.6945 70.6774 60.1056L70.6776 60.1052C70.7921 59.7982 70.8581 59.4092 70.6337 59.0949C70.3969 58.7633 70.0121 58.7472 69.7818 58.781C69.5297 58.8181 69.2755 58.9319 69.0644 59.0792C68.8535 59.2263 68.6429 59.4367 68.5193 59.7029L68.5191 59.7032C65.3006 66.6454 60.1437 72.0446 53.8987 76.4543C48.1983 80.4741 41.7564 82.4205 34.798 81.7845C21.1825 80.5372 8.39134 69.7288 5.76945 56.2697L5.76935 56.2692C4.27985 48.6627 5.75012 40.8527 7.19015 33.2034C7.30037 32.6179 7.41041 32.0334 7.51894 31.4499L7.52026 31.4428L7.52137 31.4357C7.54244 31.3009 7.54774 30.9725 7.2363 30.7995C6.99789 30.6671 6.7632 30.7502 6.68872 30.7799C6.5798 30.8235 6.48094 30.8898 6.40274 30.9607C6.33372 31.0233 6.2264 31.1383 6.17659 31.3013Z" fill="white" stroke="white"/>
<path d="M7.20517 30.8554L7.20509 30.8554C7.55349 31.3101 7.29202 31.8033 7.10859 32.0233C7.00001 32.1535 6.86436 32.2669 6.71802 32.3489C6.57838 32.4272 6.38865 32.4991 6.17884 32.4889M7.20517 30.8554L1.2634 31.1289C2.00174 31.4958 2.79786 31.7091 3.528 31.9048C3.5494 31.9105 3.57074 31.9162 3.59202 31.9219L3.59316 31.9222C3.75618 31.9655 3.92667 32.0147 4.10306 32.0655C4.74251 32.2497 5.45941 32.4563 6.17884 32.4889M7.20517 30.8554L7.19892 30.8475M7.20517 30.8554L7.19892 30.8475M6.17884 32.4889C6.17837 32.4888 6.17791 32.4888 6.17744 32.4888L6.20272 31.9894L6.18024 32.4889C6.17978 32.4889 6.17931 32.4889 6.17884 32.4889ZM7.19892 30.8475C6.65246 30.1632 5.79394 29.9219 5.16779 29.7459C5.13876 29.7377 5.11022 29.7297 5.08224 29.7218C4.22307 29.4751 3.42168 29.2423 2.64522 28.8986L2.64522 28.8986M7.19892 30.8475L2.64522 28.8986M2.64522 28.8986L2.64374 28.8979M2.64522 28.8986L2.64374 28.8979M2.64374 28.8979C2.30396 28.7488 1.96137 28.8406 1.7247 28.9595M2.64374 28.8979L1.7247 28.9595M1.7247 28.9595C1.47862 29.0831 1.25799 29.2767 1.09393 29.4868M1.7247 28.9595L1.09393 29.4868M1.09393 29.4868C0.934935 29.6904 0.788121 29.9625 0.766405 30.2582M1.09393 29.4868L0.766405 30.2582M0.766405 30.2582C0.755019 30.4131 0.77775 30.5871 0.866545 30.7526M0.766405 30.2582L0.866545 30.7526M0.866545 30.7526C0.956861 30.921 1.09719 31.0463 1.26336 31.1288L0.866545 30.7526Z" fill="white" stroke="white"/>
<path d="M2.08953 30.1466L2.08944 30.1466C1.99524 30.2696 1.86311 30.3641 1.75615 30.4268C1.6425 30.4934 1.49963 30.5576 1.35035 30.5893C1.23683 30.6135 0.946095 30.6564 0.711596 30.4476C0.443618 30.209 0.489103 29.8742 0.537417 29.7006C0.537529 29.7002 0.537641 29.6998 0.537753 29.6994L1.01928 29.8341L2.08953 30.1466ZM2.08953 30.1466L2.09574 30.1382M2.08953 30.1466L2.09574 30.1382M2.09574 30.1382C3.1593 28.6875 3.97558 26.9871 4.73561 25.4038C4.78908 25.2924 4.84226 25.1816 4.89524 25.0715L4.89525 25.0715M2.09574 30.1382L4.89525 25.0715M4.89525 25.0715L4.89669 25.0685M4.89525 25.0715L4.89669 25.0685M4.89669 25.0685C4.9677 24.9183 5.05957 24.7369 5.16256 24.5336C5.42905 24.0073 5.77005 23.334 6.01701 22.6742C6.19149 22.2081 6.33412 21.7138 6.37978 21.2363C6.42536 20.7597 6.37786 20.2606 6.12815 19.8226L6.1282 19.8225M4.89669 25.0685L6.1282 19.8225M6.1282 19.8225L6.12422 19.8158M6.1282 19.8225L6.12422 19.8158M6.12422 19.8158C6.02835 19.6535 5.87344 19.5375 5.68388 19.5007M6.12422 19.8158L5.68388 19.5007M5.68388 19.5007C5.51505 19.4679 5.36714 19.507 5.26923 19.5471M5.68388 19.5007L5.26923 19.5471M5.26923 19.5471C5.08801 19.6214 4.92251 19.7628 4.82649 19.9173M5.26923 19.5471L4.82649 19.9173M4.82649 19.9173C4.33912 20.667 4.015 21.4945 3.73136 22.2975C3.66334 22.4901 3.59794 22.6802 3.53336 22.868C3.32234 23.4815 3.12002 24.0698 2.86342 24.6347L4.82649 19.9173Z" fill="white" stroke="white"/>
<path d="M5.48616 20.9463C6.48241 20.7535 7.4659 20.51 8.43413 20.2704C8.69283 20.2063 8.95044 20.1426 9.20692 20.0801C10.4313 19.7819 11.6408 19.5105 12.8783 19.3597L12.8786 19.3597C15.502 19.0385 18.1786 19.0377 20.8365 19.2225L20.8365 19.2225C26.6918 19.629 32.4796 21.1138 38.0235 23.1107C49.0247 27.0767 59.4984 33.4368 67.7656 41.7207C69.364 43.3275 70.8685 45.0418 72.2294 46.8507C72.6379 47.3944 72.9972 47.9731 73.3705 48.5745C73.5275 48.8274 73.687 49.0843 73.8537 49.3443C74.4038 50.2022 75.0167 51.0659 75.8191 51.7716C76.0098 51.9432 76.2424 51.9708 76.4286 51.9333C76.6004 51.8987 76.7416 51.8106 76.8419 51.7271C76.9457 51.6407 77.0383 51.5322 77.1061 51.4134C77.1683 51.3043 77.2402 51.1323 77.2214 50.9323L77.2209 50.9275C76.9944 48.7525 75.655 46.9492 74.4751 45.3605C74.3967 45.2549 74.3189 45.1503 74.2423 45.0465L74.2412 45.045C72.7263 43.0109 71.0051 41.1407 69.2063 39.3803L69.2052 39.3792C65.1478 35.4329 60.4535 32.0664 55.6761 29.1124L55.6756 29.112C45.6346 22.9215 33.9209 18.2934 22.0754 17.2433C19.1349 16.9822 16.1745 17.0034 13.2459 17.3507L13.2453 17.3507C10.547 17.6737 7.63827 18.1985 5.18069 19.6387L5.18066 19.6387L5.174 19.6427C5.06535 19.7087 4.98364 19.8033 4.93507 19.8676C4.88074 19.9395 4.82138 20.0356 4.78273 20.1437C4.76341 20.1977 4.74217 20.2742 4.73953 20.3638C4.73689 20.4536 4.75261 20.5893 4.84411 20.7188C5.04733 21.0065 5.3749 20.9679 5.48616 20.9463ZM5.48616 20.9463L5.39115 20.4554M5.48616 20.9463C5.4863 20.9463 5.48644 20.9463 5.48658 20.9462L5.39115 20.4554M5.39115 20.4554C5.16161 20.5001 5.23452 20.2999 5.33516 20.1675C5.33523 20.1674 5.3353 20.1673 5.33537 20.1672C5.36833 20.1239 5.40426 20.0879 5.43349 20.0701L12.8178 18.8634C11.2806 19.0507 9.79466 19.4185 8.30729 19.7867C7.53412 19.978 6.76056 20.1695 5.97918 20.3358C5.89489 20.3818 5.8112 20.4289 5.72812 20.4771C5.72369 20.4836 5.72177 20.4874 5.72169 20.4874C5.72164 20.4874 5.72262 20.4852 5.72435 20.4803C5.72448 20.48 5.72463 20.4795 5.72481 20.479C5.71195 20.4865 5.69912 20.494 5.68629 20.5015L5.63144 20.4079C5.55144 20.4241 5.47134 20.4399 5.39115 20.4554ZM5.63779 20.4066C5.67162 20.3998 5.70544 20.3929 5.73924 20.3859C5.73922 20.3885 5.73917 20.3909 5.7391 20.3933C5.73792 20.4334 5.73041 20.4616 5.72641 20.4742C5.71857 20.4806 5.70755 20.4887 5.69298 20.4975L5.63779 20.4066ZM5.74162 20.4601C5.74165 20.4602 5.74049 20.4616 5.73803 20.464C5.74035 20.4612 5.74158 20.46 5.74162 20.4601Z" fill="white" stroke="white"/>
<path d="M69.8088 60.5501L69.8088 60.5501L69.8139 60.5476C72.9777 58.9803 76.0055 58.0631 79.2678 59.3657L79.268 59.3657C80.6848 59.9309 81.8845 61.0129 82.789 62.2823L82.789 62.2823L82.791 62.2852C83.288 62.9725 83.6242 63.7828 83.9015 64.6306C83.9581 64.8103 84.0003 64.9933 84.0421 65.1891C84.0498 65.2251 84.0576 65.2619 84.0654 65.2994C84.0992 65.4597 84.1355 65.6317 84.1791 65.7983C84.2898 66.2211 84.4622 66.6712 84.8459 67.0796C85.0187 67.2656 85.2517 67.329 85.4702 67.2903C85.6538 67.2577 85.7965 67.1601 85.8856 67.0859C85.9819 67.0058 86.063 66.913 86.1246 66.8286C86.1816 66.7505 86.2445 66.6486 86.2812 66.5421C86.6499 65.4751 86.5111 64.357 86.1711 63.3409C85.8306 62.3234 85.274 61.3641 84.7452 60.5817L84.7443 60.5804C83.6338 58.9487 81.9536 57.8446 80.1827 57.1838L80.1823 57.1836C76.5197 55.8202 71.9635 56.8008 69.1522 59.4514C68.9785 59.6144 68.8711 59.8771 68.9158 60.1315C68.9415 60.278 69.0371 60.4892 69.2787 60.5842C69.496 60.6697 69.6957 60.6045 69.8088 60.5501Z" fill="white" stroke="white"/>
<path d="M85.3653 55.6578L85.3635 55.7865L85.2158 56.0214C85.195 56.0005 85.1719 55.9737 85.1505 55.9409C85.1034 55.8686 85.0465 55.7311 85.0777 55.5723C85.1548 55.6252 85.2838 55.6578 85.3653 55.6578ZM85.3653 55.6578V55.7835L85.4431 55.6598C85.4207 55.6589 85.3949 55.6583 85.3653 55.6578ZM76.7235 50.615C77.1264 50.7568 77.5297 50.8968 77.9329 51.0367C79.7204 51.657 81.5055 52.2765 83.2398 53.0538C84.184 53.473 85.0732 53.9345 85.9496 54.4638L76.7235 50.615ZM76.7235 50.615C76.5414 50.5515 76.1519 50.941 76.3466 51.068M76.7235 50.615L76.3466 51.068M76.3466 51.068C77.6828 51.9313 79.1355 52.5716 80.6043 53.2191C80.7924 53.3021 80.9808 53.3851 81.1693 53.4688C82.1643 53.9091 83.1509 54.3707 84.1163 54.8915L76.3466 51.068ZM76.0735 51.4868L76.0735 51.4868L76.0753 51.488C77.4472 52.3743 78.9382 53.0314 80.4028 53.6768C80.5912 53.7598 80.7792 53.8427 80.9665 53.9258L80.967 53.926C81.9551 54.3633 82.9274 54.8184 83.8757 55.3298C84.2147 55.5191 84.472 55.6636 84.6697 55.8761C84.7888 56.0077 84.9442 56.0705 85.0303 56.0995C85.1296 56.1329 85.2478 56.1572 85.3607 56.1578C85.4233 56.1588 85.463 56.161 85.4848 56.1626C85.4957 56.1634 85.5032 56.164 85.5086 56.1646L85.5099 56.1647C85.7836 56.2072 86.0313 56.0881 86.1875 55.9636C86.2367 55.9442 86.2713 55.9216 86.2888 55.9095C86.3252 55.8843 86.3508 55.8594 86.3642 55.8455C86.4074 55.801 86.4341 55.7561 86.4399 55.7464L86.4405 55.7454C86.4514 55.7274 86.4604 55.7102 86.4675 55.6963C86.5016 55.6287 86.5532 55.5045 86.5847 55.3605C86.6091 55.2607 86.6159 55.177 86.6177 55.1543C86.618 55.1511 86.6181 55.1492 86.6182 55.1485L86.6205 55.1323L86.6215 55.1197C86.6217 55.1185 86.6224 55.1128 86.6244 55.0991L86.6253 55.0933C86.6279 55.0752 86.6319 55.0481 86.6354 55.0189C86.6433 54.9537 86.6514 54.8593 86.6428 54.753C86.6247 54.5278 86.5261 54.2285 86.2088 54.0362L86.2081 54.0358C85.3134 53.4955 84.4059 53.0245 83.4435 52.5972C81.6875 51.8102 79.8775 51.1822 78.0891 50.5616C77.6879 50.4224 77.2877 50.2835 76.8895 50.1433L76.8895 50.1433L76.8882 50.1429C76.6508 50.0601 76.4377 50.1434 76.3366 50.194C76.2156 50.2546 76.1078 50.3414 76.0238 50.4336C75.9457 50.5195 75.8482 50.6542 75.8099 50.8253C75.7894 50.9164 75.7816 51.0383 75.8255 51.169C75.8719 51.3066 75.9627 51.4146 76.0735 51.4868ZM86.3718 55.1611C86.3787 55.1687 86.3853 55.1763 86.3915 55.184L86.1131 55.1609C86.1142 55.1524 86.1152 55.1438 86.1161 55.1351C86.1183 55.1163 86.1205 55.0972 86.1232 55.0778C86.1244 55.0627 86.1272 55.0434 86.1305 55.0208C86.1308 55.0191 86.1311 55.0173 86.1313 55.0155C86.1875 55.0303 86.2422 55.0552 86.2923 55.0908C86.2985 55.0952 86.3047 55.0998 86.3108 55.1045C86.3322 55.1213 86.3526 55.1401 86.3718 55.1611Z" fill="white" stroke="white"/>
<path d="M130.366 62.811C118.203 56.1841 104.39 52.927 90.5511 53.6176L90.5504 53.6177C88.8809 53.7035 87.2697 53.8965 85.6288 54.17L85.6288 54.17L85.6263 54.1704C85.4021 54.209 85.2308 54.3546 85.1368 54.4484C85.0265 54.5585 84.9255 54.6961 84.8547 54.8386C84.7971 54.9545 84.7022 55.1857 84.7679 55.4349C84.8075 55.5852 84.9034 55.7274 85.0592 55.8174C85.2008 55.8991 85.349 55.9132 85.4632 55.9079L85.4632 55.9079L85.4645 55.9078C92.5413 55.5616 99.4588 55.6686 106.417 56.9753C113.078 58.2276 119.505 60.4897 125.619 63.4583C131.756 66.4447 137.476 70.2615 142.706 74.6623C147.307 78.538 151.161 82.9884 155.097 87.5346C155.589 88.1023 156.082 88.6715 156.577 89.2413L156.578 89.2418C156.85 89.5543 157.14 89.8484 157.423 90.1307C157.471 90.1779 157.518 90.2247 157.564 90.2712C157.8 90.5063 158.029 90.734 158.249 90.9693L158.25 90.9701C158.457 91.1905 158.728 91.2047 158.916 91.1599C159.091 91.118 159.238 91.0212 159.342 90.9277C159.449 90.8322 159.552 90.7051 159.617 90.557C159.677 90.4213 159.741 90.1788 159.615 89.9326C156.57 83.9018 151.706 78.9307 146.812 74.4775L146.811 74.4768C141.814 69.949 136.278 66.0307 130.366 62.811ZM130.366 62.811L130.127 63.25M130.366 62.811L130.127 63.25M130.127 63.25C136.004 66.451 141.508 70.3464 146.475 74.8473L106.509 56.4839C99.4973 55.1671 92.5364 55.0612 85.44 55.4084C84.9827 55.4296 85.44 54.7098 85.711 54.6632C87.3369 54.3922 88.929 54.2017 90.576 54.117C104.32 53.4311 118.043 56.6659 130.127 63.25Z" fill="white" stroke="white"/>
<path d="M81.8618 76.787L81.8618 76.7872C81.1827 80.0843 80.7878 83.5141 80.865 86.8959C81.0288 94.2677 83.8772 100.969 88.3063 106.73L88.3066 106.73C96.242 117.032 109.623 122.37 122.443 119.873C128.433 118.709 133.876 115.646 138.513 111.829L138.513 111.829C143.473 107.745 147.831 102.427 150.101 96.3104L150.101 96.3084C150.225 95.971 150.28 95.5674 150.046 95.2461C149.804 94.9142 149.415 94.8844 149.162 94.9177C148.891 94.9534 148.616 95.0733 148.387 95.2358C148.159 95.3981 147.935 95.6324 147.814 95.9311L147.814 95.9313C142.603 108.76 129.417 118.4 115.429 117.917L115.429 117.917C101.648 117.446 89.3509 107.524 84.8817 94.6305L84.8816 94.6302C83.3808 90.3066 82.9942 85.5869 83.4041 81.0146C83.6275 78.5514 84.1198 76.1532 84.6767 73.7463C84.8295 73.0863 84.9874 72.4242 85.1459 71.7599C85.563 70.0119 85.9839 68.2481 86.3231 66.4639L86.3232 66.4639L86.3241 66.4584C86.3578 66.2699 86.3569 65.9451 86.0739 65.7411C85.8314 65.5663 85.5599 65.6205 85.4379 65.6568C85.2879 65.7014 85.1468 65.7816 85.0338 65.8717C84.9287 65.9555 84.7949 66.09 84.7255 66.2725C83.4187 69.6704 82.5866 73.2732 81.8618 76.787ZM138.195 111.443C143.107 107.399 147.4 102.149 149.632 96.1364C150.055 94.9805 148.582 95.37 148.277 96.1195C142.997 109.118 129.634 118.908 115.412 118.416L138.195 111.443Z" fill="white" stroke="white"/>
<path d="M158.131 90.0088C156.74 91.9202 155.682 94.1703 154.667 96.33C154.472 96.746 154.278 97.1587 154.084 97.5649C154.065 97.5517 154.047 97.5384 154.029 97.525C154.013 97.5135 153.997 97.5019 153.981 97.4903C153.7 97.2845 153.392 97.0593 153.056 96.8674C152.836 96.7393 152.616 96.6118 152.397 96.4844C151.714 96.0884 151.033 95.6938 150.358 95.2865C150.069 95.1075 149.758 95.1984 149.629 95.2443C149.482 95.2966 149.351 95.3725 149.269 95.4234C149.152 95.4716 149.046 95.5426 148.958 95.6213L148.025 96.2147L148.621 96.2743C148.586 96.3944 148.564 96.5358 148.581 96.6862C148.613 96.9528 148.763 97.1756 149.003 97.3214L149.003 97.3215L149.008 97.3242C150.302 98.0908 151.624 98.7658 152.938 99.4373C152.996 99.4666 153.053 99.4958 153.11 99.5251L152.69 100.356L153.61 99.7808C153.671 99.8122 153.732 99.8435 153.793 99.8749C154.198 100.083 154.577 99.8696 154.749 99.741C154.942 99.5959 155.11 99.3913 155.196 99.212C155.292 99.0157 155.387 98.8195 155.483 98.6233L155.663 98.5129L155.563 98.4591C156.177 97.1992 156.793 95.9403 157.417 94.6815L157.418 94.6785C157.56 94.3879 157.711 94.0914 157.866 93.7893C158.403 92.7369 158.975 91.6167 159.291 90.4394C159.324 90.33 159.377 90.0513 159.146 89.8359C158.937 89.6411 158.682 89.6873 158.62 89.7001C158.519 89.721 158.428 89.7622 158.359 89.8032C158.304 89.8362 158.206 89.9021 158.131 90.0088Z" fill="white" stroke="white"/>
<path d="M90.9494 62.7194L90.9529 62.7115C91.0147 62.5692 91.1198 62.4804 91.1815 62.4359C91.2519 62.3851 91.3396 62.3393 91.4363 62.3133C91.4849 62.3002 91.5532 62.2873 91.6326 62.2911C91.7104 62.2948 91.8331 62.3166 91.9485 62.4067C92.2196 62.6185 92.1578 62.9259 92.1266 63.0277C91.701 64.4319 91.2456 65.8147 90.793 67.1884C89.288 71.7575 87.8159 76.2265 87.5878 81.0523C87.2325 88.5816 89.2035 96.3127 93.96 102.212L93.9602 102.212C98.3954 107.717 104.807 111.549 111.841 112.445C119.644 113.441 127.424 111.326 133.626 106.468L90.9494 62.7194ZM90.9494 62.7194L90.9463 62.7274C88.0641 70.0322 85.4226 77.3184 85.8523 85.4203M90.9494 62.7194L85.8523 85.4203M85.8523 85.4203C86.2262 92.6399 88.9849 99.7466 93.8695 105.131C103.764 116.051 120.651 117.328 132.623 109.21C140.104 104.142 144.66 96.5464 148.55 88.7295C148.641 88.5473 148.759 88.2136 148.555 87.9129C148.349 87.6103 148.004 87.6128 147.855 87.6309C147.669 87.6534 147.483 87.7273 147.329 87.8247C147.176 87.9207 147.007 88.069 146.905 88.2755M85.8523 85.4203L133.626 106.468C139.681 101.718 143.484 95.1548 146.905 88.2755M146.905 88.2755C146.905 88.2754 146.905 88.2753 146.905 88.2751L147.353 88.4977L146.905 88.2761C146.905 88.2759 146.905 88.2757 146.905 88.2755Z" fill="white" stroke="white"/>
<path d="M92.0756 63.2419L92.0757 63.242L92.0785 63.2377C92.8193 62.118 93.7561 61.7493 94.8316 61.6939C95.6915 61.6496 96.5965 61.8039 97.5594 61.9681C97.8672 62.0206 98.181 62.0741 98.5012 62.1224L98.5023 62.1226C100.144 62.3666 101.761 62.8228 103.385 63.3133C107.682 64.6211 111.852 66.3513 115.979 68.178C124.743 72.0676 133.522 76.5138 141.271 82.1405L141.271 82.1407C142.883 83.309 144.452 84.5375 145.758 85.9834L145.76 85.9853C146.049 86.3019 146.438 86.7394 146.71 87.2025C146.996 87.6883 147.067 88.0577 146.966 88.3087C146.901 88.4681 146.81 88.7746 147 89.0471C147.205 89.3408 147.536 89.3253 147.669 89.3037C147.835 89.277 147.992 89.2046 148.118 89.1195C148.241 89.0364 148.381 88.9099 148.469 88.7378C149.049 87.6293 148.588 86.5027 147.992 85.6394C147.437 84.8366 146.669 84.1182 146.144 83.6261C146.096 83.5812 146.05 83.5383 146.006 83.4973L146.005 83.4966C143.22 80.8872 139.918 78.8139 136.733 76.8557L136.733 76.8554C128.264 71.6609 119.217 67.2056 109.932 63.6591L109.932 63.6589C106.813 62.4709 103.608 61.3541 100.294 60.6725L100.294 60.6725C100.159 60.6448 100.021 60.6159 99.8782 60.5862C98.504 60.2992 96.7984 59.943 95.2326 60.0204C93.4746 60.1072 91.7811 60.7498 90.9125 62.7036L90.9124 62.7036L90.9106 62.7079C90.864 62.8154 90.791 63.0406 90.9106 63.2722C91.0465 63.5355 91.3059 63.5835 91.4376 63.5835C91.5756 63.5835 91.6995 63.541 91.7929 63.4917C91.8881 63.4414 91.9952 63.3609 92.0756 63.2419Z" fill="white" stroke="white"/>
<path d="M68.5636 54.2544C67.6927 55.4594 66.8662 56.674 66.0445 57.8816C64.5947 60.0123 63.1595 62.1215 61.5206 64.1183L61.52 64.119C59.1253 67.0478 56.2401 69.562 53.0513 71.5974C46.705 75.6392 38.9759 77.2481 31.5967 75.8214L31.5965 75.8213C24.3454 74.4218 18.1244 70.0254 13.9656 63.9622L13.9654 63.9618C9.60416 57.6152 8.31738 49.7804 9.47044 42.2142C10.389 36.2357 12.9257 30.7425 15.6352 25.3022L15.6353 25.3022L15.6386 25.2953C15.7272 25.1104 15.8365 24.7798 15.6353 24.4841C15.4304 24.1829 15.0887 24.1833 14.9368 24.2019C14.751 24.2247 14.5667 24.2994 14.414 24.3965C14.2629 24.4925 14.0969 24.6397 13.9952 24.843L13.9946 24.8441C10.4883 31.9034 7.40799 39.1768 7.21033 47.2792L68.5636 54.2544ZM68.5636 54.2544C68.7019 54.0523 68.967 53.9064 69.2492 53.9709C69.4244 54.0109 69.6215 54.1484 69.6749 54.4003C69.7191 54.6083 69.6377 54.7798 69.5811 54.8713C69.3472 55.2509 69.1133 55.6323 68.8788 56.0148C66.6576 59.6377 64.3784 63.3551 61.4624 66.5309L61.462 66.5313C58.7851 69.4395 55.687 71.9986 52.221 73.9251L52.22 73.9257C46.0077 77.3603 38.8837 78.8878 31.8249 77.7544C24.6719 76.6075 18.1766 72.673 13.7111 67.0019C9.27994 61.3822 7.03397 54.4168 7.21033 47.2793L68.5636 54.2544Z" fill="white" stroke="white"/>
<path d="M69.4253 55.0758C69.4823 55.0355 69.5957 54.9482 69.6669 54.8129L26.4318 25.2793C23.8591 24.3977 21.1296 23.5455 18.3464 23.294L18.3452 23.2939C17.6814 23.2356 16.8343 23.2062 16.0522 23.3869C15.2626 23.5693 14.4764 23.9829 14.0571 24.8538L14.057 24.8538L14.0538 24.8607C13.9862 25.0067 13.8675 25.3291 14.0719 25.6169C14.2845 25.9163 14.6293 25.884 14.7454 25.8642C14.9057 25.8368 15.0608 25.7677 15.1865 25.6874C15.3073 25.6102 15.4496 25.4915 15.5442 25.3282C15.6019 25.234 15.7788 25.1218 16.1682 25.0615C16.507 25.009 16.8736 25.0147 17.1692 25.0193C17.1903 25.0196 17.211 25.0199 17.2314 25.0202L17.2326 25.0203C18.5873 25.0364 19.9601 25.3403 21.3349 25.6829L21.3355 25.6831C25.3595 26.6807 29.2623 28.2339 33.0951 29.8584L33.0953 29.8585C42.1683 33.698 51.0942 38.2693 59.2764 43.7438C61.0882 44.9615 62.8597 46.2437 64.4926 47.672L64.4934 47.6727C64.654 47.8126 64.817 47.9528 64.9809 48.0938C65.9504 48.928 66.9509 49.7887 67.6665 50.7622C68.4839 51.8741 68.8775 53.0637 68.4045 54.4604L68.4017 54.4687L68.3992 54.4771C68.3689 54.5778 68.2921 54.9363 68.6141 55.1521C68.7427 55.2383 68.874 55.2497 68.9518 55.2479C69.0332 55.2459 69.1037 55.2287 69.1546 55.2124C69.2567 55.1798 69.3508 55.1283 69.4253 55.0758Z" fill="white" stroke="white"/>
<path d="M34.5749 21.5179L34.5754 21.5177C35.8686 21.1219 37.1607 20.7249 38.4523 20.328C49.2717 17.0037 60.0526 13.6913 71.0927 11.1918L71.0933 11.1916C72.1922 10.9415 73.2954 10.6962 74.3999 10.4506C76.5194 9.97925 78.644 9.50681 80.7534 8.99687C81.8594 8.73002 82.9646 8.35286 84.0393 7.98613C84.6318 7.78392 85.2151 7.58488 85.7841 7.40924L85.7848 7.40904C87.6188 6.84017 89.4738 6.3169 91.3087 6.38531L91.3089 6.38531C92.1506 6.41642 92.6909 6.72187 93.0628 7.1792C93.4516 7.65725 93.6921 8.3464 93.8217 9.19602C93.8479 9.38309 93.9629 9.66433 94.2878 9.74254C94.5299 9.80082 94.7329 9.69545 94.8162 9.64614C94.9239 9.58248 95.0183 9.49915 95.0907 9.41959C95.155 9.34897 95.2444 9.23507 95.2906 9.09658L95.2933 9.08845L95.2957 9.08025C95.5408 8.25143 95.6566 7.37832 95.4601 6.5778C95.2572 5.75129 94.7326 5.05138 93.8049 4.58386V4.58385L93.8035 4.58315C92.9135 4.13817 91.894 4.06715 90.9328 4.13794C89.9727 4.20865 89.0156 4.42616 88.2307 4.60456L88.224 4.60607C88.2239 4.60611 88.2237 4.60615 88.2235 4.60619C86.6155 4.9681 85.0517 5.49127 83.5198 6.00378C83.123 6.1365 82.7284 6.26851 82.3357 6.39682C80.3091 7.05583 78.2096 7.49976 76.0924 7.94741C75.3433 8.10579 74.5921 8.26464 73.841 8.43364C66.6077 10.0556 59.3853 11.7485 52.2862 13.9224C50.5469 14.4533 48.8223 15.0243 47.1041 15.5932L47.1013 15.5941C45.3805 16.1638 43.6661 16.7314 41.9389 17.2586C39.3274 18.0527 36.762 18.9168 34.267 20.1192L34.267 20.1192L34.2605 20.1224C34.1098 20.1977 34.0066 20.3243 33.9511 20.4025C33.8865 20.4935 33.8251 20.6072 33.7881 20.7277C33.7696 20.7879 33.7515 20.868 33.7515 20.9583C33.7514 21.046 33.7687 21.184 33.8631 21.3148C34.0904 21.6297 34.4512 21.5556 34.5749 21.5179Z" fill="white" stroke="white"/>
<path d="M93.9719 9.37229C93.8338 9.13634 93.9057 8.90411 93.9536 8.79932C94.0079 8.68043 94.0898 8.58426 94.168 8.51524C94.2429 8.44913 94.3576 8.36976 94.503 8.33469C94.6613 8.29652 94.9454 8.3036 95.1271 8.56312L95.1334 8.57222L95.1333 8.57229C95.3292 8.86583 95.5117 9.15352 95.6893 9.43351C96.0941 10.0718 96.4735 10.6701 96.9292 11.2063C97.5608 11.9495 98.2936 12.5096 99.3352 12.7441C100.006 12.8909 100.646 12.817 101.016 12.5837C101.189 12.4752 101.296 12.3381 101.345 12.1668C101.396 11.989 101.399 11.7206 101.259 11.3312L101.258 11.3287C100.865 10.2193 99.9844 9.33202 99.0538 8.39406C99.0186 8.35854 98.9832 8.32294 98.9479 8.28726L98.9461 8.28548C96.7554 6.05283 94.2635 4.02665 91.3235 3.09824L91.3231 3.0981C87.8686 2.00356 84.6148 2.59264 81.0022 3.36858C72.4691 5.20467 63.9644 7.25254 55.4659 9.30623L55.4658 9.30626C47.0654 11.3344 38.6825 13.3783 30.3388 15.5954L30.3387 15.5954C29.8333 15.7296 29.3275 15.8643 28.8215 15.999C21.2133 18.0244 13.5402 20.0671 5.65398 20.9651L5.64976 20.9656L5.64976 20.9656C5.56763 20.9742 5.43616 20.9742 5.3013 20.9053C5.146 20.826 5.05053 20.6884 5.01426 20.5445C4.9829 20.42 4.99969 20.3113 5.01544 20.2462C5.03244 20.176 5.05861 20.1146 5.08335 20.0662C5.13245 19.9701 5.19929 19.8793 5.27078 19.8057C5.32604 19.7488 5.4491 19.633 5.62468 19.5894C10.5972 18.3349 15.5709 17.0886 20.5441 15.8424C26.6359 14.3159 32.727 12.7896 38.8143 11.2486C47.2323 9.11761 55.7001 7.11822 64.1564 5.15341L93.9719 9.37229ZM93.9719 9.37229C94.0786 9.55873 94.1843 9.74717 94.2903 9.93619C95.4745 12.048 96.6989 14.2314 99.7816 14.4925L99.7825 14.4926C100.944 14.5888 101.871 14.1343 102.431 13.3556C102.979 12.5925 103.139 11.569 102.902 10.564L102.415 10.679M93.9719 9.37229L102.415 10.679M102.415 10.679L102.902 10.564C102.702 9.71834 102.213 8.9834 101.68 8.34729C101.325 7.92357 100.92 7.51026 100.55 7.13297C100.375 6.95404 100.207 6.78321 100.057 6.62322L100.057 6.62311M102.415 10.679L100.057 6.62311M100.057 6.62311C98.896 5.38895 97.6246 4.2728 96.2252 3.30663L96.225 3.30651M100.057 6.62311L96.225 3.30651M96.225 3.30651C93.8292 1.65395 91.0871 0.713916 88.1904 0.530417L88.1899 0.530388M96.225 3.30651L88.1899 0.530388M88.1899 0.530388C85.1626 0.341394 82.0762 1.07597 79.1625 1.76946C78.3981 1.95139 77.6456 2.13049 76.9091 2.28935L76.9086 2.28946M88.1899 0.530388L76.9086 2.28946M76.9086 2.28946C72.6468 3.213 68.3975 4.16622 64.1566 5.15336L76.9086 2.28946ZM5.86341 20.5605L5.86793 20.5594L5.86341 20.5605L5.86341 20.5605Z" fill="white" stroke="white"/>
<path d="M149.401 79.4936C149.397 79.5874 149.408 79.7202 149.483 79.8507C149.567 79.997 149.701 80.0888 149.844 80.1255C150.076 80.1849 150.279 80.0917 150.362 80.0491C150.473 79.992 150.577 79.9132 150.661 79.8293C150.727 79.7631 150.852 79.6227 150.89 79.4293C151.499 76.3996 151.816 73.3384 152.132 70.2949C152.206 69.5795 152.28 68.8649 152.358 68.152L152.358 68.152C152.817 63.9408 153.076 59.6904 153.262 55.4683C153.598 47.888 153.36 40.3116 153.089 32.7592C153.065 32.0785 153.035 31.4003 153.005 30.7244C152.91 28.581 152.815 26.4596 152.936 24.3454C152.956 24.0088 152.976 23.6709 152.997 23.332C153.102 21.6271 153.208 19.8967 153.165 18.165L153.165 18.165L153.165 18.1607C153.11 16.5166 152.928 14.5224 151.808 13.0293L151.807 13.0283C151.157 12.1659 150.281 11.8639 149.401 11.8928C148.547 11.9207 147.692 12.2566 146.989 12.6514C146.869 12.7187 146.774 12.8186 146.713 12.8949C146.647 12.9775 146.578 13.0856 146.534 13.2061C146.503 13.2889 146.417 13.5573 146.591 13.8075C146.79 14.0935 147.115 14.0731 147.249 14.0516L147.17 13.5579M149.401 79.4936C149.541 75.737 149.857 71.986 150.179 68.2469C150.196 68.0586 150.212 67.8704 150.228 67.6822C150.535 64.1286 150.842 60.5861 151.006 57.0408C151.331 49.9219 151.209 42.8029 150.963 35.6688C150.93 34.7029 150.879 33.7249 150.828 32.7407C150.714 30.5451 150.599 28.3182 150.667 26.1232C150.69 25.2489 150.746 24.378 150.802 23.5181L150.805 23.4738C150.861 22.5959 150.917 21.7294 150.938 20.8625L150.938 20.8594L150.938 20.8594C150.939 20.819 150.94 20.7786 150.942 20.7381C150.997 18.9161 151.055 16.9977 150.393 15.4348C150.1 14.7508 149.679 14.3699 149.18 14.1704C148.662 13.9634 148.012 13.9323 147.247 14.0519L147.17 13.5579M149.401 79.4936C149.401 79.4933 149.401 79.493 149.401 79.4928L149.901 79.513L149.401 79.4944C149.401 79.4941 149.401 79.4938 149.401 79.4936ZM147.17 13.5579C146.888 13.6033 146.98 13.3557 147.112 13.1973C147.112 13.1967 147.113 13.1962 147.113 13.1956C147.152 13.1492 147.194 13.1106 147.23 13.0896L147.475 13.5256L147.475 13.5256L147.478 13.5238M147.17 13.5579C147.271 13.5421 147.371 13.5286 147.471 13.5176C147.472 13.5174 147.473 13.5173 147.474 13.5171C147.477 13.5169 147.479 13.5166 147.481 13.5164C147.481 13.5186 147.48 13.5208 147.48 13.5228C147.479 13.5232 147.479 13.5235 147.478 13.5238M147.478 13.5238C147.479 13.5235 147.479 13.5232 147.48 13.5229M147.478 13.5238L147.48 13.5229M147.48 13.5229C147.477 13.5391 147.473 13.5488 147.472 13.5509L147.472 13.551C147.471 13.5531 147.472 13.553 147.473 13.551C147.475 13.547 147.482 13.5351 147.494 13.5195C147.495 13.5177 147.497 13.5161 147.498 13.5146C148.98 13.3564 150.218 13.7552 150.853 15.2389C151.559 16.9048 151.497 18.9206 151.443 20.7045L147.48 13.5229ZM147.09 13.0643C147.088 13.0646 147.089 13.0645 147.091 13.0642L147.09 13.0643Z" fill="white" stroke="white"/>
<path d="M159.539 90.3433C159.538 90.5375 159.447 90.6894 159.389 90.7692C159.321 90.8624 159.232 90.9493 159.131 91.0143C159.049 91.0669 158.865 91.1667 158.637 91.1244C158.505 91.1 158.382 91.0307 158.291 90.9188C158.206 90.8149 158.171 90.7009 158.156 90.6113C157.346 85.6876 157.053 80.778 157.032 75.8104L157.032 75.81C156.977 59.9552 156.803 44.0927 156.177 28.2533L156.177 28.2528C156.15 27.5644 156.136 26.8726 156.121 26.1808C156.057 23.1435 155.993 20.1076 154.932 17.3767L159.539 90.3433ZM159.539 90.3433C159.56 87.3022 159.506 84.2644 159.447 81.233C159.442 81.0037 159.438 80.7744 159.433 80.5452C159.378 77.7421 159.323 74.9447 159.323 72.1458C159.323 66.3506 159.184 60.5533 159.044 54.7648C158.997 52.8067 158.95 50.8496 158.908 48.894L158.908 48.8936C158.713 40.0461 158.442 31.1953 157.968 22.3514C157.645 16.245 154.741 11.5466 149.63 8.26391L149.595 8.24149C148.643 7.62666 146.886 6.49282 145.166 5.95141C144.296 5.67749 143.374 5.53466 142.545 5.73536C141.681 5.94453 140.974 6.51357 140.553 7.52747L140.553 7.52747L140.552 7.53008C140.227 8.32503 140.34 9.1368 140.613 9.84061C140.884 10.5423 141.33 11.1804 141.744 11.6763C142.442 12.5163 143.354 12.9685 144.276 13.2701C144.736 13.4207 145.208 13.5367 145.663 13.6427C145.765 13.6662 145.865 13.6892 145.963 13.7119C146.316 13.7929 146.654 13.8707 146.984 13.96C147.205 14.0205 147.393 13.941 147.486 13.8892C147.593 13.8297 147.686 13.7469 147.755 13.6587C147.815 13.5818 147.908 13.4377 147.915 13.2492C147.92 13.1434 147.897 13.013 147.813 12.8921C147.73 12.7729 147.618 12.7057 147.517 12.6709C147.353 12.6138 147.183 12.5561 147.01 12.497C145.904 12.1205 144.639 11.6901 143.638 11.0362C143.068 10.6633 142.617 10.2379 142.339 9.74178C142.067 9.25612 141.943 8.67306 142.07 7.94052C142.12 7.6557 142.228 7.52613 142.339 7.45535C142.466 7.37381 142.674 7.32037 142.999 7.34072C143.659 7.38203 144.563 7.71066 145.548 8.19811C147.497 9.16184 149.522 10.6207 150.042 11.0202L150.042 11.0208C152.223 12.6914 153.94 14.8301 154.932 17.3763L159.539 90.3433ZM147.25 12.9959L147.246 12.995L147.25 12.9959ZM158.539 90.3399C158.539 90.3387 158.539 90.3375 158.539 90.3364V90.3399ZM159.143 90.4495L159.143 90.4492L159.143 90.4495Z" fill="white" stroke="white"/>
<path d="M114.799 95.686L114.798 95.6864C114.733 95.7174 114.504 95.8175 114.262 95.6857C113.982 95.5332 113.976 95.2463 113.981 95.1611C113.989 95.0498 114.025 94.9542 114.06 94.8867C114.095 94.8204 114.153 94.732 114.245 94.6595C115.775 93.4436 117.605 92.5186 119.313 91.6558C119.484 91.5693 119.654 91.4835 119.822 91.398C121.714 90.4202 123.639 89.494 125.583 88.6025M114.799 95.686L114.584 95.2346C114.611 95.2216 114.638 95.2086 114.666 95.1955C114.666 95.1952 114.667 95.1949 114.667 95.1946C114.763 95.1486 114.858 95.1019 114.953 95.0546C114.982 95.1378 114.98 95.2089 114.979 95.2276C114.975 95.2913 114.956 95.3307 114.948 95.3466C114.94 95.3615 114.918 95.4019 114.866 95.4438C114.864 95.4449 114.863 95.446 114.861 95.4472L114.861 95.4472L114.866 95.4438C116.31 94.2947 118.049 93.4154 119.774 92.5432C119.886 92.4867 119.998 92.4303 120.109 92.3739C120.109 92.3738 120.109 92.3738 120.109 92.3738C120.165 92.3455 120.221 92.3171 120.277 92.2888L120.277 92.2888L120.28 92.2872C122.156 91.3177 124.066 90.3981 126 89.5115L126.001 89.5112C126.093 89.4689 126.185 89.4266 126.277 89.3843C126.277 89.3843 126.277 89.3843 126.277 89.3843C126.627 89.2234 126.978 89.0626 127.329 88.9018C128.887 88.188 130.45 87.4715 132.002 86.7275L132.189 87.1202M114.799 95.686C115.751 95.2325 116.671 94.7137 117.573 94.1978C117.662 94.1471 117.75 94.0964 117.839 94.0458C118.654 93.5791 119.456 93.1197 120.276 92.7039L120.277 92.7035C122.192 91.728 124.146 90.8349 126.117 89.934C126.23 89.8822 126.343 89.8303 126.457 89.7784L126.458 89.7781C126.757 89.6408 127.057 89.5034 127.357 89.3659C128.968 88.6275 130.586 87.8858 132.189 87.1202M114.799 95.686L132.189 87.1202M125.583 88.6025C125.583 88.6025 125.583 88.6025 125.583 88.6025L125.764 88.9958C125.856 88.9536 125.948 88.9115 126.04 88.8693C126.341 88.7314 126.641 88.5938 126.941 88.4562C128.553 87.7176 130.163 86.9797 131.758 86.2177L131.758 86.2176C131.82 86.188 131.883 86.1586 131.946 86.1293L131.757 85.7358M125.583 88.6025C126.028 88.3979 126.473 88.1941 126.917 87.9904C128.537 87.2483 130.153 86.5078 131.757 85.7358M125.583 88.6025C125.583 88.6026 125.583 88.6027 125.583 88.6027L125.764 88.9959L136.896 83.3168M131.757 85.7358C131.757 85.7358 131.757 85.7357 131.757 85.7357L131.946 86.1293C132.288 85.9709 132.642 85.8188 132.996 85.6684C133.165 85.58 133.334 85.4904 133.504 85.4005C134.338 84.9596 135.187 84.5113 136.045 84.1571C136.293 83.9881 136.525 83.8078 136.737 83.6128M131.757 85.7358C132.255 85.4957 132.748 85.2347 133.256 84.966C133.578 84.7958 133.906 84.6226 134.244 84.4496C135.097 84.0134 135.987 83.5966 136.896 83.3168M136.737 83.6128C136.679 83.6661 136.657 83.7161 136.651 83.7301C136.643 83.7492 136.631 83.7837 136.629 83.8347C136.629 83.847 136.628 83.8823 136.638 83.9291C136.737 83.894 136.836 83.8604 136.936 83.8286L136.737 83.6128ZM136.737 83.6128C136.737 83.6128 136.737 83.6127 136.737 83.6127L136.936 83.8285C136.973 83.8168 137.009 83.8052 137.046 83.7939M137.046 83.7939C137.155 83.7578 137.139 83.8823 137.098 83.9511C137.098 83.9526 137.097 83.954 137.096 83.9555C137.089 83.9653 137.083 83.9738 137.076 83.9802C136.993 84.0568 136.907 84.1311 136.819 84.2032C136.976 84.3169 137.138 84.2874 137.193 84.2717C137.197 84.2705 137.201 84.2693 137.204 84.2683L137.193 84.272L137.193 84.2719C136.89 84.365 136.586 84.4759 136.282 84.6002C135.402 85.1901 134.365 85.6305 133.361 86.0567C133.31 86.0782 133.26 86.0996 133.21 86.121C132.866 86.3005 132.525 86.4757 132.191 86.6367L132.19 86.6367C132.127 86.667 132.065 86.6973 132.002 86.7275L132.189 87.1201C132.189 87.1201 132.189 87.1201 132.189 87.1202M137.046 83.7939L136.899 83.316C136.898 83.3163 136.897 83.3166 136.896 83.3168M137.046 83.7939L136.888 83.3196C136.891 83.3187 136.893 83.3178 136.896 83.3168M132.189 87.1202C132.595 86.9265 133.027 86.7416 133.478 86.55C133.505 86.5388 133.531 86.5275 133.558 86.5162C133.981 86.3365 134.419 86.1506 134.849 85.9513C135.761 85.529 136.675 85.0297 137.415 84.3478L137.415 84.3476C137.5 84.2689 137.548 84.1777 137.573 84.1173C137.601 84.052 137.625 83.9662 137.629 83.8696C137.631 83.7939 137.624 83.5835 137.443 83.4233C137.241 83.2448 137.007 83.282 136.896 83.3168M132.189 87.1202L136.896 83.3168" fill="white" stroke="white"/>
<path d="M134.66 88.1104C133.326 88.6873 132 89.2976 130.696 89.9413L130.694 89.9419C129.987 90.2886 129.289 90.6735 128.573 91.0678C128.196 91.2752 127.815 91.4852 127.425 91.6937C126.311 92.2898 125.153 92.858 123.948 93.2385C123.86 93.2662 123.568 93.3323 123.355 93.0804C123.262 92.9711 123.237 92.8528 123.23 92.7794C123.223 92.7048 123.232 92.6415 123.241 92.5994C123.259 92.5152 123.292 92.4421 123.322 92.3876C123.348 92.3433 123.403 92.2546 123.497 92.1839L123.506 92.1769L123.507 92.177C125.403 90.8226 127.655 89.7748 129.773 88.789C130.237 88.5735 130.693 88.3609 131.139 88.1487C131.139 88.1485 131.14 88.1483 131.14 88.1482L131.321 88.5272C132.294 88.0638 133.277 87.6188 134.264 87.1922L134.266 87.1916C134.617 87.0408 134.978 86.9039 135.338 86.7735L135.164 86.3454C135.164 86.3452 135.164 86.345 135.165 86.3448M134.66 88.1104L138.144 85.6623C138.147 85.6592 138.153 85.6542 138.161 85.6479C138.169 85.6417 138.188 85.6272 138.216 85.6117C137.986 85.7375 137.747 85.8522 137.502 85.9597C136.985 86.1158 136.473 86.3331 135.978 86.5449C135.944 86.5569 135.91 86.569 135.876 86.5811C135.698 86.6442 135.518 86.708 135.338 86.7734L135.166 86.3443C135.166 86.3445 135.165 86.3447 135.165 86.3448M134.66 88.1104C135.156 87.8979 135.665 87.7171 136.192 87.53C136.344 87.4761 136.498 87.4216 136.653 87.3657C137.334 87.12 138.034 86.8503 138.693 86.4907M134.66 88.1104L136.161 87.0105M135.165 86.3448C135.339 86.2739 135.528 86.1933 135.724 86.1096C136.05 85.9701 136.397 85.8219 136.731 85.6956C137.282 85.4873 137.875 85.3066 138.483 85.252L138.487 85.2516L138.487 85.2517C138.557 85.2459 138.671 85.2464 138.791 85.3005C138.932 85.3635 139.041 85.4821 139.089 85.6323C139.13 85.761 139.115 85.8741 139.101 85.9371C139.086 86.0049 139.062 86.0617 139.042 86.1023C139.002 86.1834 138.951 86.2546 138.907 86.3072C138.884 86.3347 138.858 86.3634 138.829 86.3903C138.808 86.4102 138.76 86.4546 138.693 86.4907M135.165 86.3448L138.564 86.2488M136.161 87.0105C136.672 86.8289 137.182 86.6448 137.675 86.4301C137.977 86.3401 138.273 86.2758 138.561 86.249L138.691 86.4918C138.692 86.4914 138.692 86.491 138.693 86.4907M136.161 87.0105C136.159 87.0114 136.157 87.0123 136.154 87.0133C135.954 87.0991 135.752 87.1858 135.54 87.2717L135.538 87.2728L135.538 87.2728C135.187 87.4132 134.837 87.559 134.488 87.7089L136.161 87.0105ZM138.693 86.4907C138.694 86.4903 138.694 86.4899 138.695 86.4895L138.564 86.2488M138.564 86.2488C138.567 86.2485 138.569 86.2482 138.572 86.248L138.546 85.9571C138.615 85.8639 138.668 85.7386 138.528 85.75C138.455 85.7565 138.382 85.7652 138.309 85.7756C138.308 85.7758 138.307 85.7759 138.306 85.7761C138.242 85.7853 138.179 85.7959 138.116 85.8078L138.564 86.2488ZM138.456 86.0506C138.476 86.0398 138.512 86.0033 138.545 85.9592L138.568 86.2483C138.567 86.2484 138.565 86.2486 138.564 86.2487L138.456 86.0506ZM138.456 86.0506C138.396 86.0831 138.336 86.1148 138.276 86.1459C138.308 86.1731 138.344 86.1958 138.382 86.2129C138.466 86.2504 138.535 86.2503 138.561 86.2488L138.456 86.0506ZM130.254 89.0443C130.608 88.8695 130.963 88.6972 131.32 88.5274L130.254 89.0443ZM130.254 89.0443C129.799 89.2671 129.341 89.5092 128.883 89.7576L130.254 89.0443Z" fill="white" stroke="white"/>
<path d="M132.418 89.984C132.397 89.9939 132.374 90.0141 132.353 90.0389C132.352 90.0399 132.351 90.041 132.35 90.0421C132.284 90.1238 132.243 90.251 132.384 90.2254C132.43 90.2178 132.475 90.2097 132.521 90.2009C132.524 90.2002 132.527 90.1996 132.53 90.199C132.617 90.1821 132.703 90.163 132.788 90.1419C132.789 90.1565 132.789 90.1697 132.789 90.1812C132.788 90.2386 132.776 90.2796 132.77 90.2977C132.757 90.3335 132.744 90.3509 132.738 90.3575C132.734 90.3627 132.726 90.3717 132.714 90.3829C132.705 90.391 132.683 90.4087 132.65 90.4267C132.644 90.4296 132.639 90.4326 132.633 90.4355L132.641 90.4313L132.65 90.4268C133.348 90.0605 134.052 89.7285 134.765 89.392C134.988 89.287 135.211 89.1815 135.436 89.0744C135.436 89.0744 135.436 89.0744 135.436 89.0743C135.626 88.984 135.816 88.8924 136.007 88.7991C136.076 88.7655 136.147 88.7294 136.218 88.692C136.295 88.6608 136.371 88.6296 136.448 88.5984C137.009 88.371 137.579 88.1395 138.084 87.8389C138.237 87.8079 138.376 87.7984 138.504 87.8132L138.536 87.5358C138.537 87.5347 138.539 87.5336 138.54 87.5325C138.595 87.4901 138.701 87.3335 138.561 87.3165C138.497 87.3091 138.432 87.3059 138.367 87.3065L138.236 87.1357C138.129 87.2178 138.015 87.2952 137.896 87.3688C137.373 87.4944 136.835 87.7884 136.347 88.0546C136.231 88.1183 136.117 88.1804 136.007 88.2382C135.931 88.2694 135.855 88.3008 135.78 88.3326C135.78 88.3326 135.78 88.3326 135.78 88.3326C135.582 88.4156 135.388 88.5007 135.204 88.5886C135.204 88.5887 135.204 88.5888 135.204 88.5889L135.22 88.6233L132.19 89.5387M132.418 89.984C132.497 89.9423 132.577 89.9009 132.657 89.8598C132.516 89.7146 132.343 89.727 132.303 89.7322C132.301 89.7324 132.299 89.7326 132.298 89.7328L132.305 89.7487L132.418 89.984ZM132.418 89.984L132.311 89.7804L132.299 89.7574L132.185 89.5413C132.187 89.5405 132.188 89.5396 132.19 89.5387M132.19 89.5387C132.902 89.1653 133.642 88.816 134.369 88.4728C134.775 88.2812 135.178 88.0914 135.568 87.9004L135.569 87.9001C135.733 87.8203 135.91 87.7239 136.107 87.616C136.135 87.6009 136.163 87.5855 136.192 87.57C136.418 87.4464 136.667 87.3127 136.923 87.1939C137.42 86.9629 138.02 86.7502 138.619 86.8199L138.621 86.8202L138.621 86.8202C138.75 86.8357 138.96 86.9041 139.072 87.1279C139.169 87.322 139.122 87.5027 139.097 87.5763C139.067 87.6633 139.023 87.7334 138.988 87.7808C138.954 87.8272 138.906 87.8822 138.845 87.9288L138.844 87.9293C138.348 88.3096 137.773 88.5855 137.22 88.8208C137.011 88.9099 136.81 88.9915 136.615 89.0705C136.273 89.2092 135.95 89.3402 135.636 89.4908L135.635 89.4913C135.49 89.5601 135.342 89.6324 135.192 89.7061C134.369 90.109 133.459 90.5552 132.467 90.7184C132.366 90.7356 132.075 90.7595 131.889 90.4961C131.728 90.2676 131.805 90.0278 131.825 89.9689C131.858 89.8738 131.91 89.7923 131.959 89.7312C132.001 89.6792 132.077 89.5956 132.19 89.5387ZM138.501 87.8129C138.461 87.8081 138.369 87.7868 138.284 87.7139C138.37 87.6574 138.454 87.5984 138.535 87.5367L138.501 87.8129ZM138.235 87.1362L138.366 87.3065C138.29 87.3072 138.212 87.3132 138.134 87.3236C138.139 87.2884 138.147 87.2636 138.15 87.2536C138.164 87.2132 138.18 87.1913 138.184 87.1857L138.185 87.1856C138.188 87.1808 138.202 87.1614 138.235 87.1362Z" fill="white" stroke="white"/>
<path d="M130.987 85.2468L130.987 85.2468L130.989 85.2504C131.125 85.4653 131.26 85.6789 131.395 85.8917C132.007 86.8562 132.609 87.805 133.164 88.7916C133.294 89.0278 133.419 89.2735 133.55 89.5295C133.563 89.5564 133.577 89.5835 133.591 89.6106C133.736 89.8938 133.887 90.1877 134.05 90.4759C134.374 91.0489 134.759 91.6252 135.274 92.0973C135.439 92.2542 135.647 92.2751 135.802 92.2404C135.94 92.2093 136.044 92.136 136.109 92.077C136.178 92.0149 136.242 91.9345 136.286 91.8403C136.325 91.7584 136.384 91.5902 136.322 91.3949L136.322 91.3949L136.32 91.3893C135.963 90.3109 135.32 89.2748 134.734 88.3305C134.568 88.0628 134.406 87.8025 134.257 87.5507C133.631 86.4724 132.951 85.3617 131.988 84.4336C131.801 84.2462 131.566 84.2551 131.435 84.289C131.308 84.3224 131.208 84.3908 131.143 84.4494C131.075 84.5094 131.003 84.5951 130.955 84.7047C130.911 84.8048 130.85 85.0251 130.987 85.2468Z" fill="white" stroke="white"/>
<path d="M126.515 87.6727L126.515 87.6727L126.517 87.678C126.837 88.8035 127.491 89.7667 128.09 90.6498C128.206 90.8216 128.321 90.9905 128.431 91.1569L128.436 91.1659L128.443 91.1746C128.504 91.26 128.594 91.3336 128.709 91.3732C128.82 91.4113 128.922 91.4074 128.999 91.3923C129.139 91.3646 129.239 91.2911 129.29 91.2466C129.349 91.196 129.403 91.1341 129.444 91.0662C129.469 91.0256 129.556 90.8779 129.53 90.684C129.337 89.2219 128.532 88.0025 127.584 87.0059L127.584 87.0057C127.422 86.8351 127.204 86.8024 127.032 86.8433C126.887 86.8777 126.783 86.9584 126.721 87.0182C126.654 87.0826 126.596 87.1629 126.555 87.253C126.52 87.3299 126.465 87.4877 126.515 87.6727Z" fill="white" stroke="white"/>
<path d="M102.771 74.2002C103.975 73.6022 105.178 72.9586 106.28 72.1876C106.384 72.1182 106.449 72.0278 106.482 71.9722C106.523 71.9055 106.562 71.819 106.581 71.721C106.594 71.6517 106.626 71.4249 106.455 71.2299C106.253 70.999 105.98 71.037 105.873 71.0651L105.873 71.065L105.869 71.0662C104.588 71.4156 103.349 72.004 102.164 72.6416C101.603 72.9432 101.05 73.259 100.508 73.5678C100.477 73.5857 100.445 73.6037 100.414 73.6215C99.8402 73.9485 99.2808 74.2661 98.7301 74.5572C98.048 74.9167 97.3492 75.2538 96.6355 75.5981C96.1653 75.8249 95.6887 76.0548 95.2062 76.2962C94.0105 76.8946 92.8175 77.5461 91.7513 78.3365L91.7439 78.342L91.7367 78.3477C91.6537 78.4142 91.6039 78.4933 91.5789 78.5385C91.5502 78.5904 91.5172 78.6652 91.5021 78.7549C91.4915 78.8175 91.4628 79.0465 91.6468 79.2341C91.8475 79.4387 92.0993 79.3966 92.183 79.3756L92.0618 78.8906L92.1775 79.377C93.4347 79.0778 94.6678 78.4934 95.8387 77.8569C96.3726 77.5667 96.9004 77.2617 97.4141 76.9649C97.465 76.9355 97.5158 76.9062 97.5664 76.877C98.1305 76.5513 98.6766 76.2381 99.2086 75.9586L99.2091 75.9584C99.9349 75.5762 100.678 75.2173 101.434 74.852C101.876 74.6389 102.322 74.4236 102.771 74.2002Z" fill="white" stroke="white"/>
<path d="M94.2404 80.1879L94.2404 80.1878C94.163 80.2105 93.8405 80.2862 93.6235 80.0053C93.5302 79.8843 93.5116 79.7559 93.5103 79.6772C93.5091 79.5972 93.5245 79.5298 93.5383 79.4842C93.5659 79.393 93.6104 79.3128 93.6542 79.2514C93.688 79.2041 93.7642 79.1064 93.8868 79.0418C94.852 78.52 95.812 78.0216 96.767 77.5258C98.159 76.8031 99.5404 76.0859 100.912 75.3097L100.912 75.3095C101.29 75.0958 101.677 74.8688 102.071 74.6373C103.656 73.7066 105.367 72.7022 107.162 72.1864C107.273 72.1541 107.546 72.1121 107.751 72.3428C107.922 72.535 107.892 72.7604 107.88 72.8273C107.863 72.9245 107.826 73.0119 107.785 73.0811C107.75 73.1387 107.679 73.2413 107.556 73.3131C106.48 73.9625 105.369 74.5502 104.265 75.1237C104.079 75.22 103.894 75.3158 103.709 75.4115C102.788 75.8883 101.875 76.3606 100.98 76.8624L94.2404 80.1879ZM94.2404 80.1879L94.25 80.1849C96.2744 79.5481 98.1912 78.4528 100.002 77.4178C100.332 77.2297 100.657 77.0435 100.98 76.8625L94.2404 80.1879Z" fill="white" stroke="white"/>
<path d="M94.4094 82.614L94.4094 82.614L94.4164 82.6121C96.805 81.9627 99.2512 80.1623 101.014 78.6209C101.177 78.4808 101.346 78.1715 101.154 77.8579C101.059 77.7021 100.9 77.6106 100.734 77.5926C100.575 77.5755 100.439 77.6256 100.343 77.6841L100.342 77.685C99.6028 78.137 98.8434 78.5648 98.0737 78.9985C97.7672 79.1711 97.4591 79.3448 97.15 79.5212C96.0734 80.1356 94.9964 80.7779 93.994 81.5073C93.901 81.5735 93.8413 81.657 93.8093 81.7082C93.7721 81.7677 93.732 81.8491 93.7104 81.944C93.6964 82.0051 93.6491 82.247 93.8328 82.453C94.0407 82.6863 94.3198 82.637 94.4094 82.614Z" fill="white" stroke="white"/>
<path d="M94.4271 76.3236L94.427 76.3237L94.4331 76.3333C95.0569 77.3211 95.5392 78.4014 96.0392 79.5215C96.16 79.7919 96.2818 80.0647 96.4068 80.3391C97.0405 81.7291 97.7511 83.1398 98.8194 84.3308L98.8193 84.3309L98.8286 84.3408C98.9859 84.5068 99.2004 84.5449 99.3775 84.501C99.5229 84.465 99.6243 84.3816 99.6813 84.3239C99.7435 84.2609 99.797 84.1839 99.8339 84.0992C99.8646 84.0288 99.9167 83.8781 99.8699 83.7003L99.8665 83.6874L99.8624 83.6747C99.3506 82.081 98.5096 80.6156 97.7088 79.2204C97.6647 79.1436 97.6207 79.067 97.5769 78.9906C97.3852 78.6508 97.2247 78.319 97.0568 77.9719C96.9421 77.7346 96.8238 77.4902 96.6898 77.2312C96.3764 76.6257 96.0067 76.0086 95.4812 75.4807L95.4812 75.4807L95.4804 75.4799C95.2911 75.2906 95.0533 75.2928 94.9098 75.3297C94.7743 75.3646 94.668 75.4378 94.5965 75.5021C94.5235 75.5679 94.4478 75.6595 94.3985 75.7738C94.3539 75.8774 94.2926 76.0994 94.4271 76.3236Z" fill="white" stroke="white"/>
<path d="M96.7339 75.0709L96.7338 75.071L96.7392 75.0836C96.8846 75.42 97.0503 75.7448 97.2076 76.0532C97.2117 76.0614 97.2159 76.0696 97.2201 76.0777C97.3836 76.3984 97.5377 76.702 97.6697 77.0118L97.6696 77.0119L97.6719 77.017C97.6998 77.0807 97.7279 77.1458 97.7565 77.2121C98.0211 77.8255 98.3268 78.534 98.9483 79.0773C99.1166 79.2291 99.3235 79.2424 99.4736 79.2036C99.6072 79.169 99.7047 79.0951 99.7642 79.0385C99.8276 78.9782 99.8848 78.9024 99.9254 78.8157C99.9603 78.741 100.015 78.5896 99.9697 78.4095L99.967 78.3986L99.9638 78.3879C99.7442 77.6518 99.4304 76.9695 99.1306 76.3175C99.1191 76.2926 99.1077 76.2678 99.0963 76.243L99.0964 76.243L99.0922 76.2343C99.0661 76.1802 99.0391 76.1235 99.0113 76.0651C98.8862 75.8023 98.7435 75.5024 98.5758 75.2257C98.3671 74.8814 98.097 74.5318 97.7167 74.2729L97.7167 74.2728L97.7084 74.2674C97.5357 74.1547 97.3534 74.1601 97.2317 74.1901C97.1117 74.2196 97.0133 74.2795 96.9408 74.3409C96.8682 74.4026 96.7949 74.4886 96.7464 74.5983C96.6981 74.7074 96.6584 74.882 96.7339 75.0709Z" fill="white" stroke="white"/>
<path d="M100.087 73.5545L100.087 73.5545L100.091 73.5618L100.098 73.5738C100.509 74.3115 100.881 74.9773 101.155 75.7262L101.155 75.7263L101.158 75.7322C101.167 75.7563 101.176 75.7804 101.185 75.8044C101.451 76.5027 101.72 77.2085 102.205 77.8857L102.205 77.8858L102.211 77.8948C102.277 77.9821 102.372 78.0573 102.493 78.0958C102.61 78.133 102.718 78.1256 102.8 78.1059C102.951 78.0697 103.058 77.9827 103.117 77.9243C103.182 77.8597 103.242 77.778 103.283 77.6854C103.313 77.6172 103.376 77.4478 103.314 77.2522C103.263 77.0742 103.211 76.8784 103.157 76.6714C103.009 76.1134 102.84 75.4739 102.615 74.8819C102.303 74.0588 101.849 73.218 101.087 72.6811L101.08 72.676L101.073 72.6712C100.891 72.5526 100.701 72.5635 100.581 72.5931C100.46 72.6231 100.357 72.6833 100.279 72.7477C100.203 72.8114 100.12 72.9044 100.068 73.0273C100.014 73.1542 99.9798 73.3535 100.087 73.5545Z" fill="white" stroke="white"/>
<path d="M104.269 108.072L104.269 108.072L104.272 108.072C106.045 108.013 107.86 107.416 109.498 106.877C109.824 106.77 110.142 106.665 110.452 106.568C110.698 106.491 110.953 106.413 111.214 106.334C111.982 106.1 112.804 105.85 113.595 105.552C114.658 105.153 115.713 104.652 116.585 103.948C116.665 103.886 116.721 103.812 116.756 103.758C116.795 103.697 116.838 103.612 116.861 103.512C116.878 103.438 116.918 103.204 116.742 103.001C116.553 102.782 116.294 102.802 116.189 102.821C115.462 102.95 114.776 103.254 114.16 103.526C113.991 103.601 113.827 103.674 113.669 103.74C112.567 104.186 111.454 104.571 110.321 104.942C109.565 105.189 108.797 105.395 108.013 105.605C107.756 105.674 107.497 105.744 107.237 105.815C106.193 106.102 105.135 106.417 104.121 106.855L104.114 106.858L104.108 106.861C103.987 106.918 103.906 107.011 103.877 107.046C103.833 107.098 103.785 107.166 103.749 107.245C103.726 107.294 103.644 107.474 103.71 107.687C103.751 107.819 103.842 107.934 103.971 108.004C104.086 108.066 104.197 108.074 104.269 108.072Z" fill="white" stroke="white"/>
<path d="M107.661 104.359L107.658 104.377L107.657 104.395C107.563 105.878 108.218 107.494 108.965 108.638L108.965 108.638L108.971 108.646C109.029 108.731 109.118 108.813 109.242 108.858C109.362 108.901 109.474 108.895 109.557 108.876C109.705 108.841 109.808 108.756 109.856 108.711C109.914 108.657 109.964 108.595 110.001 108.534C110.02 108.502 110.041 108.463 110.059 108.419C110.074 108.381 110.099 108.306 110.1 108.211C110.109 106.76 109.49 105.223 108.87 104.038L108.87 104.038L108.869 104.036C108.829 103.96 108.764 103.876 108.665 103.811C108.562 103.745 108.448 103.718 108.342 103.721C108.153 103.725 108.017 103.819 107.954 103.87C107.88 103.93 107.82 104 107.776 104.067C107.739 104.123 107.679 104.228 107.661 104.359Z" fill="white" stroke="white"/>
<path d="M110.205 104.083C110.045 103.94 109.849 103.915 109.695 103.947C109.557 103.976 109.454 104.046 109.389 104.102C109.32 104.162 109.259 104.235 109.214 104.317C109.175 104.389 109.121 104.516 109.132 104.672C109.208 105.921 109.76 107.189 110.407 108.173L110.416 108.186L110.425 108.199C110.489 108.284 110.583 108.361 110.706 108.402C110.827 108.442 110.94 108.435 111.027 108.413C111.185 108.374 111.296 108.279 111.355 108.219C111.421 108.151 111.479 108.07 111.52 107.983C111.551 107.917 111.616 107.76 111.577 107.572L111.576 107.564L111.574 107.557C111.531 107.379 111.491 107.187 111.448 106.976C111.433 106.903 111.417 106.828 111.401 106.75C111.339 106.455 111.269 106.137 111.178 105.824C111 105.211 110.724 104.544 110.205 104.083Z" fill="white" stroke="white"/>
<path d="M45.8279 53.9292L45.8285 53.9289C47.4129 53.174 49.027 52.4926 50.6549 51.8054C51.1417 51.5999 51.6297 51.3939 52.1186 51.1852L52.1202 51.1845C52.4564 51.0396 52.8005 50.8955 53.1492 50.7494C54.9493 49.9953 56.8716 49.1899 58.4712 47.9683L58.4712 47.9684L58.48 47.9613C58.5678 47.8911 58.6233 47.8046 58.6522 47.7536C58.6855 47.6946 58.7212 47.6154 58.7407 47.5251C58.752 47.4725 58.7992 47.2396 58.6315 47.0346C58.4208 46.7771 58.1226 46.8348 58.0286 46.862L58.0274 46.8623C56.9113 47.1884 55.8353 47.6498 54.7919 48.1335C54.4292 48.3015 54.0733 48.4709 53.7207 48.6387C53.0464 48.9596 52.3846 49.2745 51.7124 49.563L51.7121 49.5631C51.5764 49.6214 51.4407 49.6798 51.3049 49.7381C49.1772 50.6524 47.0397 51.5708 44.9501 52.5876L44.9495 52.5879C44.3463 52.8824 43.7446 53.1774 43.1431 53.4723C41.7443 54.1581 40.3468 54.8433 38.9358 55.5207L38.9346 55.5213C38.857 55.5587 38.7789 55.5964 38.7003 55.6343C37.1235 56.3948 35.3499 57.2502 34.0194 58.5722L34.0183 58.5733C33.9271 58.6645 33.8769 58.7707 33.851 58.8579C33.8253 58.9441 33.8097 59.0573 33.8337 59.1789C33.8572 59.2975 33.9432 59.5126 34.1906 59.6023C34.4135 59.6831 34.6051 59.5995 34.6956 59.5476C38.3191 57.5084 42.0549 55.7204 45.8279 53.9292Z" fill="white" stroke="white"/>
<path d="M44.3117 56.4653L44.3117 56.4653L44.3182 56.4634C48.0986 55.3395 52.0751 53.8182 55.4865 51.7437C55.6869 51.6258 55.8094 51.4057 55.8094 51.1858C55.8094 51.0628 55.7637 50.8361 55.5373 50.7043C55.3307 50.5841 55.1275 50.6362 55.0313 50.6732C54.2552 50.9699 53.4636 51.2617 52.6647 51.5562C49.7257 52.6396 46.688 53.7594 43.9616 55.2893C43.8438 55.3549 43.7674 55.4517 43.731 55.5026C43.6861 55.5654 43.6397 55.6472 43.6099 55.7396C43.595 55.7856 43.5782 55.853 43.5772 55.9329C43.5763 56.0105 43.5904 56.1407 43.6806 56.2659C43.8948 56.5631 44.2307 56.4882 44.3117 56.4653Z" fill="white" stroke="white"/>
<path d="M47.9425 56.2957C45.9302 56.8074 44.0085 57.6141 42.2426 58.69C42.1243 58.7618 42.057 58.8619 42.0253 58.9164C41.9879 58.9806 41.9537 59.0621 41.9379 59.1537C41.9278 59.2121 41.8956 59.4377 42.0682 59.6291C42.2739 59.8572 42.5425 59.81 42.6477 59.7779C44.6 59.1886 46.4934 58.4015 48.2678 57.4285C48.38 57.369 48.4528 57.2831 48.4888 57.2358C48.533 57.1777 48.5778 57.1023 48.6074 57.0162C48.6221 56.9733 48.6394 56.9095 48.6418 56.833C48.6441 56.7591 48.6335 56.6318 48.5479 56.5069C48.3494 56.2169 48.0327 56.2727 47.9425 56.2957ZM42.7593 59.5462L42.7622 59.5444L42.7593 59.5462L42.7593 59.5462Z" fill="white" stroke="white"/>
<path d="M46.8507 60.1952L46.8507 60.1953L46.8533 60.2002C46.8987 60.2848 46.9717 60.372 47.0804 60.4324C47.1892 60.4927 47.3015 60.5083 47.3963 60.5013C47.5681 60.4886 47.6933 60.404 47.7587 60.35C47.8327 60.2888 47.8983 60.2104 47.9456 60.1221C47.9857 60.0472 48.0531 59.8892 48.0113 59.6969L48.0093 59.6876L48.0069 59.6784C47.6483 58.2866 47.2117 56.7118 46.5726 55.2364C45.934 53.7621 45.0799 52.3546 43.8674 51.3189L43.8592 51.3119L43.8508 51.3053C43.6729 51.1661 43.4726 51.1662 43.3399 51.1981C43.2123 51.2288 43.1102 51.2938 43.0382 51.3567C42.9659 51.4198 42.8909 51.5094 42.8435 51.6244C42.7975 51.7358 42.7552 51.9352 42.8669 52.1381C43.5753 53.4503 44.22 54.7898 44.8643 56.1414C44.9188 56.2558 44.9734 56.3702 45.0279 56.4848C45.617 57.7216 46.2105 58.9675 46.8507 60.1952Z" fill="white" stroke="white"/>
<path d="M46.4046 51.2207C46.4199 51.2753 46.4356 51.3298 46.4515 51.3842M46.4046 51.2207C46.4018 51.2107 46.4008 51.1996 46.4016 51.1879L46.4515 51.3842M46.4046 51.2207L46.3239 51.2437M46.4046 51.2207L46.3239 51.2437M46.4515 51.3842C46.386 51.3511 46.3366 51.3046 46.3034 51.2584L46.3239 51.2437M46.4515 51.3842L46.3239 51.2437M46.2979 51.2506L45.9232 51.3559C46.4689 53.2985 47.3731 55.1195 48.3943 56.81L48.3941 56.8101L48.4017 56.8218C48.5183 57.0032 48.7175 57.1036 48.9293 57.0888C49.0989 57.0769 49.2244 56.9959 49.294 56.9389C49.3703 56.8765 49.4367 56.7966 49.484 56.7071C49.5247 56.6302 49.5892 56.4737 49.548 56.2843L49.5481 56.2843L49.5454 56.273C49.068 54.2985 48.2883 52.381 47.1215 50.6834L47.1216 50.6833L47.1155 50.6748C47.049 50.5823 46.952 50.502 46.8262 50.4598C46.7047 50.419 46.591 50.4252 46.5043 50.4451C46.3444 50.4818 46.2279 50.5739 46.1613 50.6379C46.0877 50.7087 46.0214 50.7968 45.9744 50.8937C45.9376 50.9695 45.8641 51.1491 45.9238 51.358L46.2982 51.251C46.3682 51.3528 46.4367 51.4556 46.5038 51.5591C46.9575 53.0472 47.625 54.4681 48.3932 55.8199C48.4576 56.0479 48.5176 56.2774 48.5734 56.508L48.7679 56.461C48.786 56.4912 48.8041 56.5213 48.8223 56.5514C48.8943 56.6635 49.061 56.5069 49.0611 56.4072L49.1051 56.3806L49.1082 56.3787L49.2503 56.2929C49.1168 56.0719 48.9857 55.8492 48.8576 55.625C48.4271 54.1191 47.8077 52.6681 46.9621 51.3473L46.2979 51.2506ZM49.0606 56.3982C49.0604 56.3956 49.0599 56.393 49.0594 56.3905L49.0606 56.3982Z" fill="white" stroke="white"/>
<path d="M29.4687 38.0007C29.2401 37.876 29.0191 37.952 28.9284 37.9911C26.2038 39.157 23.5141 40.2323 20.6913 41.0838C20.1182 41.2562 19.5324 41.422 18.9402 41.5895C16.7068 42.2214 14.3826 42.8789 12.3067 44.0192C12.1844 44.0853 12.1058 44.1846 12.0686 44.2365C12.0222 44.3014 11.9756 44.3847 11.9458 44.4776C11.9309 44.524 11.9145 44.5906 11.9132 44.669C11.9119 44.7447 11.9244 44.872 12.0098 44.9965C12.2168 45.2979 12.5506 45.2332 12.6439 45.2075C14.4085 44.7255 16.1712 44.1745 17.9243 43.6265C19.037 43.2786 20.1459 42.932 21.2488 42.605C24.0219 41.7832 27.0116 40.8821 29.4682 39.0824L29.4746 39.0777L29.4809 39.0728C29.5806 38.9948 29.6447 38.8978 29.6834 38.8183C29.7219 38.7393 29.7579 38.6314 29.759 38.5089C29.76 38.3989 29.7261 38.1411 29.4687 38.0007Z" fill="white" stroke="white"/>
<path d="M25.9811 43.3689C25.2168 43.5868 24.4455 43.8222 23.6688 44.0592C22.1901 44.5105 20.6917 44.9678 19.185 45.3222C19.0957 45.3434 18.7899 45.3932 18.5882 45.1225C18.4989 45.0026 18.4808 44.8763 18.4805 44.795C18.4802 44.7135 18.4971 44.645 18.5124 44.5982C18.543 44.5048 18.5915 44.4236 18.6398 44.3615C18.6802 44.3095 18.7619 44.2167 18.8878 44.1582C20.8957 43.207 23.0554 42.5847 25.1536 41.9802C25.3889 41.9124 25.6235 41.8448 25.8569 41.777C26.1967 41.6777 26.5369 41.5775 26.8777 41.4772C28.7656 40.9213 30.6705 40.3604 32.6052 39.9192C32.7137 39.8945 33.0167 39.8626 33.2051 40.1403C33.3515 40.356 33.289 40.5805 33.2712 40.6386C33.2427 40.7319 33.1959 40.815 33.1459 40.8808C33.1027 40.9377 33.0159 41.0364 32.8796 41.0949L25.9811 43.3689ZM25.9811 43.3689C26.0656 43.3448 26.1502 43.3208 26.2348 43.2967C28.4538 42.6661 30.7166 42.023 32.8794 41.0949L25.9811 43.3689ZM32.4855 40.1758L32.4853 40.1759L32.4855 40.1758Z" fill="white" stroke="white"/>
<path d="M20.7959 39.7913L20.7958 39.7913L20.7968 39.7971C21.1892 42.1954 22.2441 44.8913 23.5831 46.9151L23.583 46.9151L23.589 46.9238C23.6522 47.0151 23.7475 47.0971 23.8743 47.1397C23.9964 47.1807 24.1091 47.1724 24.1921 47.1523C24.3436 47.1155 24.4509 47.0275 24.5081 46.9725C24.5731 46.91 24.6316 46.8335 24.6745 46.7505C24.7038 46.694 24.785 46.5249 24.7363 46.3201L24.7364 46.3201L24.7344 46.3126C24.4372 45.1452 24.0091 44.0583 23.5848 42.981L23.5677 42.9374L23.5677 42.9374L23.5668 42.9352C23.4285 42.5888 23.2949 42.2206 23.1578 41.8431C22.8467 40.9859 22.518 40.0801 22.0765 39.2697L22.0711 39.2597L22.0652 39.25C21.9432 39.0485 21.7354 38.9486 21.5263 38.9539C21.3534 38.9584 21.2158 39.0316 21.1311 39.0913C21.0404 39.1553 20.9581 39.2404 20.8971 39.3386C20.8429 39.4259 20.7653 39.5896 20.7959 39.7913Z" fill="white" stroke="white"/>
<path d="M25.4413 44.3092C25.4796 44.4082 25.5492 44.5128 25.6632 44.5888C25.7768 44.6645 25.8973 44.6871 25.9957 44.6856C26.1732 44.6829 26.312 44.6043 26.3874 44.5519C26.4731 44.4924 26.5536 44.4134 26.6151 44.3222C26.6628 44.2513 26.7628 44.0793 26.7273 43.8591C26.5181 42.5072 26.0925 41.2021 25.6139 39.9394C25.4 39.3749 25.1734 38.8139 24.95 38.2606C24.9234 38.1948 24.8969 38.129 24.8704 38.0634C24.6206 37.4441 24.3765 36.8339 24.1542 36.2254L24.1542 36.2254L24.1516 36.2184C24.1182 36.131 24.056 36.0284 23.9461 35.9506C23.8336 35.8708 23.7105 35.8451 23.606 35.8479C23.4233 35.8526 23.2885 35.9414 23.2268 35.9882C23.1516 36.045 23.0858 36.1155 23.0353 36.1894C22.9971 36.2453 22.9136 36.3802 22.9136 36.5579V36.5662L22.9139 36.5746C22.9611 37.9856 23.372 39.3336 23.8745 40.6118C24.1226 41.2431 24.3966 41.8657 24.6636 42.4723L24.6743 42.4968C24.9461 43.1143 25.2099 43.7147 25.4413 44.3092ZM25.4413 44.3092C25.4411 44.3088 25.441 44.3084 25.4408 44.308L25.9075 44.1285M25.4413 44.3092C25.4414 44.3094 25.4414 44.3096 25.4415 44.3098L25.9075 44.1285M25.9075 44.1285C25.8912 44.0866 25.8747 44.0446 25.8581 44.0027C25.8572 44.0006 25.8564 43.9985 25.8556 43.9963C25.828 43.9267 25.8 43.8571 25.7717 43.7874L26.3621 43.9181C26.3659 43.9278 26.3697 43.9375 26.3734 43.9472M25.9075 44.1285C25.9601 44.2653 26.1639 44.1289 26.2202 44.0082C26.2204 44.0076 26.2207 44.0071 26.221 44.0065C26.2321 43.9822 26.2371 43.9585 26.2335 43.938M26.2335 43.938L26.3607 43.9183C26.3656 43.9283 26.3698 43.9379 26.3734 43.9472M26.2335 43.938C26.2237 43.8742 26.2133 43.8105 26.2025 43.7469C26.2076 43.75 26.2128 43.7533 26.2179 43.7567C26.2893 43.8043 26.3337 43.8642 26.3597 43.9162L26.2335 43.938ZM26.3734 43.9472C26.3737 43.9478 26.3739 43.9484 26.3742 43.949L26.3742 43.949L26.3734 43.9472Z" fill="white" stroke="white"/>
<path d="M22.1537 68.1315C23.577 68.0542 24.9862 67.4459 26.2171 66.9147C26.4294 66.823 26.6364 66.7337 26.8372 66.6498L26.8375 66.6497C27.4129 66.4087 28.0005 66.1727 28.5926 65.935C29.9773 65.3788 31.3865 64.8129 32.7222 64.151L32.7238 64.1502C32.798 64.1131 32.8494 64.0651 32.8684 64.047C32.8956 64.0212 32.9195 63.9945 32.9395 63.9701C32.978 63.9231 33.0214 63.8612 33.0562 63.7911C33.0735 63.7561 33.0951 63.7063 33.1097 63.6463C33.1227 63.593 33.1416 63.4867 33.1075 63.362C33.0662 63.2111 32.9589 63.08 32.8038 63.0135C32.6799 62.9604 32.5657 62.9657 32.5016 62.974C31.0181 63.1495 29.6418 63.7505 28.3644 64.3084C28.1721 64.3925 27.9819 64.4755 27.794 64.556C27.0406 64.8779 26.2742 65.1743 25.4982 65.4744C25.2945 65.5531 25.0901 65.6321 24.8852 65.7119C23.9047 66.0938 22.9165 66.4913 21.9599 66.9534L21.9599 66.9534L21.9538 66.9564C21.8826 66.992 21.8329 67.0371 21.812 67.0567C21.7843 67.0827 21.76 67.1097 21.7396 67.1347C21.7006 67.1823 21.6562 67.2465 21.6218 67.3211C21.6045 67.3586 21.5835 67.412 21.5712 67.4763C21.5596 67.537 21.5489 67.6423 21.5887 67.7618C21.6343 67.8987 21.7327 68.0115 21.8639 68.0754C21.9782 68.1311 22.0866 68.1352 22.1537 68.1315ZM22.1537 68.1315L22.1266 67.6323M22.1537 68.1315C22.1539 68.1315 22.1541 68.1315 22.1543 68.1315L22.1266 67.6323M22.1266 67.6323C22.0185 67.6383 22.0636 67.5337 22.1172 67.4632C22.1172 67.4631 22.1173 67.463 22.1173 67.4629C22.1393 67.4341 22.1626 67.411 22.1774 67.4036C22.2644 67.3616 22.3517 67.3201 22.4393 67.2791C22.4005 67.2368 22.3539 67.2018 22.3019 67.1764C22.2085 67.131 22.1288 67.1314 22.0994 67.133C22.4242 67.1154 22.7482 67.0658 23.0721 66.9927L31.4422 64.2024C30.4527 64.649 29.4391 65.056 28.427 65.4625C27.8305 65.702 27.2345 65.9414 26.6444 66.1884C26.4329 66.2768 26.2187 66.3691 26.0021 66.4623C25.1114 66.8459 24.1805 67.2467 23.2337 67.4678C22.951 67.5922 22.6712 67.7204 22.3948 67.8539L22.2826 67.6216C22.2306 67.6259 22.1786 67.6295 22.1266 67.6323ZM22.401 67.8509L22.2862 67.6213C22.3777 67.6136 22.4692 67.6037 22.5605 67.5917C22.5602 67.6234 22.5564 67.6485 22.5533 67.6644C22.5458 67.7039 22.5343 67.7302 22.5297 67.7402C22.5211 67.7588 22.515 67.7661 22.5137 67.7677L22.5135 67.7679C22.5122 67.7696 22.5069 67.7759 22.4967 67.7855L22.4963 67.7859C22.4911 67.7908 22.4576 67.8225 22.401 67.8509Z" fill="white" stroke="white"/>
<path d="M21.1461 70.6999C23.8256 70.1329 26.5354 68.9819 28.9476 67.8354C29.069 67.7791 29.1473 67.6914 29.1868 67.6411C29.2336 67.5813 29.2791 67.5048 29.3083 67.4172C29.3255 67.3655 29.3946 67.1459 29.2558 66.9283C29.0766 66.6475 28.7764 66.6723 28.6721 66.693C26.0111 67.2235 23.2104 68.2315 20.8313 69.5398L20.8313 69.5398L20.8294 69.5408C20.7191 69.6021 20.6461 69.6903 20.6097 69.7392C20.5666 69.7973 20.5206 69.8745 20.4903 69.9638C20.4751 70.0084 20.4577 70.0741 20.4557 70.1525C20.4538 70.2298 20.4665 70.3543 20.549 70.4764C20.7412 70.7607 21.0536 70.7196 21.1461 70.6999Z" fill="white" stroke="white"/>
<path d="M23.1937 66.0156L23.1935 66.0157L23.199 66.0264C23.406 66.4311 23.5886 66.8493 23.7798 67.2871C23.8889 67.5371 24.0008 67.7934 24.1216 68.0573C24.4432 68.7595 24.8136 69.4785 25.314 70.0941L25.315 70.0954C25.477 70.2935 25.7081 70.3262 25.8749 70.2921C26.0159 70.2633 26.121 70.1903 26.1833 70.1372C26.2508 70.0798 26.314 70.0065 26.3612 69.9224C26.394 69.864 26.4715 69.7088 26.436 69.5148C26.2024 67.9643 25.3943 66.3201 24.2667 65.2103C24.0839 65.0291 23.854 65.0232 23.7058 65.0592C23.568 65.0928 23.4603 65.1663 23.3884 65.2309C23.3141 65.2976 23.2403 65.3885 23.1915 65.5001C23.1464 65.6032 23.0912 65.8028 23.1937 66.0156Z" fill="white" stroke="white"/>
<path d="M26.7008 16.4647C25.1332 16.8326 23.5228 17.2105 22.0106 17.7533C21.9276 17.7829 21.8665 17.8269 21.8355 17.8509C21.7979 17.8801 21.7648 17.9113 21.7372 17.9402C21.6837 17.9963 21.6277 18.0679 21.5836 18.1473C21.5615 18.1871 21.5355 18.2412 21.5173 18.3056C21.5007 18.364 21.4784 18.4725 21.5085 18.6004C21.5444 18.7527 21.6455 18.8879 21.7969 18.9625C21.9223 19.0243 22.0422 19.0248 22.1128 19.019C23.5963 18.9049 25.0957 18.5265 26.5233 18.1661C26.9496 18.0585 27.3695 17.9525 27.7806 17.8556L27.7823 17.8552C29.8232 17.3673 31.8632 16.8498 33.9056 16.3202L33.9062 16.32C36.0436 15.763 38.2003 15.1794 40.355 14.5962C42.3055 14.0684 44.2544 13.541 46.186 13.0341L46.1866 13.034C50.2597 11.9596 54.338 10.9454 58.4565 10.0541L58.4578 10.0538C58.7014 10.0005 58.9452 9.9472 59.1891 9.89389C60.8965 9.52075 62.6111 9.14604 64.3256 8.72577L64.3268 8.72547C65.0445 8.54766 65.7882 8.41773 66.5551 8.28376C66.7796 8.24454 67.006 8.20498 67.2344 8.16377C68.2297 7.98416 69.2484 7.77499 70.2074 7.42726L70.2075 7.42739L70.2182 7.42321C70.2889 7.39571 70.3443 7.35679 70.3681 7.33967C70.401 7.31604 70.4331 7.28968 70.4629 7.26311C70.5206 7.21156 70.5886 7.14183 70.6469 7.06153C70.6893 7.00314 70.7956 6.84885 70.7977 6.64572C70.7991 6.5211 70.7602 6.37627 70.6505 6.25519C70.549 6.14313 70.4258 6.09469 70.3361 6.07308L70.3352 6.07287C69.4739 5.86722 68.5393 5.96854 67.6752 6.1444C67.2387 6.23322 66.8069 6.34412 66.3993 6.45221C66.3171 6.47399 66.2362 6.49559 66.1564 6.51688C65.8358 6.60246 65.5343 6.68291 65.2485 6.74982L65.248 6.74994C64.7138 6.87556 64.1812 7.0033 63.6495 7.13084C62.2531 7.46577 60.8626 7.79928 59.4644 8.0893C55.3193 8.94297 51.2237 9.96593 47.1477 11.0336C44.4933 11.726 41.8435 12.4437 39.1977 13.1604C37.7484 13.553 36.3003 13.9452 34.8532 14.3328L34.8524 14.333C34.4104 14.4522 33.9684 14.5718 33.5265 14.6913C31.9259 15.1242 30.3253 15.5572 28.7217 15.9746C28.0641 16.1447 27.3866 16.3037 26.7008 16.4647Z" fill="white" stroke="white"/>
<path d="M70.7232 46.3571C70.7712 46.2418 70.815 46.0467 70.72 45.8414C70.1749 44.6609 69.3083 43.6031 68.373 42.6527C67.6401 41.908 66.844 41.2091 66.1086 40.5634C65.9075 40.3869 65.711 40.2143 65.5215 40.0459C63.1618 37.9385 60.6145 36.0618 58.0044 34.3018C52.7733 30.7691 47.1884 27.758 41.4424 25.1697C35.8222 22.634 30.0002 20.6235 23.8783 19.6067L23.8782 19.6067C20.4739 19.0422 16.9748 18.8509 13.5477 18.7491L13.5472 18.7491C12.2912 18.7132 10.8697 18.684 9.48188 18.8482C8.09525 19.0122 6.70631 19.3726 5.52387 20.14C5.40311 20.2163 5.32048 20.3201 5.26836 20.415C5.21651 20.5094 5.17432 20.6325 5.17432 20.769C5.17432 20.8986 5.22088 21.1476 5.47059 21.2852C5.69848 21.4108 5.92293 21.3428 6.03114 21.2967L5.83521 20.8367L6.02956 21.2974C8.62347 20.2031 11.5077 20.2224 14.3936 20.3623L14.3938 20.3623C17.7367 20.5229 21.0736 20.7673 24.3574 21.3461L24.3578 21.3461C30.113 22.3563 35.6167 24.4084 40.9674 26.8264L40.9675 26.8264C46.6336 29.3854 52.1002 32.4076 57.2495 35.8924L57.25 35.8928C59.6182 37.4912 61.8882 39.219 64.0395 41.093L64.0401 41.0935C65.0236 41.9473 65.9701 42.8477 66.8795 43.7864L66.8811 43.788C67.2219 44.1367 67.5397 44.503 67.8685 44.882C67.9728 45.0023 68.0783 45.1239 68.186 45.2465C68.6254 45.7473 69.0926 46.2558 69.6268 46.7047L69.6345 46.7112L69.6424 46.7173C69.8265 46.8598 70.035 46.8632 70.1818 46.8271C70.3214 46.7927 70.4339 46.7194 70.5138 46.6478C70.5948 46.5754 70.6732 46.4771 70.7232 46.3571Z" fill="white" stroke="white"/>
<path d="M92.1658 57.8717L92.1651 57.8717C92.0856 57.8659 91.9713 57.8431 91.862 57.765C91.742 57.6794 91.6696 57.5568 91.6428 57.4302C91.5983 57.2211 91.6846 57.0515 91.7179 56.9915C91.7643 56.9081 91.825 56.834 91.8875 56.7756C91.9356 56.7306 92.0468 56.6352 92.2054 56.6008L92.2127 56.5992L92.2199 56.5978C94.8451 56.108 97.6858 56.4379 100.222 56.7325C100.271 56.7381 100.319 56.7437 100.368 56.7493L100.31 57.246M92.1658 57.8717L154.473 87.8884C154.816 88.2623 155.15 88.6519 155.486 89.0429C156.252 89.9358 157.024 90.8359 157.92 91.5721L157.601 91.9576C157.601 91.9578 157.602 91.9581 157.602 91.9583C157.816 92.1342 158.064 92.1264 158.224 92.0853C158.384 92.0443 158.521 91.9586 158.624 91.8694C158.727 91.7801 158.83 91.657 158.894 91.5066C158.956 91.3579 159.004 91.1132 158.861 90.8745L158.86 90.8741C158.19 89.7592 157.277 88.7844 156.415 87.8645C156.216 87.6518 156.019 87.442 155.829 87.2341C154.643 85.9242 153.423 84.6453 152.197 83.3897L152.195 83.3881C149.633 80.7869 146.882 78.4114 144.068 76.1154L144.068 76.1152C138.504 71.583 132.59 67.4249 126.195 64.0979C120.792 61.2853 115.001 59.4648 109.086 58.2009L109.086 58.2009C106.198 57.5842 103.303 57.0859 100.367 56.7493L100.31 57.246M92.1658 57.8717C93.1872 57.945 94.2083 57.9805 95.2185 58.0157C95.4465 58.0237 95.674 58.0316 95.9008 58.0399C97.1374 58.0854 98.36 58.1431 99.5807 58.2806L99.5807 58.2806C102.677 58.6293 105.76 59.2095 108.803 59.9301L108.803 59.9301C114.512 61.2795 120.009 63.0335 125.219 65.7101L92.1658 57.8717ZM100.31 57.246C103.227 57.5805 106.106 58.0759 108.981 58.6898L92.2016 57.373M100.31 57.246C100.273 57.2417 100.236 57.2374 100.198 57.233C97.9776 56.9753 95.5947 56.6987 93.3378 56.9402C92.9825 56.9225 92.6274 56.9019 92.272 56.8768C92.2698 56.8766 92.2676 56.8765 92.2653 56.8763C92.256 56.8756 92.2467 56.875 92.2373 56.8743L92.2174 57.1521C92.1375 57.2333 92.0773 57.3639 92.2016 57.373M92.2016 57.373C92.2566 57.377 92.3117 57.3808 92.3667 57.3845L92.4034 57.5809C92.716 57.5225 93.0324 57.4766 93.3518 57.4414M92.2016 57.373L93.3518 57.4414M93.3518 57.4414C93.979 57.4722 94.6058 57.4941 95.2324 57.5159C96.6999 57.5671 98.1668 57.6182 99.6367 57.7837M93.3518 57.4414L150.832 84.065C148.372 81.6177 145.78 79.3524 143.092 77.1676C137.575 72.6964 131.765 68.513 125.448 65.2655C120.189 62.5641 114.651 60.7984 108.918 59.4435C105.861 58.7195 102.757 58.1352 99.6367 57.7837M99.6367 57.7837L99.6367 57.7839L99.6367 57.7837ZM92.5422 57.0486C92.4652 57.0615 92.3883 57.075 92.3117 57.0893L92.5422 57.0486Z" fill="white" stroke="white"/>
<path d="M155.239 45.1956C155.196 45.2599 155.104 45.4171 155.128 45.6206C155.364 47.7305 155.21 49.8022 155.051 51.9318C154.983 52.8462 154.914 53.7711 154.875 54.7144L154.875 54.7152C154.744 58.0237 154.823 61.3243 154.902 64.6152C154.91 64.9488 154.918 65.2823 154.926 65.6158L154.926 65.6163C155.001 68.7298 154.932 71.843 154.863 74.9697C154.851 75.5019 154.839 76.0344 154.828 76.5675C154.819 76.9248 154.81 77.283 154.8 77.6418C154.765 78.9737 154.729 80.314 154.722 81.6532V81.6557C154.722 82.0017 154.714 82.365 154.704 82.7444C154.704 82.784 154.703 82.8239 154.702 82.8639C154.692 83.284 154.682 83.7209 154.686 84.1579C154.693 85.0276 154.75 85.9277 154.968 86.7428L154.969 86.7477C154.999 86.8558 155.061 86.9827 155.181 87.082C155.306 87.1845 155.448 87.2201 155.57 87.2208C155.781 87.2221 155.953 87.1213 156.042 87.0604C156.148 86.988 156.245 86.8974 156.32 86.8078C156.358 86.7625 156.396 86.7099 156.429 86.6522C156.456 86.6055 156.497 86.525 156.515 86.4235C156.673 85.6265 156.649 84.815 156.587 84.0436C156.565 83.7606 156.538 83.4886 156.511 83.2231C156.463 82.7368 156.417 82.2724 156.404 81.8023L156.404 81.7994C156.357 80.4482 156.402 79.0938 156.448 77.7243C156.464 77.2429 156.481 76.7597 156.493 76.274H156.493L156.493 76.2701C156.5 75.8644 156.507 75.4584 156.515 75.0523C156.573 71.8057 156.632 68.5471 156.556 65.2882C156.545 64.7339 156.532 64.1806 156.519 63.6281C156.449 60.5599 156.38 57.5162 156.48 54.4597C156.504 53.7708 156.577 53.0368 156.659 52.2672C156.669 52.1722 156.68 52.0766 156.69 51.9805C156.763 51.304 156.838 50.6038 156.886 49.9064C156.993 48.3191 156.959 46.6746 156.382 45.211L156.377 45.1987L156.371 45.1867C156.33 45.096 156.26 45.0012 156.151 44.9324C156.043 44.8636 155.928 44.8417 155.83 44.8438C155.654 44.8475 155.519 44.927 155.448 44.9782C155.367 45.0365 155.294 45.1118 155.239 45.1956Z" fill="white" stroke="white"/>
</svg>
