<svg width="199" height="191" viewBox="0 0 199 191" fill="none" xmlns="http://www.w3.org/2000/svg">
<path d="M110.649 3.24558L118.669 38.8324L147.785 16.8551L139.57 52.3975L175.338 45.2295L152.515 73.6878L187.852 82.749L154.942 98.4867L182.847 121.982L146.368 121.882L161.315 155.159L128.492 139.241L127.521 175.707L104.854 147.125L88.1574 179.558L80.1374 143.972L51.0215 165.949L59.2363 130.407L23.4681 137.574L46.2906 109.116L10.9545 100.055L43.8645 84.3173L15.9592 60.8217L52.4385 60.9216L37.4911 27.6452L70.3144 43.563L71.2853 7.09653L93.9516 35.6794L110.649 3.24558Z" fill="#FEBB38"/>
<path d="M60.6137 99.9783C59.6022 99.987 58.7042 99.8265 57.9196 99.4968C57.135 99.1671 56.4453 98.7232 55.8506 98.1651C55.2785 97.6099 54.797 96.9745 54.4061 96.2587C54.0378 95.5458 53.7543 94.7978 53.5557 94.0147C53.5483 92.4523 53.7821 91.0699 54.2569 89.8676C54.7347 88.6426 55.3463 87.5381 56.0918 86.5539C56.8373 85.5698 57.6533 84.6635 58.5397 83.8351C59.4487 83.0096 60.3195 82.2137 61.152 81.4473C61.3016 81.5353 61.4258 81.5511 61.5248 81.4949C61.6465 81.4415 61.7484 81.3627 61.8306 81.2583C61.9354 81.1569 62.0402 81.0554 62.1449 80.954C62.2723 80.8554 62.4067 80.7922 62.548 80.7643C62.6643 80.5725 62.7989 80.4174 62.9518 80.2992C63.1273 80.1838 63.3013 80.0797 63.4738 79.9869C63.6719 79.8744 63.8474 79.759 64.0002 79.6407C64.1757 79.5253 64.3329 79.3731 64.4718 79.1842C64.7035 79.1678 64.9056 79.1132 65.0782 79.0205C65.2734 78.9305 65.4474 78.8264 65.6003 78.7082C65.7757 78.5928 65.9497 78.4887 66.1223 78.3959C66.2949 78.3031 66.4985 78.2372 66.7331 78.1982L66.7893 77.7576C67.3152 77.5951 67.7084 77.3927 67.9689 77.1504C68.2295 76.908 68.5453 76.5924 68.9164 76.2035C69.1678 76.2126 69.3613 76.2258 69.4969 76.2431C69.655 76.2632 69.8952 76.2709 70.2172 76.2661C70.4696 75.9079 70.6977 75.65 70.9015 75.4923C71.1053 75.3346 71.3911 75.1644 71.7588 74.9817C72.0747 75.2056 72.4218 75.3647 72.8002 75.4589C73.1814 75.5305 73.51 75.7447 73.786 76.1013C73.774 76.3754 73.8257 76.6001 73.9411 76.7755C74.0593 76.9284 74.1889 77.0827 74.3298 77.2385C74.4735 77.3716 74.6158 77.5161 74.7567 77.6718C74.8976 77.8275 74.9748 78.0326 74.9882 78.2869C75.1012 78.3013 75.1719 78.2873 75.2002 78.245C75.2512 78.2056 75.3317 78.2044 75.4418 78.2414C75.4639 78.4279 75.4904 78.5806 75.5212 78.6993C75.552 78.818 75.5842 78.9255 75.6178 79.0216C75.6741 79.1206 75.7176 79.2295 75.7484 79.3483C75.8018 79.4699 75.841 79.6127 75.866 79.7766C75.7184 80.0333 75.5793 80.3141 75.4485 80.6189C75.3207 80.9011 75.114 81.0814 74.8284 81.1598C74.8054 81.3405 74.8602 81.4508 74.9929 81.4907C75.1284 81.508 75.1974 81.5972 75.1999 81.7582C75.1965 81.9645 75.141 82.1296 75.0333 82.2537C75.5305 83.3963 75.964 84.5883 76.3338 85.8295C76.7065 87.0481 77.1527 88.2302 77.6725 89.3757C77.587 89.6863 77.5579 90.0041 77.5853 90.329C77.6383 90.6343 77.7025 90.941 77.778 91.2491C77.8761 91.5602 77.9629 91.8698 78.0384 92.1779C78.1139 92.486 78.1555 92.7899 78.1632 93.0894C78.1594 93.4792 78.1061 93.8972 78.0032 94.3434C77.9033 94.7669 77.7596 95.1734 77.5721 95.5628C77.3847 95.9522 77.1549 96.3133 76.8829 96.646C76.6137 96.9561 76.3207 97.1827 76.0039 97.326C75.5847 97.7318 75.0853 98.047 74.5055 98.2715C73.9287 98.4735 73.3898 98.7377 72.8889 99.0642C72.5495 99.2046 72.1933 99.2969 71.8203 99.3412C71.4501 99.3629 71.0672 99.3944 70.6716 99.4358C70.3548 99.5791 69.9815 99.7151 69.5517 99.844C69.1248 99.9503 68.6881 100.044 68.2415 100.125C67.7949 100.205 67.3512 100.264 66.9104 100.299C66.4724 100.312 66.0869 100.275 65.7537 100.186C64.9028 100.376 64.0861 100.479 63.3034 100.494C62.5208 100.509 61.6242 100.337 60.6137 99.9783ZM62.628 87.6977C62.3358 88.1886 62.0041 88.6285 61.633 89.0174C61.2874 89.3866 60.9403 89.7672 60.5918 90.159C60.2433 90.5508 59.9244 90.9809 59.6351 91.4492C59.3712 91.8977 59.1861 92.4482 59.08 93.1005C59.4829 93.5423 59.9836 93.8473 60.5821 94.0155C61.2061 94.164 61.8486 94.2574 62.5096 94.2958C63.1735 94.3116 63.8403 94.3048 64.51 94.2754C65.1796 94.246 65.7743 94.2645 66.294 94.3308C66.3199 94.1274 66.4233 94.0373 66.604 94.0603C67.5645 94.091 68.4789 93.9436 69.3471 93.618C70.2181 93.2699 71.1231 92.9261 72.0619 92.5866C72.2095 92.3299 72.3866 92.1114 72.5933 91.9311C72.8 91.7508 72.9392 91.47 73.0107 91.0888C72.9237 90.871 72.8662 90.6915 72.8384 90.5501C72.833 90.4117 72.8477 90.2069 72.8823 89.9358C72.3986 89.0474 72.0026 88.1014 71.6944 87.0976C71.389 86.0713 71.0086 85.0928 70.5533 84.1621C70.4937 84.2693 70.3889 84.3708 70.2389 84.4664C70.0889 84.5621 69.945 84.5208 69.807 84.3425C69.7104 84.5598 69.5885 84.705 69.4414 84.778C69.2972 84.8285 69.1347 84.8422 68.954 84.8192C68.7958 84.799 68.6307 84.7435 68.4585 84.6527C68.309 84.5647 68.1737 84.4556 68.0525 84.3253C67.181 84.8571 66.3124 85.3663 65.4466 85.8529C64.6035 86.3423 63.8151 86.9421 63.0816 87.6522C62.9599 87.7056 62.8893 87.7196 62.8696 87.6941C62.8499 87.6686 62.7693 87.6698 62.628 87.6977ZM81.9727 103.047C81.7467 103.019 81.4008 102.94 80.935 102.812C80.6225 102.381 80.3611 101.82 80.151 101.127C79.9663 100.415 79.8425 99.6757 79.7794 98.9099C79.7419 98.1243 79.7706 97.3588 79.8657 96.6131C79.9863 95.8478 80.2084 95.1872 80.5319 94.6315C80.5347 94.6089 80.671 94.3507 80.9406 93.857C81.2329 93.3661 81.5989 92.7469 82.0387 91.9993C82.4814 91.2291 82.9794 90.3856 83.5326 89.4688C84.0887 88.5294 84.642 87.6126 85.1923 86.7184C85.7427 85.8242 86.2589 85.0175 86.741 84.2982C87.2486 83.5593 87.6766 82.9939 88.0251 82.6021C88.2688 82.3117 88.4885 82.0297 88.6841 81.7562C88.9024 81.4855 89.1064 81.236 89.2963 81.0076C89.5967 80.6326 89.8702 80.2886 90.1168 79.9756C90.3889 79.6429 90.6665 79.3569 90.9496 79.1174C91.2582 78.8583 91.5836 78.6472 91.9259 78.4842C92.2711 78.2986 92.6797 78.1556 93.1517 78.0551C93.4085 78.2026 93.6299 78.3571 93.8159 78.5187C94.0049 78.6576 94.1669 78.8275 94.302 79.0284L94.3431 79.5159C94.3682 79.6798 94.4215 79.8014 94.5033 79.8808C94.6105 79.9404 94.698 79.9745 94.7657 79.9831C95.0508 80.0884 95.2893 80.1992 95.4811 80.3155C95.6984 80.4121 95.9299 80.4875 96.1756 80.5418C96.2486 80.6889 96.3104 80.8346 96.3609 80.9788C96.434 81.1259 96.5085 81.2617 96.5845 81.3862C96.9528 82.0991 97.2449 82.7793 97.4608 83.4269C97.6767 84.0744 97.5917 84.7409 97.2057 85.4265L97.1921 85.8036C97.2849 85.9762 97.3226 86.1303 97.3053 86.2658C97.288 86.4014 97.241 86.5906 97.1641 86.8334C97.1184 87.0112 97.0699 87.2117 97.0185 87.4348C96.9925 87.6381 96.9976 87.8684 97.0337 88.1256L97.2363 88.427C97.5748 88.6539 97.9135 88.7889 98.2524 88.8322C98.7043 88.8898 99.124 88.84 99.5114 88.6828C99.8989 88.5255 100.264 88.3654 100.606 88.2024C100.878 88.0534 101.122 87.9353 101.34 87.8483C101.58 87.7641 101.805 87.7124 102.014 87.6932C102.546 87.3018 103.026 86.9612 103.453 86.6712C103.906 86.3616 104.37 86.0534 104.846 85.7467C105.743 85.1952 106.623 84.5956 107.486 83.948C108.353 83.2778 109.084 82.4066 109.68 81.3345C109.948 81.2081 110.241 81.165 110.557 81.2053C110.874 81.2457 111.181 81.3538 111.48 81.5298C111.782 81.6831 112.081 81.859 112.377 82.0575C112.439 82.1114 112.492 82.1525 112.534 82.1808C112.599 82.2121 112.662 82.2546 112.724 82.3084C112.693 82.557 112.765 82.7959 112.943 83.0252C113.044 83.13 113.116 83.1966 113.158 83.2249C113.201 83.2533 113.243 83.2816 113.285 83.31C113.452 83.446 113.586 83.5664 113.687 83.6712C113.811 83.7789 113.897 83.9161 113.945 84.0829C114.07 84.7189 114.348 85.2367 114.78 85.6361C114.703 85.8789 114.682 86.1289 114.719 86.3861C114.757 86.6207 114.808 86.8567 114.869 87.0942C114.903 87.1903 114.925 87.285 114.936 87.3783C114.95 87.449 114.973 87.5437 115.003 87.6624L114.266 87.4995L114.273 88.2581C114.292 88.6509 114.203 89.0758 114.007 89.533C113.834 89.9931 113.65 90.3486 113.458 90.5996C113.416 91.2832 113.37 91.8284 113.318 92.2351C113.269 92.6192 113.2 92.9778 113.112 93.311C113.023 93.6441 112.903 93.9617 112.749 94.2636C112.621 94.5458 112.457 94.8463 112.255 95.165C112.127 96.8937 111.723 98.4381 111.044 99.7982C110.388 101.161 109.699 102.428 108.975 103.599C108.887 103.748 108.801 103.886 108.716 104.013C108.63 104.14 108.557 104.269 108.494 104.398C108.237 104.434 108.001 104.485 107.786 104.549C107.571 104.614 107.366 104.691 107.171 104.781C106.902 104.907 106.636 105.011 106.374 105.092C106.113 105.151 105.848 105.163 105.577 105.128C104.593 104.199 104.203 102.76 104.405 100.811C104.631 98.8652 105.364 96.4444 106.606 93.5488C106.779 93.456 106.868 93.2952 106.874 93.0664L106.922 92.6936L106.587 92.6164C106.474 92.602 106.371 92.6004 106.278 92.6114C106.185 92.6225 106.104 92.7155 106.036 92.8905C105.246 93.318 104.386 93.7594 103.456 94.2147C102.55 94.6503 101.616 95.0477 100.651 95.4069C99.69 95.7435 98.7146 96.0095 97.7252 96.2048C96.7614 96.3803 95.8389 96.4119 94.9577 96.2995C92.6982 96.0113 91.1393 94.6413 90.2809 92.1896L90.0537 91.5407L89.6456 92.0397C89.5634 92.144 89.4103 92.3541 89.1863 92.67C88.9878 92.9661 88.7708 93.3173 88.5353 93.7236C88.3224 94.1327 88.1193 94.5546 87.9261 94.9892C87.7554 95.4267 87.6711 95.8178 87.6731 96.1624C87.3702 96.3764 87.0631 96.6242 86.7516 96.906C86.4627 97.1906 86.2358 97.5291 86.0709 97.9214C86.0113 98.0286 85.9856 98.1401 85.9938 98.256C86.0049 98.3492 86.0258 98.4552 86.0566 98.574C86.0138 98.7292 85.9542 98.8364 85.8778 98.8956C85.8014 98.9547 85.7136 99.0124 85.6146 99.0687C85.4872 99.1672 85.3584 99.2771 85.2281 99.3983C85.1007 99.4968 84.9818 99.6194 84.8712 99.766C84.8087 99.8959 84.7561 100.038 84.7133 100.194C84.6734 100.326 84.635 100.448 84.598 100.558C84.5663 100.806 84.5108 100.972 84.4315 101.053C84.145 101.499 83.8912 101.868 83.6701 102.162C83.4744 102.435 83.2875 102.641 83.1091 102.779C82.9308 102.917 82.7483 102.997 82.5618 103.019C82.395 103.067 82.1986 103.076 81.9727 103.047ZM114.492 98.5503C114.524 98.3017 114.587 98.0801 114.68 97.8854C114.774 97.6907 114.819 97.4323 114.814 97.1102C115.704 95.7083 116.671 94.4309 117.714 93.278C118.782 92.1054 119.999 91.1126 121.366 90.2995C121.589 90.1673 121.768 90.0293 121.901 89.8855C122.059 89.7221 122.205 89.5685 122.338 89.4247C122.494 89.2838 122.658 89.167 122.831 89.0742C123.006 88.9588 123.221 88.8944 123.476 88.8809C124.124 88.2977 124.878 87.7854 125.738 87.344C126.598 86.9026 127.489 86.4881 128.411 86.1006C129.333 85.713 130.257 85.3142 131.182 84.904C132.129 84.4967 132.992 84.0328 133.77 83.512C133.999 83.7019 134.183 83.7829 134.325 83.755C134.492 83.7074 134.651 83.7163 134.804 83.7816C134.952 84.2369 135.173 84.5751 135.466 84.7962C135.785 84.9976 136.102 85.2103 136.418 85.4343C136.76 85.6385 137.061 85.8837 137.323 86.1697C137.611 86.436 137.808 86.7826 137.914 87.2095C137.756 87.1893 137.67 87.2357 137.655 87.3487C137.663 87.4645 137.681 87.5931 137.709 87.7344C137.737 87.8758 137.744 88.0029 137.729 88.1159C137.715 88.2289 137.606 88.2724 137.403 88.2465C137.383 88.4046 137.452 88.4938 137.61 88.514C137.768 88.5341 137.837 88.6233 137.817 88.7815C137.799 88.917 137.751 89.0257 137.672 89.1074C137.618 89.1694 137.602 89.2937 137.624 89.4802C137.036 89.7726 136.381 90.045 135.66 90.2974C134.964 90.5302 134.221 90.7797 133.429 91.0462C132.66 91.3154 131.864 91.6157 131.041 91.947C130.243 92.2586 129.437 92.638 128.622 93.0852C127.808 93.5323 126.974 94.0345 126.122 94.5918C125.293 95.1519 124.481 95.7601 123.685 96.4164C122.893 97.0501 122.141 97.7234 121.43 98.4364C120.722 99.1268 120.106 99.8174 119.581 100.508C119.612 100.627 119.655 100.736 119.712 100.835C119.791 100.937 119.845 101.047 119.876 101.166C120.729 101.321 121.531 101.423 122.283 101.473C123.037 101.5 123.777 101.641 124.502 101.894C124.601 101.838 124.669 101.754 124.706 101.644C124.743 101.534 124.821 101.464 124.94 101.433C126.496 101.471 127.963 101.405 129.339 101.236C130.718 101.045 132.12 100.856 133.545 100.671C133.158 100.461 132.812 100.29 132.508 100.16C132.389 100.007 132.404 99.8937 132.551 99.8206C132.723 99.7278 132.862 99.6307 132.967 99.5292C132.631 99.2798 132.361 98.9697 132.156 98.5991C131.973 98.2313 131.894 97.7735 131.918 97.2254C132.093 97.11 132.192 96.9619 132.215 96.7812C132.238 96.6004 132.178 96.4435 132.034 96.3103C131.927 96.2507 131.859 96.2421 131.831 96.2844C131.803 96.3267 131.774 96.369 131.746 96.4113C131.74 96.4565 131.712 96.4988 131.661 96.5382C131.632 96.5805 131.576 96.5733 131.491 96.5166C131.546 96.271 131.628 96.0748 131.739 95.9282C131.849 95.7815 131.941 95.5981 132.015 95.3779L135.066 93.8727C135.331 94.1361 135.662 94.4195 136.06 94.7228C136.458 95.0261 136.878 95.3323 137.321 95.6414C137.763 95.9504 138.216 96.2722 138.679 96.6068C139.144 96.9187 139.575 97.2264 139.973 97.5297C140.357 97.7623 140.678 98.0329 140.937 98.3416C141.199 98.6276 141.447 98.9347 141.681 99.2631C141.917 99.5688 142.154 99.8745 142.39 100.18C142.627 100.486 142.926 100.754 143.287 100.983C143.195 101.339 143.181 101.636 143.242 101.873C143.304 102.111 143.292 102.385 143.206 102.695C142.679 103.409 142.076 103.998 141.396 104.462C140.72 104.904 139.973 105.268 139.156 105.554C138.361 105.843 137.517 106.068 136.624 106.23C135.734 106.369 134.821 106.505 133.886 106.638C132.953 106.749 132.006 106.881 131.045 107.034C130.11 107.167 129.18 107.347 128.255 107.574C127.871 107.525 127.542 107.494 127.268 107.482C126.994 107.47 126.73 107.471 126.476 107.484C126.221 107.498 125.967 107.511 125.713 107.525C125.458 107.538 125.183 107.538 124.886 107.523C124.776 107.486 124.694 107.498 124.64 107.56C124.609 107.625 124.557 107.676 124.483 107.712C124.023 107.723 123.612 107.705 123.25 107.658C122.889 107.612 122.584 107.573 122.335 107.542C122.019 107.501 121.685 107.505 121.335 107.552C120.984 107.599 120.664 107.593 120.373 107.532C118.351 107.183 116.85 106.256 115.871 104.754C114.891 103.251 114.497 101.306 114.686 98.9195C114.723 98.8094 114.709 98.7387 114.644 98.7075C114.582 98.6536 114.532 98.6012 114.492 98.5503Z" fill="#1D1D1D"/>
</svg>
