<svg width="1596" height="56" viewBox="0 0 1596 56" fill="none" xmlns="http://www.w3.org/2000/svg">
<path fill-rule="evenodd" clip-rule="evenodd" d="M0 25.9378V56H1596V11.1365C1568.26 3.8568 1539.29 0 1509.5 0C1487.91 0 1466.75 2.02611 1446.17 5.91311C1413.69 12.0501 1380.65 16.7221 1347.74 13.5918C1255.99 4.8639 1153.97 0 1046.5 0C925.705 0 811.805 6.14434 711.622 17.0133C695.069 18.8091 678.39 18.8462 661.802 17.4086C628.325 14.5074 593.988 13 559 13C497.066 13 437.171 17.7232 380.478 26.5402C326.142 34.9908 270.681 25.3135 217.515 11.272C189.619 3.90466 160.479 0 130.5 0C84.5417 0 40.5536 9.1768 0 25.9378Z" fill="#1C1C1C"/>
</svg>
