<svg width="189" height="221" viewBox="0 0 189 221" fill="none" xmlns="http://www.w3.org/2000/svg">
<path d="M149.35 124.477C139.306 130.5 131.981 141.71 127.358 151.907C122.067 163.567 119.908 176.592 120.809 189.345C114.615 172.894 106.233 154.081 91.0169 144.301C80.879 137.785 69.5559 141.313 62.1332 149.689C66.9769 140.494 70.2962 130.436 67.3623 120.024C64.3703 109.433 53.667 101.123 43.3139 97.7047C57.8036 99.2744 69.5527 88.5637 74.2216 75.2678C78.6134 62.7484 78.5082 47.8278 75.9465 34.3826C80.2893 46.8627 87.0729 59.8964 98.1483 66.7036C107.993 72.7517 121.887 71.0022 131.562 65.0185C129.536 68.8039 128.893 73.7257 128.317 77.6659C127.126 85.7547 127.044 94.1522 128.322 102.231C130.189 114.041 137.675 125.969 149.35 124.477V124.477ZM136.802 58.1901C123.653 60.9322 111.127 67.1171 98.5602 58.9261C93.1815 55.421 89.1418 50.0944 85.6102 44.8339C80.1109 36.6429 78.0627 26.3261 71.9387 18.5862C71.9086 18.5497 71.8626 18.5386 71.8169 18.5183C71.8013 18.4434 71.7819 18.3703 71.7641 18.3009C71.6714 17.9649 71.085 17.9068 71.0932 18.3175C71.4239 34.0286 73.243 49.6175 69.9898 65.1874C68.4025 72.7724 65.0675 80.128 59.4509 85.5602C52.8075 91.9942 43.744 93.5211 35.1053 95.5844C34.8391 95.6501 34.8238 95.9485 35.0175 96.0749C34.8541 96.2672 34.8117 96.546 35.0888 96.7257C45.524 103.668 56.6833 108.798 61.4776 121.269C65.7594 132.406 61.1778 145.603 56.8425 156.003C56.817 156.037 56.7878 156.073 56.7623 156.107C56.5523 156.398 56.9438 156.74 57.2158 156.526C67.7747 148.248 78.2663 142.992 90.3408 151.806C96.7509 156.484 101.62 163.253 105.933 169.808C112.154 179.262 117.768 189.277 123.126 199.24C123.131 199.311 123.132 199.383 123.14 199.452C123.188 199.94 123.964 199.913 123.999 199.428C124.937 185.292 126.98 171.144 131.777 157.749C134.355 150.563 138 143.873 142.48 137.699C147.461 130.832 154.008 126.127 160.367 120.705C160.797 120.338 160.36 119.734 159.869 119.906C159.848 119.911 159.829 119.919 159.806 119.929C152.741 120.73 145.631 120.636 140.578 114.952C136.152 109.969 134.748 102.758 133.996 96.3536C132.525 83.818 134.213 71.0097 137.626 58.9239C137.792 58.3343 137.257 57.9979 136.802 58.1901" fill="white"/>
<path d="M85.4273 167.149C86.1982 164.846 82.6832 163.508 81.9025 165.819C78.0748 177.109 72.7249 187.812 68.4491 198.927C68.2714 199.39 68.9441 199.759 69.2223 199.337C75.8837 189.289 81.5934 178.596 85.4273 167.149Z" fill="white"/>
<path d="M88.14 169.187C87.7619 176.093 86.3938 182.914 86.2324 189.836C86.2283 190.179 86.7324 190.347 86.8526 189.979C89.024 183.323 91.1505 176.577 91.5095 169.539C91.622 167.361 88.2583 167.002 88.14 169.187Z" fill="white"/>
<path d="M73.4655 163.625C66.9617 166.421 62.4049 171.72 57.3153 176.445C57.0574 176.68 57.3158 177.151 57.6492 176.982C63.6477 173.954 68.6157 169.252 74.8198 166.619C76.7721 165.791 75.4106 162.791 73.4655 163.625" fill="white"/>
<path d="M144.745 151.583C142.412 150.917 141.345 153.954 143.442 155.046C148.514 157.692 153.17 160.978 158.157 163.768C158.457 163.937 158.986 163.657 158.751 163.28C155.519 158.108 150.768 153.312 144.745 151.583Z" fill="white"/>
<path d="M153.338 146.23C151.309 145.85 148.78 145.072 146.79 145.859C145.331 146.437 145.746 148.262 146.887 148.861C148.545 149.728 151.105 149.64 152.959 149.881C155.272 150.182 157.309 149.744 159.529 149.286C159.986 149.188 160.126 148.492 159.627 148.335C157.512 147.666 155.562 146.645 153.338 146.23Z" fill="white"/>
<path d="M134.696 170.737C135.579 173.384 137.815 175.278 139.51 177.384C139.794 177.739 140.413 177.468 140.327 177.015C139.808 174.226 139.365 171.234 137.667 168.879C136.412 167.142 134.109 168.976 134.696 170.737Z" fill="white"/>
<path d="M141.936 100.404C144.36 100.177 146.635 100.163 148.728 98.7795C148.963 98.6233 148.998 98.1977 148.799 98.0006C146.845 96.0658 143.867 96.6296 141.393 96.9698C139.155 97.2765 139.727 100.615 141.936 100.404" fill="white"/>
<path d="M146.926 83.711C145.909 84.5944 144.707 85.1474 143.569 85.8441C142.337 86.6021 141.102 87.3656 139.876 88.1294C138.065 89.2585 139.397 92.3352 141.267 91.2027C144.29 89.3705 146.474 87.5948 147.403 84.0508C147.475 83.7769 147.174 83.4941 146.926 83.711Z" fill="white"/>
<path d="M49.5767 128.201C51.0864 128.055 54.8942 128.027 55.7245 126.49C56.1066 125.784 56.0417 125.067 55.3937 124.54C54.1031 123.489 51.1315 124.651 49.6685 124.931C47.3262 125.38 44.9515 126.281 42.5801 126.475C42.2689 126.502 42.2902 126.911 42.5235 127.024C44.7558 128.114 47.1146 128.436 49.5767 128.201" fill="white"/>
<path d="M57.5488 74.2948C48.7434 65.9325 39.2002 57.731 28.7652 51.4538C28.4061 51.2337 27.9245 51.6792 28.2419 52.0184C36.4049 60.8533 45.9097 68.4666 54.651 76.7075C56.3941 78.3462 59.3182 75.9717 57.5488 74.2948Z" fill="white"/>
<path d="M104.868 50.7318C107.719 44.7612 110.429 38.995 112.076 32.5488C112.194 32.0947 111.552 31.6427 111.289 32.1263C108.131 38.0218 104.103 43.2818 101.228 49.3591C100.152 51.631 103.793 52.9758 104.868 50.7318" fill="white"/>
<path d="M96.6132 44.2516C97.3888 40.1575 97.8197 36.0464 98.1093 31.8945C98.148 31.376 97.3803 31.1587 97.2097 31.6775C95.8696 35.7719 93.6052 39.5648 92.9384 43.8692C92.5711 46.2484 96.178 46.5613 96.6132 44.2516Z" fill="white"/>
<path d="M111.484 52.6844C110.001 54.2664 112.14 56.9232 113.673 55.319C115.122 53.7988 116.984 52.7515 118.617 51.4483C120.22 50.1718 121.674 48.6537 122.987 47.0855C123.247 46.7763 122.831 46.2679 122.476 46.4695C118.747 48.5844 114.528 49.4362 111.484 52.6844" fill="white"/>
<path d="M60.3009 61.6654C59.932 57.5882 55.9431 54.7294 53.5949 51.6523C53.3229 51.2926 52.7457 51.6675 52.9287 52.072C53.7574 53.8738 54.5029 55.7133 55.3127 57.5237C56.0729 59.2245 57.0037 60.7889 57.821 62.4046C58.5022 63.7495 60.4352 63.1301 60.3009 61.6654" fill="white"/>
<path d="M39.706 84.2914C41.4537 84.8533 44.5578 86.0176 46.3337 85.1414C47.4242 84.6026 47.4727 83.2601 46.5881 82.5127C45.4427 81.5508 42.9191 81.5995 41.4783 81.4042C39.0972 81.0832 36.8017 81.0923 34.4815 80.3522C34.1497 80.2428 33.741 80.6782 34.0474 80.963C35.5934 82.4177 37.685 83.6391 39.706 84.2914Z" fill="white"/>
</svg>
