<svg width="123" height="128" viewBox="0 0 123 128" fill="none" xmlns="http://www.w3.org/2000/svg">
<path d="M4.37523 59.888C4.29447 59.9449 4.21446 60.0056 4.13331 60.0625C4.09881 60.0663 4.0643 60.07 4.02866 60.0738C4.14431 60.0131 4.26072 59.9525 4.37523 59.888ZM22.5859 40.8492C25.3293 32.6209 24.4481 21.9847 19.915 14.1735C26.7581 20.7941 36.7352 25.4126 45.96 24.6884C56.8331 23.8352 66.6164 15.5955 73.2294 7.03733C67.3592 18.5304 67.5981 33.5158 79.3369 40.9288C88.2894 46.5825 100.177 47.7428 111.019 47.8869C100.853 49.9079 91.602 57.3058 88.076 66.9332C84.8104 75.8517 85.9154 87.3941 90.6146 95.8537C82.4424 88.4558 71.2762 84.4933 60.1092 86.2299C47.4509 88.2017 39.3459 97.9505 36.0606 109.44C36.0292 108.848 35.9935 108.268 35.9579 107.699C35.5237 100.787 34.3475 93.7719 31.9203 87.2651C30.2693 82.8439 27.535 77.96 22.5829 76.7997C20.4303 76.2991 18.2886 76.9361 16.3453 77.831C14.3466 78.7486 12.3313 80.0493 10.4016 81.5205C13.0036 78.1496 15.0606 74.3577 16.0905 70.3346C17.4935 64.8516 12.9019 58.8604 7.63281 59.1524C14.7573 55.1331 19.9169 48.8575 22.5859 40.8492ZM122.786 46.9085C110.697 43.8144 97.6136 44.2808 86.0913 39.0936C80.5071 36.5834 76.1631 32.4388 74.3692 26.497C71.7316 17.7568 75.6528 9.17213 77.4175 0.742874C77.4213 0.723915 77.4103 0.712509 77.4103 0.69355C77.4478 0.640465 77.4884 0.58741 77.5248 0.534317C77.7857 0.158928 77.2457 -0.155807 76.9412 0.0830765C67.5587 7.48096 58.5273 17.8289 46.0233 19.4783C33.6771 21.1088 24.712 12.2284 14.6902 6.86292C14.5905 6.75295 14.5006 6.63538 14.399 6.52921C14.1817 6.3017 13.7798 6.53298 13.8708 6.83633C15.488 12.1677 17.9034 17.1199 19.0409 22.6142C20.1398 27.9152 19.7955 33.3982 18.4081 38.6044C15.888 48.0537 8.56294 55.8914 0.545854 61.1014C0.282321 61.2721 0.452193 61.7688 0.771087 61.6361C0.809385 61.6171 0.844272 61.5981 0.88257 61.583C3.73745 63.331 7.92705 62.5992 10.1066 65.5682C12.0093 68.1656 10.1627 72.4542 9.02631 74.9682C6.56768 80.4095 3.15199 85.4185 0.0563259 90.4995C-0.146158 90.8332 0.240609 91.0949 0.530306 90.947C0.626998 91.0039 0.742651 91.0342 0.86892 90.9773C5.62654 88.778 9.87644 85.7939 14.3072 83.0221C16.4538 81.6797 19.1247 80.9175 21.5265 82.0096C26.2079 84.1368 28.1038 91.0304 29.351 95.482C32.1789 105.58 32.6658 116.174 33.6642 126.549C33.6642 126.723 33.6494 126.901 33.6502 127.079C33.6532 127.542 34.3357 127.637 34.4571 127.189C38.6015 111.867 44.3029 94.4431 62.417 92.1187C73.3086 90.7195 86.7902 95.2887 95.5065 101.868C95.9429 102.194 96.4218 101.503 96.0714 101.132C96.0297 101.09 95.9846 101.048 95.9429 101.007C93.4191 91.0645 90.4834 81.1792 92.8939 70.8882C94.1634 65.4696 97.19 60.7564 101.248 57.0062C107.248 51.4664 114.888 50.2302 122.225 47.5001C122.384 47.4963 122.548 47.5001 122.706 47.4963C123.042 47.4963 123.118 46.992 122.786 46.9085Z" fill="white"/>
<path d="M86.0227 29.5114C86.0337 29.5379 86.0447 29.5607 86.0553 29.5872C92.4761 26.1973 98.62 22.2272 104.217 17.586C104.494 17.3547 104.139 16.9377 103.844 17.1007C99.9066 19.2772 95.8273 21.139 91.8508 23.2321C90.2798 24.0587 84.2743 26.3717 84.3384 28.6013C84.3691 29.6517 85.3535 29.9095 86.0227 29.5114Z" fill="white"/>
<path d="M90.0381 31.1002C88.7534 31.2747 89.0556 33.5233 90.3452 33.3678C93.8094 32.9507 96.9502 31.7145 100.106 30.266C100.387 30.1371 100.239 29.7049 99.9553 29.7087C96.6067 29.7466 93.3374 30.6452 90.0381 31.1002Z" fill="white"/>
<path d="M47.074 13.8285C47.0285 9.5248 45.6502 5.6344 43.9644 1.72502C43.7907 1.32308 43.1044 1.52406 43.14 1.94875C43.4828 6.04015 44.1096 10.0898 44.6844 14.1508C44.8801 15.5349 47.0877 15.1671 47.074 13.8285Z" fill="white"/>
<path d="M6.825 38.7748C8.41264 39.7986 10.2009 40.5418 11.8511 41.4632C13.2761 42.2557 14.5429 40.0906 13.1267 39.2791C9.61465 37.2733 5.93239 35.7603 2.30057 34.0046C1.95361 33.8378 1.58846 34.2587 1.87892 34.5507C3.43888 36.1243 4.95562 37.5728 6.825 38.7748Z" fill="white"/>
<path d="M19.715 90.3137C17.7231 91.2541 16.7475 94.3975 15.8166 96.2669C14.5843 98.743 13.6481 101.405 12.6754 103.987C12.534 104.359 13.08 104.529 13.2818 104.241C14.8379 102.008 16.2853 99.6986 17.6757 97.3552C18.7424 95.5617 20.807 93.0629 20.7843 90.928C20.7786 90.3555 20.1939 90.09 19.715 90.3137Z" fill="white"/>
<path d="M58.2073 97.461C57.6176 97.1387 56.7876 97.5369 56.8172 98.2611C56.8919 100.108 58.3248 101.825 59.1988 103.422C60.3906 105.598 61.8262 107.623 63.0703 109.769C63.2265 110.039 63.6323 109.857 63.5613 109.565C62.9994 107.244 62.6449 104.859 61.6753 102.66C60.8991 100.9 59.9511 98.4165 58.2073 97.461Z" fill="white"/>
<path d="M110.91 73.4357C109.01 72.666 107.045 72.0441 105.034 71.6384C103.348 71.3009 100.495 70.1596 99.0571 71.3919C98.7329 71.6687 98.7181 72.1806 98.9096 72.5295C99.8022 74.1676 103.188 74.0918 104.839 74.3193C106.77 74.5847 109.039 74.7136 110.91 74.0462C111.22 73.9325 111.201 73.5533 110.91 73.4357Z" fill="white"/>
<path d="M101.687 66.2277C101.714 66.2353 101.732 66.2618 101.76 66.2694C102.126 66.3717 102.475 66.2277 102.827 66.1481C103.612 65.9698 104.416 65.7006 105.18 65.4466C106.757 64.9233 108.448 64.1005 109.751 63.0577C109.98 62.8757 109.727 62.5647 109.49 62.6102C106.87 63.1449 103.858 62.7809 101.496 64.2559C101.181 64.4531 100.927 64.8209 100.952 65.2077C100.968 65.1318 100.985 65.0522 101.002 64.9764C100.71 65.4541 101.066 66.2732 101.687 66.2277Z" fill="white"/>
<path d="M81.0564 21.6316C81.6438 20.3689 82.2759 19.1289 82.7123 17.8018C83.1666 16.4254 83.9428 15.03 84.0948 13.5739C84.1233 13.3009 83.7293 13.1568 83.5556 13.3539C82.6391 14.3777 81.9558 15.6328 81.144 16.7439C80.2575 17.9572 79.3895 19.2882 78.9736 20.7518C78.6293 21.9728 80.5024 22.8222 81.0564 21.6316Z" fill="white"/>
<path d="M52.8762 12.2512C54.8028 10.4236 54.9768 6.95404 55.0538 4.47418C55.0637 4.14808 54.5472 3.97367 54.4058 4.29977C53.3926 6.63554 52.1534 8.92955 51.2263 11.2919C50.8441 12.2664 52.2137 12.8807 52.8762 12.2512Z" fill="white"/>
<path d="M36.5756 13.5781C37.6973 14.5033 39.3168 12.9031 38.1841 11.9703C36.3208 10.4308 34.3597 9.11511 32.3276 7.81072C32.1301 7.68179 31.8745 7.93585 32.0038 8.13302C33.2934 10.1162 34.7468 12.0689 36.5756 13.5781Z" fill="white"/>
<path d="M12.3276 34.5586C13.0594 35.1843 14.5504 34.6079 14.123 33.5158C13.1641 31.0549 10.8829 28.9504 8.92215 27.2555C8.64041 27.0128 8.28019 27.3124 8.42617 27.6385C9.44921 29.9288 10.3737 32.8864 12.3276 34.5586Z" fill="white"/>
<path d="M0.694006 74.551C2.84474 73.8647 4.58178 72.3328 6.52131 71.2293C7.85793 70.471 6.6563 68.4082 5.31626 69.1703C3.22696 70.3572 1.58585 72.0332 0.337571 74.0846C0.196515 74.3196 0.428577 74.6344 0.694006 74.551Z" fill="white"/>
<path d="M22.9215 94.4121C22.8047 95.4397 22.7959 96.4938 22.7307 97.529C22.6579 98.6855 22.5809 99.9823 22.8028 101.124C22.8551 101.389 23.262 101.438 23.3806 101.199C23.9168 100.134 24.3878 98.9358 24.765 97.8058C25.159 96.6227 25.6072 95.341 25.3289 94.0859C25.0051 92.6299 23.0655 93.1342 22.9215 94.4121Z" fill="white"/>
<path d="M52.8039 101.166C52.4346 100.942 52.0319 101.109 51.7987 101.427C51.1025 102.375 51.5598 103.835 51.6595 104.942C51.7968 106.467 51.9902 107.979 52.4111 109.458C52.4892 109.731 52.879 109.728 52.9601 109.458C53.4023 107.979 53.7242 106.485 53.8288 104.942C53.9149 103.691 53.9889 101.882 52.8039 101.166Z" fill="white"/>
<path d="M67.9119 96.0279C66.6966 95.2164 65.6152 97.1426 66.7804 97.9655C68.3722 99.0917 69.6114 100.354 71.5509 100.87C71.86 100.953 72.078 100.627 71.9438 100.358C70.9951 98.466 69.6668 97.1957 67.9119 96.0279Z" fill="white"/>
<path d="M7.6666 46.7107C5.65313 47.196 3.72081 47.8293 1.94547 48.9137C1.63454 49.1033 1.7756 49.5546 2.12521 49.5735C4.21261 49.6835 6.20522 49.2208 8.21187 48.6938C9.49465 48.3563 8.95241 46.3998 7.6666 46.7107Z" fill="white"/>
</svg>
