<svg width="1393" height="492" viewBox="0 0 1393 492" fill="none" xmlns="http://www.w3.org/2000/svg">
<path opacity="0.4" d="M60.6198 102.829C60.6198 105.495 58.4664 107.657 55.8099 107.657C53.1534 107.657 51 105.495 51 102.829C51 100.162 53.1534 98.0001 55.8099 98.0001C58.4664 98.0001 60.6198 100.162 60.6198 102.829Z" stroke="white" stroke-width="1.96148" stroke-miterlimit="10"/>
<path opacity="0.4" d="M14.9337 483.88C14.9337 487.469 12.0424 490.372 8.46683 490.372C4.898 490.372 2 487.469 2 483.88C2 480.29 4.898 477.381 8.46683 477.381C12.0424 477.381 14.9337 480.29 14.9337 483.88Z" stroke="white" stroke-width="2.63786" stroke-miterlimit="10"/>
<path opacity="0.4" d="M61.0899 468.121C61.0899 470.397 59.2518 472.243 56.9844 472.243C54.7237 472.243 52.8789 470.397 52.8789 468.121C52.8789 465.845 54.7237 464 56.9844 464C59.2518 464 61.0899 465.845 61.0899 468.121Z" stroke="white" stroke-width="1.67303" stroke-miterlimit="10"/>
<path opacity="0.4" d="M1166.48 97.5588C1166.48 101.142 1163.59 104.051 1160.02 104.051C1156.44 104.051 1153.55 101.142 1153.55 97.5588C1153.55 93.9762 1156.44 91.0602 1160.02 91.0602C1163.59 91.0602 1166.48 93.9762 1166.48 97.5588Z" stroke="white" stroke-width="2.63786" stroke-miterlimit="10"/>
<path opacity="0.4" d="M1070.25 108.347C1070.25 111.936 1067.35 114.839 1063.78 114.839C1060.21 114.839 1057.32 111.936 1057.32 108.347C1057.32 104.764 1060.21 101.855 1063.78 101.855C1067.35 101.855 1070.25 104.764 1070.25 108.347Z" stroke="white" stroke-width="2.63786" stroke-miterlimit="10"/>
<path opacity="0.4" d="M1044.62 48.8287C1044.62 51.4955 1042.46 53.6572 1039.81 53.6572C1037.15 53.6572 1035 51.4955 1035 48.8287C1035 46.1619 1037.15 44.0001 1039.81 44.0001C1042.46 44.0001 1044.62 46.1619 1044.62 48.8287Z" stroke="white" stroke-width="1.96148" stroke-miterlimit="10"/>
<path opacity="0.4" d="M1370.94 304.492C1370.94 308.075 1368.04 310.984 1364.47 310.984C1360.9 310.984 1358 308.075 1358 304.492C1358 300.903 1360.9 298 1364.47 298C1368.04 298 1370.94 300.903 1370.94 304.492Z" stroke="white" stroke-width="2.63786" stroke-miterlimit="10"/>
<path opacity="0.4" d="M1240.01 382.499C1240.01 386.081 1237.11 388.991 1233.54 388.991C1229.97 388.991 1227.08 386.081 1227.08 382.499C1227.08 378.909 1229.97 376 1233.54 376C1237.11 376 1240.01 378.909 1240.01 382.499Z" stroke="white" stroke-width="2.63786" stroke-miterlimit="10"/>
<g opacity="0.4">
<path d="M236.981 131.269C233.586 134.825 229.575 137.599 225.576 140.387C222.45 142.556 219.526 144.96 216.802 147.607C213.978 150.341 212.079 153.533 212.052 157.809C210.758 156.604 209.691 155.418 208.437 154.489C203.942 151.149 198.723 150.738 193.37 150.853C189.043 150.947 184.756 151.587 180.409 151.169C168.73 150.044 161.264 143.377 156.709 133.027C150.913 119.834 154.649 106.992 166.778 97.5365C171.474 93.8797 176.539 90.6944 180.758 86.4248C183.73 83.4145 186.071 80.1281 186.038 75.4208C191.485 79.2931 197.616 79.2594 203.687 79.5288C212.696 79.9261 221.491 81.4211 229.38 86.0072C237.148 90.5193 242.83 96.991 244.843 105.988C247.043 115.82 243.776 124.144 236.981 131.269ZM184.501 62.7669C184.153 63.9926 184.092 65.299 183.817 67.0971C182.455 63.0363 180.04 59.8779 180.174 55.7228C180.309 51.3185 180.188 46.9007 180.154 42.4897C180.148 41.4998 180.047 40.5031 179.852 39.5064C178.249 43.7221 178.229 48.0994 178.296 52.5576C176.874 49.9985 176.056 47.2307 175.217 44.4831C174.345 41.6412 173.681 38.7252 172.976 35.8361C172.279 32.9404 171.621 30.0311 170.997 27.1151C170.367 24.2193 169.797 21.3101 168.965 18.4278V22.1654C169.629 28.0041 169.347 33.9573 171.34 39.6411L170.85 39.8835C168.945 37.8497 167.046 35.8159 164.933 33.5532C166.121 37.3851 168.046 40.3482 171.105 42.5099C171.662 42.9005 172.158 43.2574 172.4 43.9847C175.318 52.8539 178.571 61.5682 183.723 69.4542C173.755 61.4807 164.175 53.2445 162.223 39.4996C161.27 32.7989 162.116 26.4013 165.664 20.5154C166.429 18.6163 167.67 17.0136 168.777 15.3232C169.22 14.6431 169.528 14.6565 169.978 15.2088C170.239 15.5185 170.521 15.8216 170.729 16.165C176.076 25.1958 181.637 34.1593 184.166 44.4966C185.642 50.4969 186.252 56.6386 184.501 62.7669ZM198.75 43.1766C204.539 38.2605 211.382 35.4456 217.862 34.5836C222.008 34.5499 222.048 34.624 221.498 37.6275C220.659 42.2338 218.446 46.1801 215.507 49.6888C207.853 58.8475 198.736 65.9792 187.252 69.7303C185.541 70.2892 184.783 69.7303 185.065 67.8581C186.574 57.9384 191.156 49.6349 198.75 43.1766ZM232.56 84.7142C225.939 80.0608 218.157 78.3705 210.268 77.2256C205.103 76.4781 199.863 76.8081 194.698 76.0269C190.854 75.441 187.668 73.6093 186.641 71.1782C188.815 71.7371 190.868 71.2186 192.773 70.3364C204.244 65.0027 213.857 57.4064 220.686 46.5909C222.88 43.1227 224.235 39.2909 224.221 35.0684C224.221 33.4858 223.483 32.7047 222.021 32.4016C219.586 31.9033 217.171 32.0447 214.783 32.6643C203.566 35.5735 194.483 41.4122 188.634 51.8707C188.271 49.7494 188.204 47.6684 187.762 45.6279C185.387 34.7586 179.832 25.5325 173.131 16.8923C172.339 15.8822 171.293 15.1279 170.239 14.367C169.488 13.8215 169.032 13.9494 168.388 14.3265C165.892 15.7677 164.182 17.9227 162.921 20.4548C158.386 29.5597 158.647 38.8262 162.391 48.0523C166.496 58.1471 174.13 65.1172 183.106 70.8078C183.435 71.0165 183.804 71.0637 184.005 71.5216C185.233 74.2154 185.313 76.8552 183.877 79.5153C182.932 81.2595 181.691 82.768 180.315 84.189C175.807 88.8559 170.246 92.1827 165.222 96.1829C155.622 103.826 150.416 113.484 152.429 126.009C154.75 140.509 165.396 155.351 186.219 154.004C188.915 153.829 191.619 153.715 194.329 153.614C200.984 153.364 206.773 155.136 210.811 160.894C211.502 161.883 212.428 162.584 213.595 163.19C213.595 162.254 213.642 161.513 213.589 160.779C213.2 155.641 215.125 151.533 218.962 148.199C221.679 145.842 224.456 143.579 227.441 141.573C230.655 139.424 233.828 137.222 236.665 134.589C243.32 128.434 247.955 121.201 248.029 111.786C248.13 99.7858 241.864 91.2399 232.56 84.7142Z" fill="white"/>
<path d="M166.878 127.007C167.106 121.175 169.333 116.077 172.251 111.201C174.518 107.43 177.343 104.009 179.302 100.036C180.522 97.5641 181.441 95.0387 180.912 92.1968C180.368 94.7222 179.288 96.9647 177.92 99.0658C176.511 101.221 175.122 103.396 173.626 105.49C170.943 109.255 168.454 113.127 166.77 117.457C163.477 125.909 163.899 133.936 169.635 141.284C173.063 145.674 176.565 147.035 182.186 146.227C181.864 146.112 181.623 145.971 181.374 145.944C173.599 145.311 166.556 135.081 166.878 127.007Z" fill="white"/>
<path d="M195.685 102.171C195.115 96.0221 194.203 89.9275 191.043 84.439C192.063 87.9476 192.928 91.4764 193.431 95.0995C194.471 102.413 194.357 109.848 195.813 117.128C197.812 127.169 200.77 136.832 206.425 145.486C207.633 147.331 209.27 148.766 211.235 150.544C210.168 148.409 209.424 146.671 208.471 145.055C200.683 131.815 197.08 117.336 195.685 102.171Z" fill="white"/>
<path d="M230.4 102.264C226.57 98.7087 222.015 96.3854 217.252 94.3785C213.267 92.7017 209.242 91.0854 205.821 88.3311C204.278 87.0919 202.815 85.7653 201.125 84.3174C201.38 85.4218 201.97 85.9875 202.453 86.6071C205.68 90.742 210.047 93.2337 214.723 95.3214C219.231 97.3349 223.705 99.4361 227.556 102.621C232.473 106.689 234.72 111.767 233.694 118.245C233.11 121.922 232.124 125.505 231.38 129.148C231.541 129.195 231.708 129.249 231.869 129.31C232.956 126.852 234.231 124.454 235.096 121.922C237.665 114.42 236.33 107.76 230.4 102.264Z" fill="white"/>
<path d="M172.891 133.471C173.172 138.266 179.351 144.024 184.026 143.802C179.948 140.556 175.574 138.212 172.891 133.471Z" fill="white"/>
<path d="M237.972 121.417C241.34 118.246 241.044 111.733 237.422 108.306C239.267 112.515 238.374 116.879 237.972 121.417Z" fill="white"/>
<path d="M181.453 132.859C182.573 138.267 186.686 142.193 191.16 141.789C187.162 139.297 183.861 136.563 181.453 132.859Z" fill="white"/>
<path d="M197.412 139.539C195.071 136.199 192.757 132.899 190.141 129.168C190.516 134.239 194.058 139.088 197.412 139.539Z" fill="white"/>
<path d="M212.789 123.162C213.272 124.764 213.722 126.037 214.037 127.344C214.352 128.657 214.533 130.004 214.775 131.33C214.895 131.997 215.016 132.664 215.177 133.317C215.264 133.661 215.513 133.97 215.888 133.889C216.083 133.842 216.284 133.539 216.371 133.317C217.458 130.455 215.674 125.182 212.789 123.162Z" fill="white"/>
<path d="M221.855 128.913C221.902 129.364 222.016 129.963 222.566 129.977C223.123 129.997 223.25 129.398 223.297 128.947C223.405 127.943 223.472 126.933 223.492 125.923C223.546 123.505 222.928 121.343 220.809 119.316C221.184 122.805 221.5 125.862 221.855 128.913Z" fill="white"/>
<path d="M241.242 107.181C242.121 111.511 241.705 115.834 241.195 120.501C244.087 115.895 244.073 110.938 241.242 107.181Z" fill="white"/>
<path d="M205.461 125.451C207.205 128.697 206.863 132.819 209.741 136.038C210.19 132.697 207.977 127.128 205.461 125.451Z" fill="white"/>
<path d="M227.469 125.074C230.441 121.929 230.997 117.289 228.797 113.356C228.71 117.262 228.341 121.121 227.469 125.074Z" fill="white"/>
<path d="M164.207 137.229C164.455 141.351 168.306 145.048 172.237 145.23C169.245 142.832 166.521 140.617 164.207 137.229Z" fill="white"/>
<path d="M200.185 51.9518C201.392 50.7059 202.6 50.4568 204.143 50.7396C205.605 51.009 207.074 51.211 208.886 51.5006C207.202 49.4735 205.062 49.7497 203.049 49.3254C206.37 46.2343 209.51 43.3183 212.642 40.4023C206.766 42.7863 201.936 46.6114 197.247 50.9012C198.669 48.7126 200.084 46.5306 201.795 43.9042C199.642 44.9009 198.488 46.1535 197.689 47.6553C194.946 52.8475 191.934 57.8578 188.553 62.6662C187.258 64.5047 186.057 66.5183 185.574 69.2861C186.238 68.4375 186.668 67.9527 187.037 67.4274C190.961 61.8715 195.456 56.8208 200.185 51.9518Z" fill="white"/>
</g>
<g opacity="0.4">
<path d="M45.8685 308.939C48.5653 310.656 51.3425 311.383 54.2741 311.538C55.3474 311.592 55.703 311.949 55.1864 312.892C54.7437 313.7 54.254 314.488 53.7039 315.222C51.3224 318.414 49.0818 321.674 48.0353 325.573C47.5389 327.411 47.4584 329.203 48.6659 331.169C50.4235 326.495 51.8524 321.876 54.4552 317.505C54.4552 319.68 54.4015 321.606 54.4686 323.525C54.5424 325.566 55.1931 327.452 56.3738 329.559C57.2056 325.465 56.7897 321.687 56.8098 317.936C56.8165 316.01 55.9713 313.606 57.0983 312.299C58.1515 311.08 60.5866 312.218 62.418 312.117C69.0794 311.754 75.6133 310.649 82.0399 308.885C82.8315 308.663 83.6499 308.488 84.7299 308.232C84.428 311.969 83.0126 315.761 86.6083 318.953C86.4204 315.619 86.2594 312.562 86.0582 309.511C85.9844 308.38 86.1789 307.747 87.534 307.397C93.3099 305.915 98.8912 303.821 104.379 301.531C107.142 300.373 109.276 301.127 111.302 302.871C113.16 304.467 114.589 306.508 116.957 308.09C116.434 305.848 114.669 304.777 113.375 302.797C116.527 303.659 119.238 304.4 121.948 305.141C118.849 301.612 114.964 299.78 109.792 299.571C114.696 296.777 119.539 295.12 123.819 292.379C125.845 291.073 127.724 289.638 129.025 287.672C129.837 286.446 130.749 286.183 131.983 286.507C134.224 287.093 136.532 287.14 138.813 287.423C143.783 288.042 147.453 290.493 149.19 295.214C150.841 299.699 148.372 302.959 143.535 302.864C139.879 302.79 136.961 300.797 133.882 299.187C132.319 298.373 130.809 296.238 128.924 297.564C127.066 298.878 128.213 301.12 128.462 302.979C128.555 303.726 128.777 304.454 128.904 305.201C129.897 311.026 128.072 313.256 122.042 313.74C116.501 314.185 111.416 312.69 106.492 310.407C105.184 309.801 103.902 309.107 102.541 308.643C98.5155 307.262 95.423 308.723 94.0277 312.636C92.7933 316.084 92.6793 319.721 92.3036 323.31C92.1426 324.906 92.5854 327.128 90.5729 327.647C88.453 328.199 86.6083 326.819 85.2934 325.209C84.3408 324.058 83.7773 322.596 82.9992 321.296C80.7787 317.593 78.4778 317.007 74.7278 319.256C71.8633 320.98 69.4819 323.263 67.3084 325.768C64.142 329.398 61.1702 333.196 57.5209 336.388C56.3134 337.445 55.0522 338.469 53.6905 339.324C47.5523 343.183 42.018 340.388 41.5551 333.149C41.2532 328.442 41.488 323.754 42.8833 319.175C43.8896 315.882 44.8153 312.562 45.8685 308.939ZM44.4464 292.419C55.0455 294.797 65.2623 292.541 75.3986 289.934C89.191 286.392 102.634 281.894 115.058 274.829C116.903 273.779 118.634 272.58 120.512 270.91C121.163 273.96 121.632 276.755 122.686 279.382C123.142 280.513 121.975 280.809 121.411 281.287C113.683 287.786 104.842 292.399 95.47 296.137C84.8775 300.353 73.8758 302.75 62.4918 303.551C60.4793 303.699 58.4802 303.982 58.2119 301.14C58.1716 300.763 57.8496 300.366 57.266 300.474C56.8367 300.777 57.0513 301.174 57.1587 301.565C57.3398 302.211 58.1917 303.1 57.4471 303.464C56.2128 304.083 56.0518 302.716 55.5822 301.982C55.1797 301.329 55.059 300.103 53.9856 300.433C53.0867 300.716 53.8649 301.592 53.9118 302.198C53.9387 302.514 54.1265 302.918 53.6972 303.06C53.1538 303.242 52.6574 302.986 52.4159 302.508C51.9127 301.538 51.5371 300.501 51.0205 299.544C50.3698 298.339 49.8466 297.006 48.1225 295.948C48.9275 298.198 49.5715 299.975 50.2155 301.773C47.7133 301.316 45.9826 298.501 44.4464 292.419ZM53.4355 284.372C50.7052 285.422 47.975 286.48 44.7617 287.712C46.5192 285.173 48.6257 283.786 50.7388 282.479C64.88 273.765 80.2353 268.432 96.8385 266.701C103.091 266.048 109.363 265.152 115.669 266.176C116.34 266.29 117.004 266.465 117.654 266.64C119.204 267.044 119.278 267.953 118.419 269.071C117.426 270.364 116.051 271.226 114.663 272.048C102.004 279.577 88.1109 284.062 73.9966 288.002C72.0445 288.547 70.0588 288.965 68.0865 289.443C71.226 287.503 74.8284 286.392 78.3905 283.779C69.5355 285.49 62.9949 292.318 53.9118 291.16C56.3872 290.13 58.8894 289.147 61.3581 288.069C63.8267 286.992 66.3826 286.082 68.489 284.177C65.0544 285.517 61.6465 286.938 58.1716 288.183C54.8443 289.375 51.9597 292.265 47.6865 290.844C50.229 289.032 53.4154 288.756 55.5755 286.756C51.7182 286.702 48.7196 290.554 44.6677 289.86C44.6007 289.611 44.5336 289.362 44.4665 289.106C47.5054 287.665 50.551 286.224 53.5965 284.783C53.5429 284.641 53.4892 284.507 53.4355 284.372ZM124.544 281.193C124.926 280.641 125.463 280.109 126.241 280.331C127.066 280.567 127.576 281.281 127.549 282.035C127.475 284.406 127.569 286.783 125.322 288.581C120.284 292.615 114.334 294.978 108.524 297.517C95.7987 303.066 82.657 307.39 68.8312 309.417C66.3088 309.787 63.7597 309.949 61.2507 310.212C57.7222 309.868 54.2405 309.599 50.7857 309.154C48.9946 308.925 47.3242 308.218 46.1905 306.69C45.7075 306.03 45.6203 305.329 46.1637 304.602C46.64 303.949 47.17 303.814 47.9146 304.178C54.0326 307.201 60.5665 306.595 66.9797 305.902C84.958 303.969 101.615 298.251 116.675 288.278C119.64 286.311 122.478 284.163 124.544 281.193ZM159.286 373.602C160.896 377.751 160.266 380.579 158.045 383.953C149.613 396.748 137.364 404.116 122.84 408.217C109.443 411.995 95.8322 412.648 82.0868 410.332C78.4509 409.719 78.4509 409.705 78.0685 405.705C91.5724 408.594 94.779 408.648 98.5558 405.921C92.0755 406.143 85.81 405.948 79.5846 404.87C78.0216 404.594 76.7537 404.17 76.955 402.035C80.7183 402.708 84.4951 404.365 88.5872 402.574C85.6221 401.368 82.59 401.435 79.6785 401.119C76.9348 400.816 75.4523 399.786 75.3919 396.856C79.0413 397.274 82.7308 399.2 86.9705 396.863C83.9182 396.499 81.3355 396.176 78.7595 395.886C74.5735 395.415 74.5735 395.422 73.5337 391.152C75.9353 391.038 78.518 392.694 80.9263 390.458C79.6182 390.256 78.565 390.054 77.4916 389.92C71.548 389.172 73.1648 390.142 71.4273 384.97C72.5208 384.519 73.5605 385.327 74.6406 385.098C75.6804 384.876 76.8275 384.977 77.874 383.967C77.0355 383.798 76.4317 383.643 75.8145 383.556C74.2113 383.354 72.608 383.192 71.0114 382.963C70.8437 382.936 70.6693 382.586 70.5955 382.357C70.0051 380.532 69.4282 378.693 68.8312 376.821C70.7766 376.141 72.836 377.387 74.9358 375.905C74.1777 375.784 73.7618 375.697 73.3392 375.65C67.8853 375.057 67.8853 375.064 66.8589 369.346C68.5293 369.211 70.468 369.791 71.6084 367.858C71.3938 367.75 71.2663 367.636 71.1388 367.636C65.6447 367.413 65.6984 367.4 64.2963 362.174C63.9475 360.861 64.2158 360.544 65.5105 360.618C67.1407 360.706 68.6635 360.443 69.8508 358.74C68.1201 358.74 66.7046 358.639 65.3093 358.766C63.9274 358.894 63.27 358.531 62.7266 357.13C61.8277 354.8 61.8813 353.44 64.8665 353.44C65.8527 353.44 66.5839 352.847 67.3889 351.722C66.4162 351.817 65.7386 351.85 65.0678 351.945C60.808 352.544 60.808 352.544 59.889 348.025C61.9752 347.621 64.3232 348.793 66.5302 346.833C65.524 346.833 64.8464 346.826 64.1622 346.833C58.232 346.921 59.6944 348.227 57.4136 341.83C60.8818 341.83 64.2427 341.944 67.5901 341.796C71.0382 341.634 74.2515 340.685 76.8007 338.085C70.26 339.877 63.5517 340.213 56.7696 340.779C59.312 338.671 60.761 335.23 64.9001 335.311C67.201 335.351 69.3611 334.55 71.2663 332.846C68.6635 332.664 66.4296 333.627 63.4846 333.984C67.6572 329.243 70.9778 324.482 76.0158 321.344C78.4576 319.822 79.4974 320.104 80.9397 322.623C82.268 324.953 83.3145 327.425 85.8636 328.886C90.6265 331.607 93.766 330.213 94.4973 324.879C94.9534 321.559 94.8461 318.165 95.6712 314.879C96.8586 310.138 99.1394 309.047 103.661 311.276C108.263 313.545 112.959 315.458 118.171 315.815C121.002 316.01 123.806 315.815 126.496 314.892C129.723 313.794 131.017 311.814 131.199 308.474C131.36 305.504 130.427 302.683 130.065 299.484C132.835 300.736 134.955 301.854 135.814 304.992C142.194 328.341 150.532 351.056 159.286 373.602ZM39.0663 332.967C39.5962 341.587 45.9692 345.648 53.8447 342.005C55.2065 341.372 55.2937 341.863 55.5956 342.947C58.2454 352.409 61.1233 361.81 63.6188 371.313C66.9528 384.027 71.8902 396.263 75.0699 409.018C75.4724 410.635 76.15 411.867 78.2698 412.379C93.3032 416.022 108.236 415.423 123.008 411.308C140.993 406.298 155.154 396.499 162.956 379.124C163.62 377.643 164.063 376.316 163.425 374.586C154.933 351.574 146.789 328.442 137.665 305.666C137.357 304.891 136.713 304.151 137.021 303.114C139.067 304.104 141.046 304.865 143.227 304.945C149.754 305.201 153.376 300.373 151.223 294.278C150.619 292.588 149.66 291.133 148.446 289.793C143.508 284.379 136.941 284.783 130.266 284.648C130.246 280.351 130.011 280.001 126.053 278.776C125.57 278.621 125.329 278.304 125.195 277.954C124.001 274.822 122.303 271.779 121.948 268.459C121.653 265.65 120.204 264.452 117.795 263.805C114.797 262.997 111.731 262.882 108.659 263.091C92.4982 264.196 77.2233 268.775 62.3241 274.715C56.0786 277.206 50.0881 280.257 44.8556 284.567C42.6217 286.406 41.8033 288.628 42.3265 291.497C42.8498 294.332 43.7017 297.032 44.755 299.699C45.399 301.336 46.5192 302.959 44.547 304.555C44.0305 304.972 44.0372 305.888 44.3726 306.461C45.1507 307.774 44.5403 308.871 44.0573 310.03C40.9916 317.377 38.5632 324.812 39.0663 332.967Z" fill="white"/>
<path d="M141.802 371.32C143.063 373.515 142.426 374.788 140.621 376.283C133.504 382.202 124.984 385.004 116.156 387.031C106.771 389.186 97.3258 389.98 87.8536 387.374C86.5052 387.004 85.8612 386.452 85.3917 384.997C82.5876 376.303 79.4816 367.69 76.6507 359.002C75.1145 354.309 73.9271 349.507 72.4915 344.429C80.1592 345.224 87.3907 344.214 94.5016 342.463C105.275 339.816 115.72 336.26 125.125 330.28C126.863 329.176 127.393 329.465 128.01 331.331C131.766 342.732 135.624 354.106 139.488 365.474C140.158 367.461 140.762 369.515 141.802 371.32ZM124.139 327.485C107.636 335.789 90.5839 342.335 71.7268 342.853C70.6937 342.88 70.4589 343.116 70.6669 344.167C71.5658 348.611 72.2366 353.096 73.1959 357.528C75.3426 367.481 79.5889 376.815 82.2656 386.613C82.4802 387.415 82.9498 387.859 83.7414 388.155C89.9064 390.465 96.1384 392.412 102.86 392.156C109.099 392.034 115.237 391.172 121.248 389.462C129.143 387.226 136.824 384.539 143.016 378.869C144.459 377.549 145.203 376.175 144.673 374.229C144.385 373.178 144.365 372.06 144.056 371.016C139.823 356.847 134.678 342.981 129.143 329.263C127.835 326.011 127.211 325.943 124.139 327.485Z" fill="white"/>
</g>
<g opacity="0.4">
<path d="M1362.38 98.1496C1354.93 99.9677 1347.79 99.5887 1341.28 95.4838C1347.98 91.6629 1351.13 85.5449 1352.68 78.3379C1353.54 74.3863 1353.68 70.3785 1353.48 66.3377C1354.39 66.2048 1354.57 66.9947 1354.94 67.4363C1362.01 75.8731 1364.24 85.7534 1363.47 96.5336C1363.41 97.2999 1363.3 97.926 1362.38 98.1496ZM1339.24 92.0739C1333.88 91.8004 1328.98 90.1808 1324.56 87.2387C1321.34 85.0919 1319.37 82.0865 1319.34 77.999C1319.27 67.9009 1320.09 57.9412 1323.3 48.2661C1324.55 44.5084 1326.11 40.8926 1327.46 37.602C1329.73 32.8833 1332.17 28.7142 1334.76 24.6252C1335.71 23.1303 1336.29 22.9641 1337.48 24.383C1339.96 27.3596 1342.3 30.4272 1343.82 34.0046C1349.8 48.0282 1351.4 62.6521 1349.25 77.7084C1348.68 81.7097 1347.18 85.465 1344.98 88.9234C1343.59 91.0862 1341.9 92.2127 1339.24 92.0739ZM1316.16 79.2351C1304.26 80.1618 1292.91 78.6865 1282.67 72.0514C1281.2 71.0946 1279.78 70.0131 1278.49 68.8227C1275.32 65.8888 1274.33 62.598 1275.9 58.1996C1277.73 53.0592 1280.65 48.7117 1284.05 44.6187C1290.53 36.812 1297.74 29.7233 1307.08 25.4969C1314.92 21.9465 1323.14 19.7552 1331.88 21.9515C1332.34 22.0715 1332.81 22.2004 1333.26 22.3537C1333.39 22.4012 1333.5 22.546 1333.73 22.7623C1327.92 29.7202 1324.58 37.8482 1321.51 46.0926C1320.17 49.7084 1319.03 53.4121 1317.92 57.1117C1315.93 63.8218 1315.95 70.6218 1317.27 77.4378C1317.47 78.4351 1317.74 79.1141 1316.16 79.2351ZM1274.42 55.9244C1274.13 56.9046 1273.88 57.5527 1272.5 57.4335C1262.56 56.5763 1253.52 53.1237 1245.49 47.4013C1237.36 41.6213 1235.75 37.1852 1242.48 25.8915C1246.02 19.9706 1251.41 15.559 1255.85 10.3635C1267.83 -3.65508 1283 -5.04949 1299.34 -0.761817C1309.98 2.03306 1319.21 7.76238 1327 15.6651C1327.45 16.1196 1327.89 16.5864 1328.32 17.0653C1328.54 17.3003 1328.72 17.5634 1329.14 18.0939C1328.07 18.1679 1327.28 18.2886 1326.49 18.2678C1314.71 17.9691 1304.6 22.3939 1295.77 29.8004C1290.07 34.5726 1284.12 39.1859 1279.81 45.4348C1277.56 48.6989 1275.54 52.0769 1274.42 55.9244ZM1238.73 26.9654C1237.4 29.0937 1236.69 31.5451 1236.44 34.0475C1236.29 35.5749 1235.89 36.0282 1234.38 35.413C1229.59 33.4592 1225.16 31.1826 1223.48 25.7127C1223.25 24.9484 1223.24 24.3585 1223.59 23.6718C1231.54 7.72108 1244.11 -1.83672 1261.89 -4.13272C1265.42 -4.59233 1268.92 -4.41609 1272.88 -3.20147C1269.64 -1.98809 1266.94 -0.972675 1264.37 0.385072C1252.93 6.43233 1245.38 16.2819 1238.73 26.9654ZM1222.31 23.2217C1221.82 24.5263 1221.22 24.8828 1219.81 24.5628C1213.34 23.1029 1207.43 20.5713 1202.64 15.8721C1199.34 12.6316 1199.31 9.82964 1202.43 6.47614C1206 2.60431 1210.62 0.543748 1215.58 -0.731329C1223.24 -2.69658 1230.98 -2.91485 1238.74 -1.28208C1239.52 -1.11657 1240.34 -1.06041 1241.2 -0.276933C1234.83 3.63417 1229.72 8.52596 1225.97 14.8139C1224.39 17.4727 1223.36 20.3543 1222.31 23.2217ZM1363.76 99.7832C1366.2 94.6144 1367.23 89.2821 1366.05 83.5792C1364.38 75.6013 1360.57 68.8616 1354.77 63.2142C1353.97 62.4319 1353.22 61.7298 1353.14 60.4194C1352.73 54.0544 1351.61 47.7986 1349.93 41.6547C1347.89 34.2528 1344.66 27.4855 1339.34 21.843C1337.96 20.3691 1336.54 18.6103 1334.47 18.561C1331.37 18.488 1329.74 16.7922 1328.4 14.3959C1328.09 13.8413 1327.68 13.3197 1327.23 12.8712C1313.77 -0.597946 1297.79 -7.0871 1278.59 -4.51188C1277.39 -4.35298 1276.28 -4.0461 1275.1 -4.73365C1271.96 -6.56049 1268.49 -7.138 1264.9 -7.10122C1257.94 -7.03942 1251.4 -5.23388 1245.12 -2.33062C1244.27 -1.93428 1243.52 -1.31189 1242.42 -1.78193C1233.62 -5.56911 1224.54 -5.24845 1215.46 -3.13652C1209.66 -1.7875 1204.32 0.626726 1200.43 5.46126C1198.14 8.30783 1197.7 12.4112 1199.82 15.3251C1204.87 22.2421 1211.74 26.1385 1220.3 26.9639C1220.91 27.0197 1221.38 26.766 1221.76 27.6649C1224.15 33.3804 1228.89 36.0941 1234.63 37.4503C1235.3 37.6068 1236.1 37.3894 1236.33 38.3976C1237.52 43.6008 1241.48 46.6848 1245.38 49.5748C1252.64 54.9539 1260.75 58.5187 1269.83 59.6612C1270.55 59.756 1271.85 59.2093 1271.87 60.9457C1271.92 65.5593 1274.37 69.0033 1277.72 71.851C1282.76 76.149 1288.62 78.953 1294.98 80.6113C1301.48 82.2993 1308.11 82.7912 1314.82 82.2968C1315.57 82.2403 1316.58 81.644 1317.09 82.8946C1319.45 88.7194 1324.42 91.5774 1329.91 93.3166C1335.08 94.9529 1340.47 95.8911 1343.68 99.1941C1350.24 102.554 1356.09 102.513 1362.06 101.286C1362.96 101.099 1363.39 100.561 1363.76 99.7832Z" fill="white"/>
<path d="M1276.99 32.87C1276.02 40.1847 1273 46.4617 1270.48 52.9303C1275.73 48.7784 1279.83 36.5023 1276.99 32.87Z" fill="white"/>
<path d="M1244.18 40.0874C1245.78 32.4699 1248.69 25.7529 1255.18 21.08C1248.63 21.3564 1241.41 35.2041 1244.18 40.0874Z" fill="white"/>
<path d="M1256.71 28.5293C1256.24 28.2772 1255.81 28.7464 1255.52 29.1216C1253.17 32.0991 1250.95 35.1457 1250.06 38.9176C1249.75 40.2658 1249.3 41.6415 1249.75 43.6434C1252.1 38.6336 1254.15 34.0506 1256.79 29.7917C1257.05 29.3571 1257.21 28.7899 1256.71 28.5293Z" fill="white"/>
<path d="M1269.54 37.6482C1268.96 37.2875 1268.66 37.8164 1268.46 38.2254C1266.98 41.1314 1265.4 44.0097 1265.24 47.404C1267.58 45.0047 1268.97 42.1491 1269.71 38.9532C1269.82 38.4775 1270.05 37.9625 1269.54 37.6482Z" fill="white"/>
<path d="M1262.5 35.0504C1262.18 34.8845 1261.89 35.1634 1261.75 35.4683C1259.94 39.2561 1257.41 42.7926 1257.46 47.8489C1259.83 43.8591 1261.11 40.1095 1262.69 36.4965C1262.89 36.0184 1263.21 35.4107 1262.5 35.0504Z" fill="white"/>
<path d="M1278.23 66.2411C1281.12 58.9139 1284.72 52.0429 1289.25 45.6407C1283.34 48.3383 1276.39 61.688 1278.23 66.2411Z" fill="white"/>
<path d="M1307.16 53.7041C1305.97 53.7423 1306.29 54.8806 1306.3 55.5909C1306.39 61.9795 1306.17 68.3527 1305.32 75.2938C1309.67 68.6765 1308.92 62.0317 1308.14 55.3906C1308.06 54.7515 1308.1 53.6757 1307.16 53.7041Z" fill="white"/>
<path d="M1290.59 52.4178C1286.92 54.3894 1282.69 64.0892 1283.65 68.0401C1285.38 62.5985 1288.33 57.6509 1290.59 52.4178Z" fill="white"/>
<path d="M1300.76 58.8292C1300.34 58.678 1299.97 58.9137 1299.81 59.3366C1298.45 62.8113 1296.91 66.2547 1297.96 70.1492C1299.67 66.966 1300.25 63.4611 1301.13 60.0566C1301.24 59.6111 1301.36 59.0419 1300.76 58.8292Z" fill="white"/>
<path d="M1294.92 57.5101C1294.34 57.1735 1294.06 57.6898 1293.85 58.111C1293.25 59.3403 1292.68 60.584 1292.1 61.828C1291.11 63.9469 1290.3 66.0943 1291.51 68.6113C1292.69 65.2801 1293.87 61.9427 1295.05 58.6082C1295.19 58.2102 1295.3 57.7435 1294.92 57.5101Z" fill="white"/>
<path d="M1325.61 81.1214C1326.08 74.2961 1327.05 68.0982 1328.86 62.0435C1324.97 65.9417 1323.05 76.678 1325.61 81.1214Z" fill="white"/>
<path d="M1339.6 70.7629C1338.74 70.7649 1338.87 71.6947 1338.8 72.2927C1338.2 76.9087 1337.75 81.5361 1337.81 86.8059C1340.34 81.9265 1340.4 77.1654 1340.46 72.4103C1340.47 71.7387 1340.62 70.7593 1339.6 70.7629Z" fill="white"/>
<path d="M1331.62 68.9209C1331.07 68.9326 1330.9 69.5091 1330.86 69.9921C1330.43 74.128 1330.45 78.2517 1331.34 82.3551C1332.02 78.2574 1332.28 74.1321 1332.33 69.9914C1332.33 69.4946 1332.19 68.9083 1331.62 68.9209Z" fill="white"/>
<path d="M1234.55 15.2685C1234.14 14.9546 1233.76 15.2387 1233.51 15.5314C1230.92 18.5849 1228.44 21.6986 1227.97 26.6122C1230.39 22.8049 1232.46 19.5669 1234.5 16.3084C1234.69 16.0145 1235.03 15.6108 1234.55 15.2685Z" fill="white"/>
<path d="M1233.74 27.0974C1235.77 24.1012 1238.15 21.3124 1239.23 17.7701C1236.22 20.1967 1234.63 23.4458 1233.74 27.0974Z" fill="white"/>
<path d="M1206.78 8.77537C1205.44 10.38 1203.87 12.0992 1205.35 14.8891C1207.96 9.24623 1212.26 5.8245 1217.14 2.91385C1212.68 3.15183 1209.46 5.55398 1206.78 8.77537Z" fill="white"/>
<path d="M1210.27 16.8889C1212.7 12.6356 1216.27 9.33581 1219.27 5.57005C1214.73 8.11605 1211.22 11.4923 1210.27 16.8889Z" fill="white"/>
<path d="M1222.89 10.0649C1222.4 9.5965 1222.02 10.0522 1221.72 10.3917C1219.94 12.3243 1218.99 14.6921 1218.62 17.4477C1220.02 15.3507 1221.42 13.2656 1222.81 11.1658C1223.04 10.8256 1223.22 10.3812 1222.89 10.0649Z" fill="white"/>
<path d="M1355.97 83.1344C1355.45 82.9559 1355.26 83.4096 1355.12 83.7535C1353.56 87.6791 1351.94 91.6002 1351.68 95.8853C1353.98 92.2285 1355.29 88.2374 1356.31 84.1398C1356.4 83.767 1356.48 83.3043 1355.97 83.1344Z" fill="white"/>
<path d="M1360.27 84.8807C1359.58 84.7517 1359.49 85.5278 1359.34 86.0649C1358.55 88.916 1357.76 91.7611 1357.68 95.3066C1359.62 92.3279 1360.21 89.4129 1360.73 86.4817C1360.83 85.9312 1361.16 85.0462 1360.27 84.8807Z" fill="white"/>
</g>
<g opacity="0.4">
<path d="M1113.84 300.216C1114.39 300.566 1115.21 301.724 1115.54 299.805C1116.78 292.848 1123.41 286.754 1130.57 285.629C1134.23 285.057 1137.77 285.164 1141.21 286.639C1143.42 287.582 1145.27 288.989 1146.33 291.185C1147.06 292.734 1147.77 292.72 1148.75 291.481C1149.34 290.727 1150.06 290.114 1150.79 289.481C1153.09 287.447 1155.48 287.575 1157.88 289.016C1163.36 292.309 1167.52 296.976 1171.18 302.148C1178.57 312.593 1183.39 324.096 1184.84 336.844C1185.74 344.757 1184.63 352.461 1180.86 359.613C1177.83 365.357 1172.7 367.741 1167.81 365.586C1165.42 364.536 1163.55 362.731 1161.98 360.643C1161.53 360.037 1161.08 359.444 1160.26 359.545C1159.33 359.673 1159.01 360.428 1158.81 361.256C1158.36 363.135 1158.07 365.041 1157.13 366.785C1154.6 371.485 1149.77 373.56 1144.69 371.95C1140.83 370.724 1137.33 368.758 1134.14 366.273C1132.55 365.041 1131.61 365.047 1130.73 367.122C1128.12 373.297 1123.66 375.102 1117.49 372.442C1109.95 369.203 1105.18 363.047 1101.22 356.178C1094.62 344.676 1092.62 332.009 1092.08 318.991C1092.04 315.341 1092.32 311.731 1093.28 308.203C1095.77 299.104 1105.87 295.198 1113.84 300.216ZM1120.04 278.517C1122.97 276.389 1126.94 276.228 1130 278.262C1131.73 279.4 1133.31 280.76 1134.95 282.019C1126.65 282.592 1120.21 286.08 1115.37 292.653C1114.25 288.579 1116.81 280.861 1120.04 278.517ZM1155.06 262.288C1146.52 265.257 1130.41 260.476 1126.19 253.351C1138.71 250.974 1147.99 252.173 1155.06 262.288ZM1090.91 310.156C1089.36 317.483 1090.07 324.769 1090.98 332.062C1092.54 344.46 1096.56 355.882 1104.59 365.64C1108.17 369.997 1112.38 373.573 1117.81 375.405C1123.72 377.398 1129.04 375.822 1131.69 371.007C1132.86 368.879 1133.69 368.967 1135.3 370.314C1136.97 371.714 1139.03 372.502 1141.01 373.391C1150.29 377.533 1157.98 374.031 1161.06 363.93C1162.16 364.839 1163.06 365.613 1163.98 366.361C1166.11 368.091 1168.55 369.081 1171.3 369.034C1177.26 368.92 1180.86 365.324 1183.42 360.434C1186.3 354.919 1187.73 348.972 1187.72 342.75C1187.68 327.106 1182.15 313.327 1173.41 300.647C1170.03 295.764 1166.03 291.488 1161.26 287.979C1156.39 284.383 1154.09 284.423 1149.18 287.898C1148.69 288.242 1148.46 288.558 1147.85 287.999C1144.63 285.036 1140.66 283.016 1137.75 279.615C1136.23 277.851 1134.1 276.726 1131.96 275.75C1129.07 274.436 1126.11 273.5 1122.89 274.497C1121.75 274.847 1121.38 274.349 1121.11 273.271C1119.41 266.598 1121.16 260.591 1124.66 254.22C1124.95 254.839 1125.05 255.169 1125.23 255.439C1128.97 260.934 1134.37 263.89 1140.63 265.473C1146.05 266.853 1151.44 266.853 1156.7 264.705C1157.66 264.308 1159.12 263.648 1158.19 262.57C1157.16 261.385 1156.83 259.897 1155.8 258.745C1150.12 252.402 1143.25 249.102 1134.61 250.179C1132.02 250.502 1129.43 250.933 1126.61 251.351C1130.23 245.957 1134.79 241.667 1139.33 237C1137.23 237.465 1135.58 238.239 1134.12 239.357C1127.71 244.287 1123.05 250.563 1120.34 258.193C1118.44 263.533 1117.65 269.008 1120.06 274.457C1120.42 275.278 1120.17 275.581 1119.54 275.958C1113.33 279.689 1112.45 285.629 1113.44 291.986C1113.81 294.316 1113.94 296.303 1112.82 298.343C1102.12 294.04 1093.33 298.822 1090.91 310.156Z" fill="white"/>
<path d="M1157.27 358.528C1161.26 346.777 1154.06 304.829 1146.73 296.7C1150.15 306.613 1151.9 316.903 1153.79 327.167C1155.68 337.369 1156.12 347.74 1157.27 358.528Z" fill="white"/>
<path d="M1113.9 302.391C1112.55 324.203 1116.93 344.534 1129.89 362.549C1120.14 343.693 1114.62 323.712 1113.9 302.391Z" fill="white"/>
<path d="M1117.17 367.398C1108.93 357.895 1101.61 348.218 1099.73 335.551C1097.7 344.669 1107.49 362.434 1117.17 367.398Z" fill="white"/>
<path d="M1174.66 357.538C1176.43 355.794 1177.01 353.606 1177.6 351.484C1179.22 345.666 1180.69 339.8 1179.61 333.665C1179.14 330.998 1178.28 329.725 1176.23 328.877C1178.88 333.524 1177.8 338.325 1177.13 343.053C1176.45 347.902 1175.5 352.71 1174.66 357.538Z" fill="white"/>
<path d="M1145.22 328.541C1147.94 337.807 1148.12 347.478 1150.06 357.317C1150.74 343.181 1148.87 331.679 1145.22 328.541Z" fill="white"/>
<path d="M1108.93 338.582C1110.24 348.01 1113.8 356.407 1120.52 363.297C1117.16 354.838 1112.07 347.188 1108.93 338.582Z" fill="white"/>
<path d="M1164.56 355.875C1167.23 349.841 1166.45 337.618 1163.21 334.851C1164.94 341.787 1162.7 348.979 1164.56 355.875Z" fill="white"/>
<path d="M1171.2 355.572C1174.47 350.164 1173.73 336.318 1169.23 332.668C1171.97 340.44 1170.32 347.929 1171.2 355.572Z" fill="white"/>
<path d="M1136.34 334.48C1138.82 342.757 1140.23 350.865 1143.76 359.047C1143.82 352.036 1139.19 336.325 1136.34 334.48Z" fill="white"/>
<path d="M1127.32 340.676C1129.53 347.235 1131.06 354.057 1134.71 360.704C1134.35 352.804 1130.51 346.858 1127.32 340.676Z" fill="white"/>
</g>
<g opacity="0.4">
<path d="M449.02 64.5552C451.086 58.5953 455.776 54.3189 461.759 50.8642C475.236 43.0725 490.941 43.1264 505.142 50.6285C511.864 54.1775 516.815 58.5818 518.398 65.1343C519.277 68.7709 518.083 70.9461 513.769 72.1179C508.872 73.458 503.935 73.6533 499.279 71.4377C496.703 70.2121 495.623 67.9695 496.341 65.8617C497.132 63.5248 499.809 61.8143 502.741 61.747C504.545 61.6998 506.222 62.0365 507.108 63.3699C508.02 64.7303 506.33 65.4441 505.525 66.3465C505.263 66.6361 504.941 66.8988 504.404 67.4038C506.195 67.3769 507.383 66.9796 508.416 66.3061C510.254 65.1209 510.509 63.3228 508.973 61.8884C506.92 59.9623 504.257 59.4034 501.238 59.9489C497.22 60.6762 494.811 62.7908 493.926 65.9559C493.107 68.9056 494.764 71.2088 497.642 72.8452C498.984 73.6062 499.272 74.3874 499.38 75.5726C499.843 80.4618 502.217 84.9334 504.532 89.3848C505.162 90.597 504.84 91.1829 503.821 92.0584C497.038 97.9106 488.72 99.217 479.322 97.722C474.351 96.9341 469.568 95.6478 464.678 94.5232C467.602 89.8495 469.595 85.1489 469.031 79.9567C468.971 79.4045 468.904 78.8455 468.729 78.3068C468.045 76.1855 467.28 74.1449 467.542 71.8351C467.824 69.3299 465.63 67.2085 463.021 66.5553C460.076 65.8145 457.446 67.0267 456.748 69.6801C457.372 69.377 457.822 69.1346 458.305 68.9325C460.055 68.212 461.853 67.9358 463.477 69.0672C465.093 70.1986 465.469 71.7744 464.885 73.3234C464.315 74.8251 462.511 75.0945 460.787 75.2898C454.414 76.0306 446.941 70.569 449.02 64.5552ZM466.683 75.5996C467.508 82.3205 466.127 88.3881 461.444 93.843C460.324 95.1495 460.592 95.9104 462.618 96.4223C466.435 97.3853 470.259 98.3348 474.116 99.1631C481.281 100.692 488.472 101.385 495.71 99.3652C500.661 97.9846 504.035 94.7723 508.235 92.5096C509.368 91.8968 508.805 91.055 508.275 90.2064C505.102 85.1893 502.64 79.95 500.634 74.2931C504.31 75.0541 507.718 75.2292 511.18 74.8251C519.86 73.8217 523.134 69.4039 519.954 62.8783C519.867 62.71 519.766 62.5416 519.679 62.3665C512.87 49.4769 494.838 41.1061 477.692 43.3688C464.684 45.0928 454.595 50.6285 448.209 60.1038C446.417 62.7638 445.539 65.6798 446.243 68.7305C447.913 75.9902 458.003 79.4786 466.683 75.5996Z" fill="white"/>
<path d="M478.753 92.7651C484.032 86.3741 482.402 74.5486 475.875 71.1006C480.51 77.9899 479.477 85.1822 478.753 92.7651Z" fill="white"/>
<path d="M485.385 76.8384C485.076 76.8721 484.775 76.9057 484.473 76.9394C485.606 81.9498 483.493 87.4854 488.632 91.8493C487.545 86.8457 486.465 81.842 485.385 76.8384Z" fill="white"/>
<path d="M495.079 87.6466C493.684 83.9158 492.282 80.1849 490.887 76.4541C490.679 76.4945 490.471 76.5282 490.27 76.5619C490.464 80.6227 490.484 84.7239 495.079 87.6466Z" fill="white"/>
<path d="M466.067 57.0327C467.073 57.0933 467.603 56.6286 467.724 55.8474C467.637 54.9921 467.181 54.386 466.047 54.4063C465.047 54.4197 464.518 54.9315 464.504 55.7195C464.491 56.5343 465.108 56.9788 466.067 57.0327Z" fill="white"/>
<path d="M472.598 54.1032C473.396 54.0965 473.92 53.7597 473.993 53.1267C474.074 52.4667 473.591 52.1098 472.773 52.0425C471.88 52.1233 471.391 52.5004 471.411 53.2412C471.424 53.8675 471.887 54.1099 472.598 54.1032Z" fill="white"/>
<path d="M505.447 58.5949C506.131 58.5747 506.574 58.2852 506.614 57.6925C506.513 57.073 506.124 56.642 505.319 56.6285C504.514 56.6218 504.025 56.9989 504.065 57.6589C504.112 58.3256 504.682 58.6151 505.447 58.5949Z" fill="white"/>
</g>
<path opacity="0.4" d="M637.363 166.969C633.378 165.878 629.394 164.807 625.416 163.71C623.886 163.285 622.37 162.585 622.29 160.82C622.202 159.056 623.383 157.803 624.919 157.049C628.408 155.319 631.856 155.763 635.297 157.305C638.155 158.591 640.912 160.161 644.065 160.645C644.863 160.767 645.675 160.908 646.466 160.861C648.351 160.753 649.016 159.696 648.372 157.925C647.741 156.201 646.44 154.914 645.353 153.487C644.038 151.743 642.441 149.709 643.454 147.621C644.481 145.507 647.07 146.065 649.083 146.153C653.852 146.362 658.085 148.389 662.305 150.402C662.955 150.712 663.573 151.076 664.23 151.359C666.9 152.504 667.49 154.618 665.793 157.076C664.981 158.255 664.042 159.359 663.338 160.598C661.48 163.864 659.561 166.228 654.979 165.4C650.773 164.632 646.721 166.437 642.931 168.565C643.589 169.602 644.447 168.511 645.098 168.915C648.801 167.797 652.625 167.535 657.066 167.117C652.651 170.875 647.741 173.266 644.534 178.31C649.928 175.313 654.275 171.67 659.434 168.249C658.186 171.777 657.562 174.949 657.475 178.256C658.736 175.299 660.312 172.451 660.594 169.164C660.836 166.309 662.432 165.117 665.116 164.814C667.866 164.497 670.536 163.804 673.32 162.282C672.669 165.104 673.682 167.225 674.984 169.292C676.318 171.427 677.573 173.616 678.894 175.771C680.102 177.744 680.699 179.872 680.679 182.189C680.659 183.839 680.659 185.549 679.015 186.478C677.278 187.462 675.487 187.024 673.897 186.041C672.213 184.997 670.697 183.717 669.664 181.96C669.02 180.875 668.376 179.791 667.712 178.72C667.074 177.69 666.316 176.741 664.921 177.084C663.485 177.434 663.338 178.761 663.257 179.892C663.076 182.243 663.599 184.552 664.076 186.842C664.619 189.421 664.82 192.001 664.633 194.634C664.512 196.297 664.123 197.745 662.251 198.041C660.319 198.344 659.192 197.146 658.608 195.503C658.193 194.331 657.998 193.065 657.83 191.826C657.555 189.859 657.441 187.879 657.159 185.92C656.905 184.196 656.113 182.707 654.181 182.606C652.148 182.505 651.457 184.121 651.075 185.765C650.337 188.943 650.397 192.196 650.33 195.435C650.29 197.227 650.377 199.132 648.472 200.19C647.627 200.654 646.641 200.715 645.943 200.021C644.4 198.486 644.642 196.479 645.098 194.674C645.903 191.536 647.077 188.492 647.191 185.199C647.325 181.051 644.447 179.044 640.67 180.66C639.228 181.273 638.068 182.229 637.095 183.448C633.439 188.061 630.427 193.031 628.461 198.627C627.408 201.624 625.905 204.405 623.571 206.614C622.766 207.375 621.713 208.749 620.693 207.901C619.767 207.133 620.794 205.725 621.337 204.776C622.544 202.668 623.913 200.654 625.201 198.594C625.583 197.981 625.979 197.375 626.268 196.721C627.019 195.018 627.562 193.22 626.147 191.644C624.711 190.048 622.887 190.465 621.142 191.112C617.929 192.297 615.474 194.526 613.173 196.964C610.644 199.637 608.45 202.641 605.458 204.85C604.05 205.887 602.5 206.937 600.783 205.9C599.072 204.863 598.797 203.052 598.998 201.126C599.32 198.095 600.3 195.213 601.957 192.775C608.316 183.421 616.212 176.559 628.508 177.401C633.164 177.717 637.759 177.677 640.912 173.319C642.173 169.164 641.589 168.121 637.363 166.969ZM673.89 152.093C676.62 152.49 679.19 151.554 681.658 150.349C689.648 146.456 696.497 140.907 703.306 135.317C717.42 123.741 731.609 112.279 747.004 102.427C750.707 100.056 752.612 100.299 755.188 103.794C756.161 105.114 756.906 106.555 757.375 108.117C758.797 112.811 758.006 114.448 753.444 115.929C748.976 117.377 744.77 119.404 740.604 121.512C724.961 129.405 708.968 136.651 694.371 146.463C689.004 150.072 683.738 153.837 678.505 157.642C675.849 159.568 673.199 161.198 669.764 161.379C668.02 161.467 666.31 162.262 664.525 162.753C665.424 159.366 670.227 157.285 667.544 152.827C669.671 152.268 671.663 151.763 673.89 152.093ZM634.74 174.148C632.614 174.7 630.447 174.673 628.314 174.404C613.938 172.599 598.368 186.97 596.167 199.92C595.564 203.469 596.61 206.89 599.045 208.345C602.064 210.15 604.741 209.025 607.283 207.193C610.302 205.011 612.516 202.021 615.031 199.334C616.889 197.361 618.801 195.462 621.29 194.29C622.061 193.927 623.007 193.132 623.745 193.9C624.517 194.708 623.604 195.543 623.155 196.277C621.666 198.735 620.089 201.146 618.64 203.631C616.977 206.486 617.017 208.971 618.627 210.332C620.324 211.78 622.84 211.308 625.362 208.951C627.415 207.025 629.025 204.756 630.098 202.129C632.453 196.365 634.908 190.661 639.007 185.859C639.771 184.97 640.456 184.027 641.576 183.529C643.521 182.66 644.293 183.145 644.058 185.273C643.803 187.623 642.978 189.832 642.207 192.041C641.428 194.297 641.133 196.607 641.556 198.964C642.059 201.806 643.904 203.624 646.5 203.934C649.371 204.277 651.833 202.843 652.987 200.156C653.725 198.459 653.846 196.674 653.839 194.863C653.839 193.819 653.906 192.782 653.946 191.738C654.718 193.819 654.946 195.88 655.965 197.738C657.542 200.587 659.923 201.853 662.841 201.334C665.726 200.829 667.557 198.796 667.893 195.482C668.208 192.324 667.96 189.186 667.229 186.088C666.974 185.004 666.524 183.919 666.846 182.586C669.107 186.007 671.649 188.761 675.621 189.583C679.82 190.452 682.933 188.142 683.389 183.879C683.745 180.572 683.221 177.434 681.464 174.532C679.364 171.063 677.378 167.528 675.279 164.06C674.313 162.464 674.185 161.251 676.265 160.544C676.761 160.376 677.197 160.012 677.653 159.73C689.42 152.436 700.831 144.544 713.241 138.328C728.516 130.677 743.818 123.074 759.106 115.444C760.106 114.946 761.34 114.724 761.353 113.148C761.4 108.097 759.898 103.74 755.886 100.487C754.075 99.0259 752.049 98.5141 749.849 99.5309C746.997 100.858 744.113 102.124 741.342 103.605C727.04 111.255 714.992 122.004 702.582 132.247C695.296 138.26 688.32 144.725 679.8 148.961C674.474 151.615 669.006 152.012 663.512 148.719C658.709 145.837 653.51 143.722 647.754 143.783C645.447 143.809 642.824 143.776 641.496 146.119C640.033 148.699 641.133 151.217 642.582 153.487C643.589 155.056 644.796 156.504 646.185 158.369C643.374 158.544 641.375 157.554 639.342 156.598C634.827 154.477 630.286 152.45 625.134 154.382C622.075 155.534 619.895 158.107 619.881 160.618C619.861 163.07 621.807 165.124 625.228 166.289C629.058 167.589 632.909 168.801 636.847 169.757C638.94 170.262 639.087 171.158 637.578 172.686C636.793 173.481 635.807 173.878 634.74 174.148Z" fill="white"/>
<g opacity="0.4">
<path d="M939.711 125.984C931.95 125.384 925.382 127.889 919.667 133.082C918.01 134.583 916.205 135.944 914.059 136.779C909.081 138.705 904.338 137.082 901.648 132.449C900.018 129.647 899.233 126.273 899.32 122.468C899.85 99.3694 922.504 81.8129 944.676 88.0153C953.343 90.4396 960.943 95.6857 962.875 105.518C964.579 114.185 963.13 117.99 955.161 122.159C950.317 124.697 945.239 126.408 939.711 125.984ZM950.109 134.59C952.269 137.789 954.322 141.075 956.174 144.463C959.159 149.931 958.481 152.382 953.242 155.662C947.305 159.373 940.832 160.268 934.023 158.955C933.016 158.767 932.057 158.295 931.084 157.925C930.212 157.595 930.246 156.82 930.306 156.093C930.4 154.968 931.232 155.554 931.775 155.494C933.862 155.285 935.988 156.309 938.37 155.359C936.129 154.369 934.003 154.625 932.003 154.194C931.38 154.066 930.085 154.787 930.44 153.285C930.715 152.079 929.656 150.214 932.01 149.864C934.063 149.567 936.21 150.012 938.269 149.015C935.995 146.874 933.499 147.715 931.044 148.308C930.172 146.086 931.232 145.278 933.238 144.853C935.982 144.274 938.752 144.321 941.737 144.389C938.517 141.331 937.169 141.304 930.803 144.079C930.642 142.853 930.474 141.695 930.347 140.537C930.098 138.368 929.642 136.24 928.837 134.206C927.623 131.142 927.616 131.169 930.87 130.146C934.083 129.135 937.404 129.438 940.677 129.364C942.938 129.317 945.42 128.368 947.319 128.974C949.224 129.587 948.875 132.765 950.109 134.59ZM966.525 113.707C967.98 103.794 963.405 94.4466 954.872 89.2746C948.533 85.4293 941.549 84.1632 934.372 84.0083C922.33 83.7591 912.818 89.1332 905.432 98.3525C898.931 106.447 895.034 115.613 896.208 126.267C896.872 132.321 899.354 137.56 905.378 140.011C911.06 142.328 916.038 140.341 920.552 136.691C922.29 135.291 924.074 133.957 925.892 132.55C926.724 133.87 926.831 135.169 927.066 136.415C928.26 142.847 927.428 149.278 926.999 155.709C926.771 159.056 927.334 159.965 930.36 161.279C938.799 164.935 951.578 162.538 958.361 156.194C961.299 153.453 962.117 150.396 960.89 146.598C959.373 141.917 956.529 138.011 953.873 133.991C952.571 132.024 951.196 130.112 949.814 128.098C953.584 126.731 956.965 125.263 960.044 123.175C963.432 120.886 965.907 117.902 966.525 113.707Z" fill="white"/>
<path d="M948.626 92.6561C946.338 90.9523 943.655 90.1172 940.75 89.8276C947.633 92.8985 951.819 98.4678 954.945 105.007C956.823 108.926 956.649 112.623 953.677 116.011C952.785 117.035 951.946 118.119 951.456 119.479C953.12 119.937 954.482 119.405 955.642 118.321C958.842 115.324 960.197 111.627 959.003 107.377C957.286 101.296 953.67 96.4139 948.626 92.6561Z" fill="white"/>
<path d="M905.753 112.899C902.358 116.704 902.754 125.701 906.283 128.779C907.242 129.62 908.302 130.038 909.671 129.668C908.51 127.021 906.739 124.711 906.102 121.822C905.458 118.906 905.357 116.017 905.753 112.899Z" fill="white"/>
<path d="M952.647 109.168C952.446 106.838 952.191 104.515 949.997 103.094C951.346 107.781 950.299 112.279 948.891 117.182C952.211 115.034 952.916 112.313 952.647 109.168Z" fill="white"/>
<path d="M944.64 105.727C946.244 109.902 943.674 112.906 942.977 116.327C947.646 114.125 948.699 108.717 944.64 105.727Z" fill="white"/>
<path d="M937.379 115.626C940.022 114.616 940.331 112.69 939.948 110.023C938.768 111.956 937.506 113.438 937.379 115.626Z" fill="white"/>
<path d="M910.143 119.991C909.613 120.994 909.184 121.567 909.01 122.213C908.802 122.967 909.144 123.627 909.828 124.058C910.338 124.375 910.935 124.563 911.351 124.052C911.807 123.479 911.465 122.826 911.21 122.24C910.955 121.654 910.667 121.088 910.143 119.991Z" fill="white"/>
</g>
<g opacity="0.4">
<path d="M784.526 388.598C785.834 387.594 785.874 386.651 784.68 385.412C780.373 380.954 781.245 375.809 786.773 372.812C788.262 372.004 788.578 371.324 786.981 370.28C782.99 367.681 781.99 363.364 784.304 358.946C786.981 353.842 794.991 351.821 799.794 354.986C800.854 355.68 799.888 356.091 799.66 356.468C797.855 359.445 796.923 362.67 797.104 366.139C797.352 370.812 798.935 374.678 803.899 376.119C805.147 376.489 805.026 377.008 804.651 378.018C803.363 381.473 803.182 384.907 805.006 388.301C807.039 392.086 810.138 393.749 814.378 392.941C815.84 392.665 816.37 392.901 816.504 394.416C816.759 397.312 818.289 399.575 820.529 401.312C821.522 402.08 821.656 402.592 821.079 403.811C818.396 409.501 813.445 410.713 807.844 410.895C803.651 410.693 799.539 410.114 796.332 406.929C795.709 406.309 794.669 405.73 795.641 404.538C796.151 403.918 796.158 403.164 795.433 402.632C794.736 402.12 794.045 402.45 793.401 402.794C789.631 404.807 786.874 404.551 784.278 401.932C781.339 398.975 780.454 394.51 782.131 391.271C782.701 390.167 783.56 389.338 784.526 388.598ZM804.248 355.215C805.261 354.333 806.368 353.565 807.911 353.687C809.722 353.835 810.131 352.697 809.246 351.39C808.112 349.707 808.193 348.003 808.79 346.313C810.963 340.103 814.941 335.639 821.348 333.638C823.199 333.066 824.99 333.012 826.54 334.453C827.057 334.931 827.633 335.174 828.284 334.79C828.928 334.42 829.069 333.76 828.935 333.1C827.915 328.251 830.002 324.675 833.845 322.19C838.3 319.301 843.11 318.702 848.027 321.261C850.791 322.695 852.783 325.012 854.963 327.652C855.252 326.534 854.963 325.847 854.789 325.153C854.306 323.241 854.648 321.624 856.432 320.533C858.21 319.442 859.941 319.543 861.571 320.843C862.202 321.348 862.731 321.974 863.375 322.439C863.852 322.789 864.435 322.83 864.892 322.304C865.287 321.853 865.146 321.355 864.811 320.998C863.758 319.873 863.134 318.641 864.482 317.436C865.898 316.169 867.602 315.86 869.406 316.728C870.802 317.395 871.674 318.574 872.083 319.995C873.297 324.237 874.283 328.527 873.532 333.201C874.766 332.143 875.92 332.271 877.107 333.147C880.173 335.403 882.3 338.164 882.219 342.205C882.199 343.006 882.212 343.821 882.286 344.622C882.387 345.74 882.581 346.407 884.165 346.494C887.827 346.683 890.182 350.252 889.645 354.549C884.466 351.168 879.395 347.861 874.33 344.548C874.25 344.649 874.169 344.743 874.095 344.844C878.214 348.158 882.199 351.653 886.479 354.737C898.212 363.209 909.958 371.661 923.066 377.957C927.722 380.193 932.458 382.119 937.623 382.826C939.267 383.055 940.246 383.244 938.609 385.318C934.886 390.052 934.135 395.878 933.498 402.39C924.522 393.931 913.701 389.076 903.176 383.735C892.577 378.355 881.736 373.668 869.587 373.237C871.647 373.816 873.7 374.429 875.772 374.961C876.92 375.257 877.094 375.688 876.584 376.819C875.061 380.173 872.358 381.708 869.836 380.483C869.017 380.085 868.333 379.627 868.011 378.685C867.729 377.877 867.139 377.277 866.166 377.513C865.093 377.776 864.898 378.631 864.932 379.587C865.053 382.934 863.63 385.682 861.484 388.079C858.411 391.507 853.454 392.416 849.375 390.369C848.818 390.086 848.282 389.675 847.859 389.217C846.014 387.197 845.236 387.278 844.29 389.87C841.882 396.49 837.153 400.06 830.324 401.332C824.91 402.343 817.517 397.534 819.376 390.941C819.791 389.46 818.738 388.901 817.343 389.217C816.719 389.359 816.135 389.662 815.525 389.85C810.098 391.534 805.771 387.938 806.462 382.24C806.683 380.415 807.146 378.631 808.213 377.028C809.42 375.223 809.045 374.442 807.012 374.058C801.484 373.008 799.116 369.708 799.827 364.091C800.27 360.616 801.585 357.552 804.248 355.215ZM812.352 328.359C810.339 325.032 810.648 320.648 813.237 318.075C815.471 315.839 817.987 313.974 821.267 313.563C821.958 313.476 822.562 313.334 822.656 312.526C822.73 311.866 822.354 311.381 821.777 311.24C819.436 310.641 819.698 308.802 819.979 307.172C820.845 302.081 827.888 297.232 832.913 298.249C834.791 298.626 835.824 298.647 835.543 296.148C835.254 293.549 837.891 290.963 841.023 290.276C843.727 289.683 846.927 291.131 847.953 293.454C848.268 294.168 848.235 295.192 849.281 295.232C850.482 295.279 850.442 294.175 850.777 293.38C851.455 291.778 852.676 290.788 854.453 290.7C856.479 290.599 858.123 291.387 858.995 293.252C859.686 294.72 860.296 295.246 862.101 294.646C864.556 293.838 866.052 295.832 867.454 297.502C868.407 298.633 868.675 300.108 869.151 301.475C869.675 302.99 870.688 303.623 872.103 302.667C874.102 301.32 876.061 300.835 878.06 302.512C880.213 304.317 880.663 306.634 879.932 309.287C878.966 312.789 876.544 315.462 874.746 318.749C871.66 314.439 868.917 313.26 865.294 314.587C864.382 314.924 863.248 315.281 862.926 316.136C862.081 318.419 860.511 318.203 858.552 318.17C855.493 318.129 853.581 320.23 853.031 323.638C852.508 323.153 852.038 322.735 851.596 322.298C847.309 318.001 842.184 316.944 836.495 318.594C830.827 320.23 827.305 323.995 826.285 329.908C826.117 330.864 825.896 331.14 824.95 330.918C823.515 330.594 822.066 330.823 820.664 331.18C816.934 332.116 814.042 331.147 812.352 328.359ZM942.299 385.318C944.117 385.803 945.761 387.109 946.163 389.224C946.405 390.477 946.351 391.79 946.425 393.069C947.095 397.5 944.56 400.167 941.34 402.45C940.541 403.016 939.622 403.339 938.656 403.447C935.141 403.824 934.215 402.753 934.974 399.299C935.859 395.292 936.879 391.332 939.146 387.843C939.911 386.672 940.709 384.894 942.299 385.318ZM779.635 398.416C780.977 402.565 783.56 405.602 788.095 406.457C789.47 406.713 794.4 408.922 795.521 409.75C801.042 413.825 807.254 414.309 813.68 412.949C818.879 411.845 822.629 409.036 823.313 403.103C825.373 404.019 827.412 404.43 829.492 404.208C836.475 403.467 842.07 400.396 845.437 394.026C846.296 392.396 846.893 392.268 848.449 393.083C850.925 394.382 853.648 394.632 856.426 394.106C862.007 393.056 865.093 389.291 867.119 384.328C867.354 383.749 866.991 382.624 868.501 383.082C873.726 384.658 877.356 382.867 879.247 377.715C879.791 376.24 880.348 376.442 881.481 376.812C888.297 379.048 894.69 382.234 901.117 385.379C908.469 388.982 915.472 393.305 923.153 396.221C925.28 397.029 926.91 398.147 928.111 400.093C929.271 401.965 930.982 403.353 932.84 404.511C936.61 406.855 940.595 406.693 944.05 403.912C948.216 400.558 950.315 396.49 949.195 390.813C948.276 386.119 946.069 383.399 941.427 382.84C940.884 382.772 940.354 382.557 939.83 382.382C922.556 376.59 907.583 366.59 892.651 356.508C892.134 356.165 891.678 355.963 892.013 355.027C893.885 349.74 891.926 346.245 886.331 344.865C885.406 344.636 885.265 344.501 885.419 343.531C886.486 336.756 881.736 330.763 874.967 330.352C875.9 327.631 876.269 324.864 875.518 322.075C875.135 320.641 875.457 319.698 876.591 318.729C879.06 316.614 881.179 314.183 882.172 310.997C883.313 307.334 882.91 303.967 879.985 301.212C877.282 298.667 874.27 298.801 871.191 300.492C870.929 299.758 870.775 299.219 870.54 298.714C868.836 294.983 866.448 292.108 861.893 292.296C860.779 292.343 860.612 291.508 860.115 290.956C857.526 288.067 853.407 287.575 850.643 290.087C849.503 291.124 849 290.916 847.94 290.08C842.667 285.925 835.462 288.255 833.497 294.747C833.188 295.791 832.779 295.892 831.86 295.892C826.184 295.906 822.186 298.929 819.114 303.374C817.9 305.132 817.001 307.381 817.772 309.334C818.765 311.846 817.49 312.519 815.76 313.361C815.049 313.705 814.438 314.264 813.801 314.755C810.521 317.308 808.682 320.527 809.373 324.816C810.024 328.891 812.211 331.665 816.665 332.648C815.74 333.322 815.082 333.76 814.465 334.251C810.038 337.733 806.455 341.942 805.925 347.727C805.697 350.212 804.986 351.478 803.021 352.926C801.297 354.198 800.223 354.306 798.358 353.518C792.515 351.047 786.88 352.461 783.64 356.933C780.38 361.445 780.715 366.798 784.553 371.445C778.971 375.782 778.408 381.19 782.963 386.934C782.674 387.204 782.386 387.48 782.097 387.749C778.931 390.759 778.354 394.45 779.635 398.416Z" fill="white"/>
<path d="M894.311 369.398C897.604 370.872 900.892 372.3 904.031 374.105C910.572 377.876 917.206 381.479 924.237 384.26C927.537 385.567 930.905 386.759 934.554 386.927C913.101 376.92 892.459 365.519 873.327 351.464C873.186 351.673 873.052 351.888 872.911 352.104C878.076 356.279 883.249 360.454 888.414 364.63C888.374 364.69 888.327 364.751 888.28 364.811C880.693 360.744 873.106 356.683 865.519 352.622C865.398 352.77 865.277 352.925 865.156 353.073C866.263 353.848 867.336 354.683 868.497 355.383C876.889 360.448 885.368 365.377 894.311 369.398Z" fill="white"/>
<path d="M836.603 380.335C834.718 380.335 833.215 380.375 831.712 380.328C829.586 380.267 828.063 379.399 827.446 377.169C826.768 374.752 827.332 371.883 828.848 370.671C829.25 370.354 829.646 370.112 830.163 370.247C831.102 370.489 831.994 370.428 832.417 369.445C832.833 368.489 832.142 367.809 831.598 367.088C829.868 364.785 830.009 362.946 831.994 360.859C833.182 359.606 834.543 358.643 836.241 358.246C836.999 358.071 837.951 358.212 838.24 357.222C838.548 356.185 837.804 355.646 837.126 355.027C834.778 352.912 834.832 351.054 837.327 349.08C839.615 347.262 842.184 346.757 845.23 348.097C844.639 346.501 843.606 346.05 842.533 345.74C839.051 344.743 834.04 347.579 833.074 351.08C832.772 352.185 832.631 353.404 833.282 354.367C834.141 355.646 833.732 356.084 832.544 356.845C829.526 358.778 826.956 361.29 827.741 365.29C828.077 367.007 827.58 367.788 826.493 368.873C823.293 372.065 823.293 378.631 826.312 381.695C828.788 384.2 833.517 384.402 836.603 380.335Z" fill="white"/>
<path d="M879.003 368.361C877.668 368.643 876.487 368.462 875.306 368.286C874.052 368.105 872.791 367.93 871.087 367.687C872.536 368.616 873.737 368.92 874.938 369.216C884.785 371.687 894.184 375.358 903.247 379.923C911.491 384.085 919.447 388.772 927.444 393.379C928.463 393.965 929.402 394.914 930.898 394.753C919.857 384.119 871.778 362.205 862.668 361.478C868.544 363.95 873.777 366.158 879.003 368.361Z" fill="white"/>
<path d="M851.486 374.569C853.459 375.404 855.022 374.718 856.558 373.303C855.498 372.67 854.552 372.078 853.573 371.539C851.057 370.145 850.312 368.583 850.889 365.801C851.634 362.192 853.532 360.097 856.316 359.936C857.383 359.875 858.597 360.03 858.852 358.696C859.1 357.39 857.94 357.047 856.994 356.555C853.821 354.918 853.392 352.07 855.927 349.497C858.208 347.181 860.959 346.171 864.574 346.958C863.34 345.315 861.958 345.154 860.502 345.268C858.443 345.436 856.625 346.245 854.981 347.47C851.782 349.861 851.044 352.676 852.842 356.272C853.318 357.215 853.016 357.437 852.332 357.909C848.34 360.663 847.119 364.69 847.488 369.283C847.69 371.788 849.132 373.579 851.486 374.569Z" fill="white"/>
<path d="M791.103 385.398C792.008 386.112 791.954 386.617 791.733 387.593C790.613 392.476 793.585 397.419 798.368 398.584C799.327 398.82 799.589 399.076 799.716 400.059C800.098 403.029 802.352 404.362 804.848 405.224C807.256 406.059 809.396 405.46 811.301 403.136C808.437 403.116 805.8 403.682 803.58 401.85C802.681 401.109 801.655 400.247 802.198 399.042C803.379 396.368 802.413 395.958 799.931 396.261C797.663 396.537 795.47 394.9 794.611 392.476C793.954 390.617 793.061 388.61 795 386.907C795.537 386.435 796.342 386.186 796.12 385.257C795.865 384.22 795 384.348 794.195 384.233C791.767 383.896 790.734 382.421 791.103 379.997C791.492 377.452 793.182 375.936 795.51 374.69C792.357 374.751 790.499 376.111 789.493 378.893C788.52 381.586 788.936 383.708 791.103 385.398Z" fill="white"/>
</g>
<g opacity="0.4">
<path d="M392.861 318.403C392.614 323.328 393.126 328.177 394.366 332.962C396.908 342.79 402.877 349.759 411.812 354.374C418.695 357.93 426.215 359.896 433.22 363.148C436.355 364.613 439.487 366.072 442.22 368.263C444.555 370.136 446.498 372.284 447.497 375.391C438.927 371.538 430.028 369.334 421.533 366.007C410.271 361.602 400.502 355.143 394.446 344.193C389.842 335.857 389.774 327.203 392.861 318.403ZM450.442 385.34C450.561 385.008 450.735 384.936 451.148 385.026C451.795 385.165 451.83 385.526 451.84 386.032C451.884 388.044 451.812 390.07 452.028 392.06C452.836 399.689 456.099 406.586 458.56 413.733C461.059 421.016 464.516 427.991 465.91 435.653C466.804 440.604 467.046 445.554 466.132 450.535C465.921 451.656 465.575 452.282 464.435 452.45C463.011 452.645 461.596 452.96 460.174 453.161C457.02 453.595 454.705 452.405 452.772 449.806C445.909 440.605 443.112 430.132 442.703 418.865C442.636 417.021 442.85 415.165 442.931 413.315C443.025 408.152 443.923 403.07 444.656 397.97C445.351 393.151 448.913 389.731 450.442 385.34ZM425.124 332.137C418.772 325.254 414.004 317.533 412.631 308.051C412.546 307.5 412.478 306.936 412.44 306.375C412.415 306.061 412.454 305.744 412.505 304.826C416.325 314.513 422.481 321.463 429.939 327.472C435.91 332.283 441.499 337.568 445.921 343.866C450.32 350.143 452.153 357.18 450.77 364.946C444.285 352.295 434.548 342.343 425.124 332.137ZM465.027 392.42C465.643 392.858 465.987 393.47 466.265 394.157C470.888 405.679 475.374 417.238 476.821 429.69C477.387 434.605 477.291 439.495 476.573 444.388C476.307 446.221 474.824 446.776 473.671 447.675C472.56 448.552 471.336 449.283 469.667 450.412C470.338 446.119 470.544 442.425 470.064 438.656C469.359 433.081 467.731 427.816 465.677 422.638C462.656 415.01 459.608 407.386 456.612 399.749C454.57 394.545 453.345 389.151 452.974 383.033C457.136 386.631 461.032 389.594 465.027 392.42ZM466.99 355.118C468.823 361.047 468.135 366.095 464.106 370.372C461.031 373.638 457.562 376.483 453.449 379.691C457.364 370.732 464.257 364.311 466.99 355.118ZM462.641 340.121C460.997 336.897 459.548 333.563 457.769 330.418C454.722 325.037 453.731 319.101 452.74 313.144C452.641 312.556 452.729 312.026 453.127 311.576C457.771 317.991 461.696 324.762 463.799 332.482C464.831 336.288 465.638 340.128 465.527 344.441C464.014 343.116 463.378 341.571 462.641 340.121ZM487.066 420.302C487.91 429.097 487.887 437.778 479.731 444.442C481.589 435.556 480.369 427.419 478.52 419.267C476.668 411.108 472.67 403.818 469.455 396.133C477.6 399.404 486.169 410.923 487.066 420.302ZM430.787 433.259C429.847 429.066 430.69 424.946 431.874 420.879C433.94 413.733 437.338 407.255 441.535 401.074C437.926 418.734 438.519 435.677 449.581 451.368C440.604 447.769 433.017 443.268 430.787 433.259ZM399.927 355.768C406.274 361.833 413.594 366.478 421.938 369.365C428.392 371.601 434.841 373.845 441.29 376.09C443.44 376.838 445.381 377.888 447.051 379.498C448.256 380.651 448.436 381.799 448.046 383.397C446.973 387.841 444.182 391.309 441.737 394.957C436.223 403.207 431.042 411.597 428.435 421.318C426.624 428.073 426.311 434.813 430.299 440.927C437.091 451.335 447.25 456.275 459.242 456.487C468.055 456.646 475.741 452.437 482.556 446.915C485.014 444.93 487.368 442.762 488.469 439.732C492.901 427.58 492.466 415.842 484.74 405.022C480.74 399.429 475.188 395.489 469.513 391.754C464.295 388.322 459.08 384.896 453.661 381.33C457.311 379.043 460.46 376.57 463.562 374.027C468.61 369.908 471.427 364.768 470.464 357.988C470.139 355.665 469.447 353.436 468.722 351.212C468.45 350.372 468.139 349.561 468.236 348.633C469.263 338.655 466.235 329.671 461.302 321.221C459.154 317.552 456.623 314.121 453.126 311.554C452.743 310.972 452.452 310.311 451.726 310.036C450.115 315.184 451.026 323.336 454.412 329.698C457.673 335.804 460.134 342.34 464.234 347.988C464.986 349.023 465.064 350.072 464.846 351.383C463.385 360.164 456.974 366.247 453.022 374.192C452.788 372.438 453.099 371.279 453.347 370.122C455.693 359.039 454.155 348.714 446.768 339.816C442.501 334.676 437.7 329.966 432.456 325.796C423.395 318.604 415.472 310.626 412.835 298.439C409.599 304.354 409.197 310.207 411.298 316.295C414.001 324.106 418.771 330.568 424.501 336.325C431.231 343.089 437.091 350.588 443.025 358.016C446.371 362.207 448.401 366.977 449.152 372.98C446.184 367.39 441.826 364.34 436.923 361.883C431.45 359.129 425.671 357.144 420.003 354.88C414.215 352.567 408.59 349.863 404.349 345.138C395.492 335.28 395.296 322.935 394.365 310.979C393.365 312.001 392.877 313.816 392.182 315.479C385.734 331.01 388.261 344.625 399.927 355.768Z" fill="white"/>
<path d="M452.528 417.66C456.922 427.154 458.103 437.347 461.511 447.347C463.155 439.266 458.232 423.211 452.528 417.66Z" fill="white"/>
<path d="M451.708 441.95C450.27 437.843 448.95 433.742 446.636 430.071C447.963 434.205 447.647 439.005 451.708 441.95Z" fill="white"/>
<path d="M451.62 429.11C453.398 433.054 454.153 437.424 456.631 441.076C455.901 436.697 454.855 432.451 451.62 429.11Z" fill="white"/>
<path d="M471.243 425.365C471.665 429.133 471.351 433.019 472.928 436.599C473.81 432.623 473.943 428.769 471.243 425.365Z" fill="white"/>
<path d="M440.98 443.853C434.882 436.558 434.091 434.273 434.158 424.029C429.842 430.808 434.144 443.328 440.98 443.853Z" fill="white"/>
<path d="M442.062 441.218C439.974 436.923 438.083 432.562 437.221 427.412C435.991 432.964 437.967 438.566 442.062 441.218Z" fill="white"/>
<path d="M479.307 411.795C482.183 419.513 482.268 427.506 483.23 435.452C486.02 428.381 484.04 416.171 479.307 411.795Z" fill="white"/>
</g>
</svg>
