<svg width="135" height="32" viewBox="0 0 135 32" fill="none" xmlns="http://www.w3.org/2000/svg">
<path d="M53.105 20.4948C57.1118 20.4948 58.9307 19.0449 58.9307 15.4863V12.5075C58.9307 8.94881 57.1118 7.49898 53.105 7.49898H49.6253C48.8609 7.49898 48.65 7.70986 48.65 8.47432V26.2941C48.65 27.0586 48.8609 27.2695 49.6253 27.2695H51.3124C52.0769 27.2695 52.2878 27.0586 52.2878 26.2941V20.9693C52.2878 20.6002 52.3932 20.4948 52.7623 20.4948H53.105ZM52.2878 11.664C52.2878 11.2949 52.3932 11.1895 52.7623 11.1895H53.3158C54.6075 11.1895 55.1874 11.7167 55.1874 13.0611V14.9327C55.1874 16.2771 54.6075 16.8043 53.3158 16.8043H52.7623C52.3932 16.8043 52.2878 16.6988 52.2878 16.3298V11.664ZM63.5631 7.49898C62.3769 7.49898 62.0079 7.89439 61.8761 8.86973L59.5563 26.2941C59.4509 27.0586 59.6618 27.2695 60.4262 27.2695H62.2451C63.0359 27.2695 63.2204 27.0849 63.3259 26.2941L63.6686 23.4208C63.6949 23.1572 63.774 23.0781 64.0903 23.0781H66.3574C66.6737 23.0781 66.7528 23.1572 66.7791 23.4208L67.1218 26.2941C67.2273 27.0849 67.4118 27.2695 68.2026 27.2695H70.0215C70.786 27.2695 70.9968 27.0586 70.8914 26.2941L68.5717 8.86973C68.4399 7.89439 68.0708 7.49898 66.8846 7.49898H63.5631ZM65.6983 12.8766L66.3046 19.0186C66.331 19.3349 66.2519 19.414 65.9092 19.414H64.5385C64.1958 19.414 64.1167 19.3349 64.1431 19.0186L64.7494 12.8766C64.7757 12.5602 64.9339 12.5075 65.2239 12.5075C65.5138 12.5075 65.672 12.5602 65.6983 12.8766ZM79.6262 26.5314C79.8371 27.164 79.9953 27.2695 80.7334 27.2695H82.6577C83.3431 27.2695 83.6067 26.9531 83.3695 26.2678L81.0497 19.3876C80.997 19.2031 80.9706 19.124 80.9706 19.0449C80.9706 18.9131 80.997 18.8604 81.1552 18.755C82.5523 17.5687 82.9477 16.6198 82.9477 14.1419V12.2439C82.9477 8.86973 81.1288 7.49898 77.122 7.49898H73.6424C72.8779 7.49898 72.667 7.70986 72.667 8.47432V26.2941C72.667 27.0586 72.8779 27.2695 73.6424 27.2695H75.3295C76.0939 27.2695 76.3048 27.0586 76.3048 26.2941V20.1257C76.3048 19.7567 76.4102 19.6512 76.7793 19.6512H76.8847C77.2801 19.6512 77.3856 19.7567 77.5174 20.1257L79.6262 26.5314ZM76.3048 11.5322C76.3048 11.1631 76.4102 11.0577 76.7793 11.0577H77.3329C78.6245 11.0577 79.2045 11.5585 79.2045 12.7975V14.2473C79.2045 15.5126 78.5718 16.0662 77.3329 16.0662H76.7793C76.4102 16.0662 76.3048 15.9607 76.3048 15.5917V11.5322ZM89.0084 8.47432C89.0084 7.70986 88.7975 7.49898 88.033 7.49898H86.3459C85.5815 7.49898 85.3706 7.70986 85.3706 8.47432V26.2941C85.3706 27.0586 85.5815 27.2695 86.3459 27.2695H88.033C88.7975 27.2695 89.0084 27.0586 89.0084 26.2941V8.47432ZM95.8788 14.5373C95.1407 13.8519 94.9826 13.4828 94.9826 12.7184V12.2703C94.9826 11.3213 95.4043 10.9259 96.327 10.9259C97.2496 10.9259 97.6714 11.3476 97.6714 12.4021V13.5619C97.6714 14.3264 97.8822 14.5373 98.6467 14.5373H100.439C101.204 14.5373 101.415 14.3264 101.415 13.5619V13.0347C101.415 8.79065 100.149 7.23537 96.327 7.23537C92.5047 7.23537 91.2394 9.08062 91.2394 12.4021V12.982C91.2394 14.7482 91.6084 15.6444 93.3746 17.1997L96.5378 20.0203C97.5132 20.8902 97.6714 21.2592 97.6714 21.9973V22.4982C97.6714 23.4472 97.2496 23.8426 96.327 23.8426C95.4043 23.8426 94.9826 23.4208 94.9826 22.3664V21.2065C94.9826 20.4421 94.7717 20.2312 94.0072 20.2312H92.2147C91.4502 20.2312 91.2394 20.4421 91.2394 21.2065V21.7337C91.2394 25.9778 92.5047 27.5331 96.327 27.5331C100.149 27.5331 101.415 25.6878 101.415 22.3664V21.8919C101.415 20.1257 101.019 19.1767 99.253 17.5951L95.8788 14.5373ZM107.285 8.47432C107.285 7.70986 107.074 7.49898 106.309 7.49898H104.622C103.858 7.49898 103.647 7.70986 103.647 8.47432V26.2941C103.647 27.0586 103.858 27.2695 104.622 27.2695H106.309C107.074 27.2695 107.285 27.0586 107.285 26.2941V8.47432ZM113.051 7.49898C111.865 7.49898 111.496 7.89439 111.364 8.86973L109.044 26.2941C108.939 27.0586 109.15 27.2695 109.914 27.2695H111.733C112.524 27.2695 112.708 27.0849 112.814 26.2941L113.157 23.4208C113.183 23.1572 113.262 23.0781 113.578 23.0781H115.845C116.162 23.0781 116.241 23.1572 116.267 23.4208L116.61 26.2941C116.715 27.0849 116.9 27.2695 117.691 27.2695H119.51C120.274 27.2695 120.485 27.0586 120.379 26.2941L118.06 8.86973C117.928 7.89439 117.559 7.49898 116.373 7.49898H113.051ZM115.186 12.8766L115.793 19.0186C115.819 19.3349 115.74 19.414 115.397 19.414H114.026C113.684 19.414 113.605 19.3349 113.631 19.0186L114.237 12.8766C114.264 12.5602 114.422 12.5075 114.712 12.5075C115.002 12.5075 115.16 12.5602 115.186 12.8766ZM129.378 17.0679C129.378 17.3051 129.325 17.3579 129.193 17.3579C129.088 17.3579 129.009 17.3051 128.93 17.1206L125.582 8.18435C125.345 7.57806 125.081 7.49898 124.317 7.49898H123.13C122.366 7.49898 122.155 7.70986 122.155 8.47432V26.2941C122.155 27.0586 122.366 27.2695 123.13 27.2695H124.58C125.345 27.2695 125.556 27.0586 125.556 26.2941V17.7006C125.556 17.4633 125.608 17.4106 125.74 17.4106C125.846 17.4106 125.925 17.4633 126.004 17.6478L129.299 26.3732C129.562 27.0849 129.8 27.2695 130.617 27.2695H131.829C132.594 27.2695 132.805 27.0586 132.805 26.2941V8.47432C132.805 7.70986 132.594 7.49898 131.829 7.49898H130.353C129.589 7.49898 129.378 7.70986 129.378 8.47432V17.0679Z" fill="black"/>
<path d="M9.01212 24.2929C9.64374 23.8099 9.93418 24.6305 9.30345 25.1132C6.83248 27.0039 3.89958 24.8059 4.05533 22.7051C1.15775 23.086 -1.92734 17.9824 1.53007 14.6698C-1.84042 9.42908 4.81926 2.76792 9.27735 4.35629C13.1629 -1.9364 22.1947 -0.755656 24.8805 3.74218C29.8198 0.676377 35.7526 7.81815 34.6175 11.0035C39.0362 11.5702 39.2975 17.1253 37.0737 20.9094C35.6476 23.335 33.0725 24.9379 30.336 24.3475C29.982 25.3707 28.6903 25.873 27.8647 25.8077C27.1954 25.7549 27.1936 24.6994 27.6312 24.6946C28.3097 24.6869 28.8114 24.7554 29.3881 23.6684C29.497 23.3382 29.3908 22.9229 29.9008 23.0991C32.5168 24.0031 34.9988 22.6743 36.351 19.9529C38.05 16.5358 37.6299 12.1409 33.718 11.8378C33.0078 11.7826 34.5398 11.1711 33.1051 8.39844C31.614 5.51747 27.5268 2.36533 24.7716 4.56396C23.6081 5.49225 24.402 3.61343 21.0564 1.90312C17.2356 -0.0501639 11.8928 0.632773 9.83509 4.88437C9.66599 5.23355 9.15838 5.50797 8.92638 5.38663C4.93259 3.29629 -0.647201 9.62518 2.6414 14.1726C3.00571 14.6766 0.970845 15.1495 1.03166 17.6932C1.091 20.1532 3.1671 22.4533 4.53832 21.9448C5.574 21.5606 4.20634 23.0712 6.38421 24.4935C7.12114 24.975 8.28558 24.8492 9.01212 24.2929" fill="black"/>
<path d="M27.0929 22.3111C26.976 24.7192 27.2534 27.2792 27.6097 29.3962C24.6928 30.1492 21.7709 30.5886 18.8724 30.5951C15.7591 30.6025 12.6729 30.1109 9.6492 28.9735C10.0812 25.258 10.0669 20.4219 9.37656 16.7506C11.9828 14.6333 15.4384 13.4668 18.8724 13.3288C22.366 13.1885 25.8374 14.1126 28.3683 16.1867C27.6382 17.6344 27.1851 20.4308 27.0929 22.3111V22.3111ZM29.2838 16.0324C26.496 13.6842 22.7066 12.4121 18.8724 12.3999C15.1783 12.3884 11.4426 13.5463 8.52036 16.0431C8.33435 16.1988 8.21865 16.3952 8.24624 16.5341C8.90426 19.8292 9.11667 26.2791 8.60373 29.5318C8.58356 29.6357 8.61767 29.7184 8.71083 29.7546C11.755 30.9185 14.9 31.4519 18.1278 31.4611C18.3752 31.4617 18.6232 31.4596 18.8724 31.4543C21.8617 31.389 24.9207 30.8849 28.0357 30.0261C28.3973 29.935 28.9314 29.5692 28.8863 29.3209C28.2624 25.8988 27.4984 19.6737 29.2624 16.3985C29.3574 16.2493 29.3719 16.1072 29.2838 16.0324" fill="black"/>
<path d="M9.07544 29.3947C8.42455 29.5852 8.67286 28.775 9.34215 28.5795C15.7066 26.7197 22.0154 26.6301 28.325 28.8082C28.7566 28.9574 27.9799 29.5104 27.5305 29.6442C21.0906 31.5628 14.9923 31.6299 9.07544 29.3947" fill="black"/>
<path d="M9.61898 26.4349C9.33863 26.5277 9.15944 26.4239 9.21818 26.2032C9.27692 25.9824 9.55223 25.7276 9.83229 25.635C12.942 24.605 15.9514 24.0909 18.9546 24.0989C21.9368 24.1066 24.91 24.6305 27.9678 25.6757C28.1514 25.7395 28.1224 25.978 27.9028 26.2088C27.6839 26.4396 27.357 26.5752 27.1733 26.5117C24.1731 25.4861 21.2672 24.9723 18.3631 24.9646C15.48 24.9568 12.5952 25.449 9.61898 26.4349" fill="black"/>
<path d="M19.3089 23.737C19.1959 23.731 19.1745 23.629 19.2621 23.5097C19.349 23.3901 19.5119 23.2982 19.6252 23.3041C19.8251 23.3145 20.0396 23.3281 20.2645 23.3465C20.4852 23.3643 20.703 23.3863 20.9092 23.4121C21.0172 23.4257 21.0275 23.5334 20.9338 23.6521C20.8392 23.7708 20.6751 23.8562 20.568 23.8426C20.3571 23.8159 20.1455 23.7948 19.9382 23.7779C19.7353 23.7616 19.5222 23.7479 19.3089 23.737V23.737ZM9.67097 25.2049C9.53064 25.2512 9.44105 25.1992 9.47042 25.0889C9.49979 24.9785 9.63744 24.851 9.77747 24.8047C11.2668 24.3116 12.7261 23.9357 14.1706 23.6788C15.6121 23.4228 17.037 23.2854 18.4602 23.2685C18.5782 23.2673 18.6091 23.3631 18.529 23.4827C18.4492 23.6023 18.2881 23.7002 18.1697 23.7014C16.7739 23.718 15.3768 23.8527 13.965 24.1036C12.5561 24.354 11.1297 24.7216 9.67097 25.2049" fill="black"/>
<path d="M9.54426 15.5636C9.53239 15.501 9.60359 15.4049 9.70298 15.3497C9.80236 15.2946 9.89255 15.3002 9.90412 15.3634C10.1797 16.8817 10.4085 18.4031 10.5482 19.9401C10.6882 21.4781 10.739 23.0312 10.6594 24.6109C10.6562 24.6815 10.5719 24.7753 10.4717 24.8207C10.3717 24.8658 10.2937 24.8453 10.2972 24.7747C10.3764 23.2017 10.3254 21.657 10.1866 20.1273C10.0474 18.5962 9.81898 17.0787 9.54426 15.5636" fill="black"/>
<path d="M10.3411 15.2975C10.3295 15.2346 10.4007 15.1385 10.5001 15.0836C10.5995 15.0282 10.6897 15.0344 10.7012 15.0973C10.8864 16.1175 11.0507 17.1393 11.1807 18.1652C11.3103 19.1907 11.4067 20.2226 11.4563 21.2645C11.4595 21.3315 11.3815 21.4268 11.2815 21.4766C11.1818 21.5267 11.0979 21.5128 11.0943 21.4457C11.0451 20.4107 10.949 19.3824 10.8193 18.358C10.6897 17.3342 10.5259 16.3148 10.3411 15.2975" fill="black"/>
<path d="M11.0051 14.8537C10.9936 14.7908 11.0648 14.695 11.1642 14.6398C11.2635 14.5846 11.3537 14.5905 11.3653 14.6534C11.4635 15.1966 11.5564 15.7392 11.6406 16.2807C11.7255 16.8274 11.8023 17.3721 11.8687 17.9138C11.8768 17.9788 11.8023 18.0746 11.7023 18.1277C11.6026 18.1808 11.5148 18.171 11.5068 18.1064C11.4398 17.5587 11.3635 17.0158 11.2796 16.4774C11.1953 15.9341 11.103 15.393 11.0051 14.8537" fill="black"/>
<path d="M27.8941 15.6918C27.9828 15.4942 28.3178 15.5004 28.2315 15.6921C27.4115 17.5178 26.7457 20.3632 26.6757 22.4541C26.6704 22.6229 26.401 22.808 26.4063 22.644C26.4781 20.5154 27.0587 17.5519 27.8941 15.6918Z" fill="black"/>
<path d="M10.1978 25.9895C10.2017 25.9189 10.2862 25.8252 10.3862 25.7804C10.4859 25.7359 10.5636 25.757 10.5594 25.8276L10.4126 28.4157C10.4087 28.4863 10.3245 28.5801 10.2245 28.6246C10.1248 28.6694 10.0468 28.6483 10.0509 28.578L10.1978 25.9895" fill="black"/>
<path d="M10.8781 25.8424C10.882 25.7721 10.9665 25.6783 11.0662 25.6335C11.1662 25.5887 11.2439 25.6098 11.2397 25.6804L11.143 27.386C11.1389 27.4563 11.0546 27.55 10.9546 27.5948C10.855 27.6393 10.7775 27.6185 10.7814 27.5479L10.8781 25.8424Z" fill="black"/>
<path d="M11.5781 25.5831C11.5781 25.5146 11.6591 25.42 11.7588 25.3725C11.8588 25.3247 11.9401 25.3419 11.9401 25.4105L11.9407 26.4106C11.9407 26.4791 11.8597 26.5737 11.7597 26.6212C11.6597 26.669 11.5787 26.6518 11.5784 26.5832L11.5781 25.5831Z" fill="black"/>
<path d="M16.1785 26.9579C16.1188 26.9621 16.0666 26.917 16.0628 26.8574C16.0586 26.798 16.1034 26.7458 16.163 26.742C18.1163 26.5987 20.0631 26.626 21.9926 26.8488C23.9222 27.0716 25.836 27.4908 27.7217 28.1298C27.7777 28.1488 27.8083 28.2105 27.7893 28.2672C27.7703 28.3235 27.7083 28.3541 27.6519 28.3348C25.7814 27.7008 23.8827 27.2852 21.9677 27.0641C20.0515 26.8428 18.1178 26.8158 16.1785 26.9579" fill="black"/>
<path d="M2.02174 14.398C1.95974 14.3393 2.01403 14.207 2.14278 14.1031C2.27154 13.9993 2.42611 13.9631 2.48781 14.0222C3.32383 14.8214 4.28891 15.4396 5.38511 15.7903C6.37688 16.1075 7.47456 16.2048 8.67905 16.0176C8.8087 15.9974 8.86477 16.0766 8.80454 16.1944C8.74432 16.3122 8.59034 16.4243 8.4607 16.4445C7.18531 16.6426 6.03007 16.5418 4.99202 16.2098C3.86704 15.8499 2.87764 15.2163 2.02174 14.398" fill="black"/>
<path d="M4.52706 22.3716C4.18826 22.5304 4.18766 22.1746 4.53269 22.013C8.52322 20.1466 8.32712 17.9198 9.00146 17.7424C9.7105 17.5558 8.16988 19.7117 7.47567 20.3822C6.55035 21.2754 5.4595 21.9364 4.52706 22.3716" fill="black"/>
<path d="M9.0733 4.87456C9.09466 4.62773 9.81973 4.35094 9.79926 4.59094C9.64885 6.34991 10.0939 12.5388 12.4198 13.8575C12.6058 13.9631 12.3245 14.2159 12.137 14.1093C9.72539 12.742 8.91725 6.69672 9.0733 4.87456" fill="black"/>
<path d="M23.9805 4.34772C23.9695 4.12552 24.5958 3.95048 24.6062 4.16734C24.6996 6.05032 24.2199 11.3121 21.8789 13.1957C21.5609 13.452 21.3677 13.3478 21.6727 13.0832C23.6827 11.3379 24.0651 6.01442 23.9805 4.34772" fill="black"/>
<path d="M33.7551 10.9733C33.856 10.6965 34.3253 10.9884 34.228 11.2545C33.5273 13.1728 31.0996 15.4506 28.5311 15.8832C28.2243 15.9345 28.184 15.728 28.5002 15.6746C30.7727 15.2916 33.141 12.6497 33.7551 10.9733Z" fill="black"/>
<path d="M27.7114 19.9105C27.6714 19.6951 27.9188 19.2789 27.9582 19.4904C28.2359 20.9815 29.1236 22.1619 30.1984 23.321C30.3352 23.4688 29.8184 23.8622 29.6798 23.7132C28.5801 22.5266 27.9959 21.4387 27.7114 19.9105" fill="black"/>
<path d="M28.2885 4.96239C28.2013 4.92649 28.2215 4.80456 28.3345 4.69034C28.4475 4.57642 28.6101 4.51323 28.6982 4.54913L28.7905 4.58651L28.7991 4.59037C30.2848 5.2113 31.6436 6.54543 32.5105 8.02493C33.356 9.46764 33.7671 11.0602 33.3524 12.2848C34.0113 12.2282 34.5409 12.3225 35.0096 12.5329C35.5611 12.7806 35.9848 13.1888 36.29 13.6991C36.5938 14.2061 36.7825 14.8145 36.8656 15.4652C37.0213 16.6877 36.8068 18.0681 36.29 19.2198C35.6922 20.5516 35.0188 21.7267 33.8484 22.423C32.7116 23.0988 31.1633 23.2608 28.8471 22.5592C28.7528 22.5304 28.7632 22.4126 28.8703 22.2966C28.9783 22.1803 29.142 22.1094 29.2367 22.1385C31.4125 22.7971 32.7997 22.6847 33.7591 22.1142C34.6845 21.5638 35.2692 20.5184 35.8074 19.3186C36.2972 18.2284 36.4992 16.9135 36.3497 15.7411C36.2693 15.1133 36.0883 14.5283 35.7976 14.0426C35.5083 13.5596 35.1099 13.1743 34.5946 12.9428C33.3726 12.3943 32.7012 13.0787 32.8869 12.5883C33.3408 11.4375 32.862 9.81 32.0168 8.36758C31.1662 6.91567 29.838 5.60854 28.3888 5.00274L28.3814 4.99977L28.2885 4.96239" fill="black"/>
<path d="M26.6312 4.65564C26.5107 4.65979 26.4757 4.56663 26.5522 4.44708C26.6294 4.32781 26.7893 4.22725 26.9097 4.22309C26.9916 4.22013 27.0756 4.22012 27.1607 4.2222C27.2488 4.22457 27.3334 4.22932 27.4123 4.23644C27.5229 4.24623 27.5384 4.35095 27.4482 4.46992C27.3571 4.58918 27.1936 4.67788 27.0836 4.6678C27.0026 4.66097 26.9266 4.65623 26.8554 4.65415C26.7827 4.65237 26.7077 4.65297 26.6312 4.65564" fill="black"/>
<path d="M2.5913 10.5134C2.55986 10.765 2.04513 10.9706 2.07598 10.7261C2.42843 7.93089 4.79617 5.64326 7.41251 5.41868C7.70414 5.39376 7.45938 5.82482 7.15708 5.85063C4.82999 6.05059 2.90488 8.05015 2.5913 10.5134V10.5134ZM2.67912 12.3661C2.73519 12.5723 2.22284 12.8714 2.16766 12.6684C2.03772 12.1923 1.89768 11.6894 2.28306 11.4978C2.66517 11.3079 2.48124 11.6405 2.67912 12.3661ZM9.24386 23.6969C9.4186 23.5631 9.52452 23.5417 9.53104 23.5898V23.5999C9.526 23.642 9.46459 23.7215 9.33494 23.8206C7.22057 25.4384 5.06703 23.6385 5.45745 21.6997C3.71865 22.137 1.71701 20.4193 1.39453 18.3378V17.1894C1.5313 16.3338 1.98847 15.4717 2.88797 14.7155C3.18554 14.4651 3.20393 14.8846 3.04818 15.0086C1.30583 16.3991 1.45357 18.2803 2.32341 19.6634C3.14015 20.9625 4.58968 21.8228 5.84015 21.4253C6.32729 21.2701 5.60371 21.6546 6.1125 22.7876C6.64858 23.9814 8.11028 24.5644 9.24386 23.6969" fill="black"/>
<path d="M8.78846 17.5261C8.7852 17.4819 8.76028 17.4617 8.70687 17.476C8.38914 17.5593 8.40961 18.6665 6.71621 20.1579C6.56906 20.2872 6.699 20.3801 6.84734 20.2493C7.28226 19.8663 7.68929 19.4337 8.03551 18.9522C8.08268 18.887 8.77007 17.8418 8.78846 17.5481V17.5261ZM5.96622 20.9375C5.92706 20.9642 5.80098 20.9951 5.79297 20.9494V20.9405C5.79801 20.8999 5.87307 20.8153 6.10091 20.6551C6.67023 20.2546 6.56224 20.5186 6.18606 20.7824C6.11842 20.8322 6.05315 20.8782 5.96622 20.9375Z" fill="black"/>
<path d="M5.29495 15.5076C5.25253 15.4889 5.2644 15.4272 5.32165 15.3708C5.37861 15.3142 5.4599 15.2839 5.50233 15.3026C6.03634 15.5414 6.60654 15.6684 7.20641 15.7117C7.80628 15.755 8.4373 15.7156 9.09324 15.6206C9.15761 15.6114 9.18491 15.6518 9.15406 15.7105C9.1232 15.7696 9.04577 15.8253 8.98139 15.8348C8.30943 15.9315 7.66209 15.9722 7.04531 15.9277C6.42883 15.8832 5.8429 15.7526 5.29495 15.5076Z" fill="black"/>
<path d="M28.9623 16.3842C28.8012 16.4255 28.6585 16.2246 28.8231 16.1825C30.7601 15.6862 31.8038 15.0169 33.143 13.486C33.2664 13.3451 33.469 13.4866 33.3474 13.6258C31.948 15.2254 30.5975 16.0395 28.9623 16.3842Z" fill="black"/>
</svg>
