<svg width="240" height="200" viewBox="0 0 240 200" fill="none" xmlns="http://www.w3.org/2000/svg">
<path d="M159.222 152.541C146.915 152.808 134.608 153.341 122.302 153.821C109.942 154.315 97.5683 154.715 85.195 154.755C79.0083 154.781 72.835 154.835 66.6483 154.795C64.235 154.781 61.8483 154.741 59.4616 154.715C58.9416 154.168 58.3816 153.701 57.795 153.355C59.2883 151.461 60.7817 149.568 62.3017 147.688C62.8084 148.275 63.1018 149.075 63.0884 150.075C63.0884 150.475 63.755 150.475 63.7283 150.075C63.675 149.008 63.395 148.008 62.6483 147.261C63.8483 145.768 65.0618 144.275 66.2884 142.795C67.3551 144.875 68.7685 146.741 70.4752 148.475C70.7552 148.768 71.2083 148.315 70.9283 148.021C69.2083 146.275 67.7818 144.395 66.7551 142.275C66.8884 142.155 67.0351 142.048 67.1684 141.928C69.3417 140.061 71.6752 138.155 73.9418 136.155C75.2218 138.101 76.4884 140.061 77.7551 142.008C77.9418 142.288 78.4085 142.021 78.2085 141.741C76.8885 139.795 75.5684 137.848 74.2351 135.901C76.6351 133.795 78.9551 131.568 80.9551 129.168C81.7151 130.075 82.3951 131.101 83.2218 132.075C83.4751 132.368 83.8883 131.995 83.7283 131.688C83.1416 130.555 82.3683 129.488 81.4483 128.595C82.4083 127.408 83.2883 126.181 84.0483 124.915C84.4217 124.275 83.7017 123.661 83.1017 123.968C82.9284 124.048 82.7683 124.141 82.595 124.235C83.5016 123.261 84.4083 122.315 85.3283 121.355C85.835 121.901 86.3552 122.435 86.8752 122.968C88.0485 124.195 89.1817 125.675 90.5817 126.661C90.835 126.835 91.1952 126.475 91.0085 126.221C90.1152 124.941 88.7952 123.928 87.6752 122.848C87.0085 122.221 86.3551 121.595 85.7017 120.955C87.3817 119.221 89.075 117.515 90.7817 115.808C91.595 116.688 92.4084 117.568 93.2218 118.435C94.0751 119.355 94.915 120.595 96.0483 121.195C96.3283 121.341 96.6352 121.048 96.4752 120.755C95.9418 119.741 94.8751 118.995 94.0351 118.221C93.0617 117.315 92.0751 116.408 91.1017 115.501C93.5684 113.061 96.0618 110.661 98.6085 108.315C99.2885 110.008 100.168 111.555 101.448 112.941C101.715 113.248 102.195 112.781 101.888 112.488C100.555 111.195 99.6083 109.715 98.8616 108.088C102.302 104.915 105.808 101.848 109.395 98.9013C112.395 101.141 115.502 103.221 118.768 105.061C122.742 107.301 128.382 110.835 132.982 108.488C134.875 107.528 136.342 105.555 137.782 104.048C139.955 101.755 142.315 99.5946 144.675 97.4613C146.115 99.088 147.542 100.728 148.942 102.381C148.875 102.408 148.808 102.448 148.768 102.541C148.288 103.461 147.795 104.368 147.235 105.248C146.608 106.221 145.702 107.008 145.115 108.008C144.955 108.275 145.275 108.608 145.555 108.435C147.368 107.301 148.422 104.715 149.315 102.861C149.328 102.848 149.315 102.835 149.328 102.821C150.768 104.528 152.208 106.235 153.635 107.941C152.862 110.381 152.208 112.901 152.368 115.448C152.382 115.875 152.968 115.861 152.995 115.448C153.222 113.061 153.582 110.848 154.168 108.595C156.608 111.528 159.008 114.475 161.408 117.435C161.382 117.888 161.342 118.341 161.275 118.808C161.048 120.195 160.328 121.355 159.688 122.581C159.502 122.955 159.995 123.221 160.248 122.901C161.355 121.461 161.822 119.848 161.995 118.155C163.728 120.288 165.462 122.421 167.208 124.555C167.115 126.288 166.088 127.568 165.302 129.035C165.195 129.221 165.488 129.381 165.568 129.195C166.302 127.701 167.248 126.381 167.302 124.675C168.155 125.728 169.008 126.768 169.862 127.808C170.622 128.728 171.328 129.675 172.035 130.621C170.968 131.888 170.235 133.368 169.502 134.861C163.955 129.541 157.915 124.715 152.715 119.061C152.675 119.008 152.595 119.075 152.648 119.128C157.822 124.835 163.848 129.741 169.382 135.101C169.195 135.488 168.995 135.861 168.808 136.248C168.608 136.608 169.195 136.941 169.355 136.568C169.515 136.221 169.662 135.875 169.808 135.515C169.982 135.688 170.155 135.848 170.328 136.021C171.662 137.341 173.048 138.728 174.408 140.181C174.302 140.728 174.248 141.301 174.222 141.875C174.208 142.275 174.862 142.275 174.862 141.875C174.862 141.488 174.875 141.101 174.915 140.728C176.968 142.955 178.942 145.355 180.568 147.915C180.262 148.701 179.502 149.355 178.955 149.915C178.755 150.115 179.062 150.408 179.248 150.221C179.795 149.675 180.462 149.061 180.835 148.341C181.622 149.608 182.302 150.915 182.862 152.261C181.062 152.288 179.275 152.341 177.542 152.341C171.435 152.315 165.328 152.408 159.222 152.541V152.541ZM56.7418 154.715C56.9552 154.448 57.1551 154.181 57.3551 153.928C57.6884 154.168 58.0083 154.435 58.3283 154.715C57.8083 154.715 57.2752 154.701 56.7418 154.715V154.715ZM54.7017 152.661C53.9684 152.768 53.2084 153.075 52.4218 153.621C52.3151 153.701 52.4083 153.875 52.5283 153.808C53.1416 153.461 53.7418 153.208 54.3551 153.101C53.9684 153.608 53.5683 154.088 53.1817 154.595C53.1283 154.661 53.0883 154.728 53.0483 154.795C51.5817 154.848 50.1018 154.955 48.6218 155.101C48.8351 154.861 48.9952 154.581 49.0752 154.235C49.1018 154.221 49.115 154.221 49.1283 154.221C51.9016 152.901 54.5284 151.368 57.0351 149.701C56.2617 150.688 55.4751 151.675 54.7017 152.661V152.661ZM84.195 76.5013C92.155 83.7413 99.9151 91.648 108.555 98.248C104.928 100.755 101.475 103.461 98.1283 106.315C98.075 106.195 97.8883 106.235 97.9283 106.368C97.9283 106.395 97.9418 106.421 97.9551 106.461C93.1418 110.555 88.5551 114.928 84.0884 119.408C83.9284 119.261 83.7683 119.101 83.595 118.941C83.395 118.755 83.1151 119.048 83.3017 119.248C83.4617 119.408 83.6084 119.568 83.7684 119.741C82.6084 120.901 81.4616 122.075 80.3283 123.235C79.3283 124.275 78.3418 125.301 77.3551 126.341C76.9684 126.275 76.5684 126.221 76.1684 126.221C75.9551 126.221 75.9551 126.528 76.1684 126.541C76.4751 126.555 76.7683 126.608 77.0483 126.648C73.3417 130.568 69.7285 134.581 66.2085 138.661C66.0085 138.861 65.795 139.048 65.595 139.235C65.5816 139.181 65.5552 139.115 65.5418 139.048C65.4352 138.648 64.8216 138.821 64.9283 139.221C64.9683 139.395 65.0352 139.555 65.0752 139.728C60.1018 144.435 54.8885 149.088 49.1418 152.808C49.2618 134.461 48.7816 116.141 48.2616 97.8079C47.7683 80.5012 47.3151 63.128 46.2218 45.848C58.1151 56.9413 72.1683 65.5546 84.195 76.5013V76.5013ZM56.5418 45.0613C57.0218 47.368 57.4083 49.6479 57.5817 52.0212C54.9817 50.2612 52.395 48.4745 49.8483 46.6212C48.6217 45.7145 47.3551 44.8613 46.1017 43.9946C46.1017 43.9813 46.1018 43.9546 46.0884 43.9412C49.5551 44.4746 53.0485 44.8213 56.5418 45.0613V45.0613ZM72.7684 45.7412C72.9417 47.2612 73.1952 49.6745 73.2085 49.9545C73.3152 51.8079 73.2616 53.7812 74.0616 55.4879C74.2083 55.7812 74.6616 55.6346 74.6616 55.328C74.6083 52.528 73.9684 49.6747 73.5684 46.9014C73.5551 46.8081 73.5151 46.3014 73.4218 45.7681C75.9684 45.8481 78.515 45.9412 81.0483 46.0746C81.4483 46.0879 81.8483 46.1013 82.2483 46.128C82.6083 46.8746 82.9017 47.6346 83.115 48.4613C83.5417 50.128 83.195 51.8214 83.1283 53.5014C83.115 53.8081 83.595 53.9679 83.7283 53.6746C84.8083 51.1546 84.2083 48.5012 82.995 46.1545C89.795 46.4879 96.5817 46.7279 103.382 46.9545C103.368 49.1412 103.342 51.3281 103.328 53.5014C103.328 53.7147 103.648 53.7147 103.648 53.5014C103.635 51.3281 103.622 49.1412 103.608 46.9545C107.155 47.0745 110.715 47.1947 114.262 47.3147V51.6879C114.262 51.8879 114.582 51.8879 114.582 51.6879V47.3147C116.155 47.368 117.742 47.4345 119.315 47.4879C127.435 47.7812 135.555 47.9813 143.662 48.128C141.408 51.488 139.448 55.2612 138.008 58.9412C137.955 59.0612 138.155 59.1412 138.195 59.0212C139.942 55.1145 142.648 51.8212 144.742 48.1412C148.395 48.2079 152.062 48.2747 155.728 48.3147C154.035 50.5947 152.608 53.0479 150.675 55.1412C150.435 55.3946 150.808 55.7547 151.048 55.5147C153.182 53.408 155.022 50.9146 156.528 48.328C156.822 48.3413 157.115 48.3412 157.408 48.3412C163.515 48.4212 169.608 48.5279 175.715 48.6212C178.755 48.6612 181.795 48.6881 184.822 48.7014C185.448 48.7014 186.088 48.7414 186.755 48.7681C185.848 49.7281 184.982 50.728 184.128 51.728C181.835 53.408 179.342 54.7547 176.355 55.3014C176.328 55.3014 176.342 55.3679 176.382 55.3545C178.755 54.8745 181.035 54.0212 183.168 52.8746C180.888 55.6612 178.768 58.5812 176.635 61.4746C171.395 68.5412 166.088 74.8346 159.035 80.1412C151.862 85.5279 145.182 91.1946 138.462 97.1013C136.155 99.1279 134.168 101.421 131.995 103.568C130.368 105.195 129.115 104.888 127.048 104.115C120.328 101.608 114.235 97.0879 108.662 92.6746C102.515 87.7946 96.7416 82.4747 90.9283 77.2213C85.035 71.888 78.9818 66.9814 72.5551 62.3014C67.8884 58.9014 63.0483 55.7279 58.2616 52.4879C58.3016 49.9545 57.6751 47.5145 56.9684 45.0879C59.6484 45.2745 62.315 45.3947 64.995 45.5014C64.955 48.3147 65.0483 51.3546 66.7817 53.6746C67.0217 53.9946 67.5283 53.7146 67.3283 53.3412C65.9816 50.7412 65.5818 48.3147 65.4752 45.5147C67.9152 45.5947 70.3417 45.6746 72.7684 45.7412V45.7412ZM176.128 136.608C175.262 137.475 174.742 138.621 174.462 139.875C173.542 138.888 172.608 137.941 171.702 137.008C171.115 136.421 170.515 135.848 169.915 135.261C170.568 133.728 171.208 132.181 172.195 130.835C173.582 132.715 174.875 134.648 176.128 136.608V136.608ZM145.808 96.448C146.315 95.9947 146.822 95.5413 147.328 95.088C154.022 89.1013 162.022 84.5547 168.475 78.3547C174.155 72.8747 178.662 66.2746 183.368 59.9946C185.395 57.3013 187.488 54.6612 189.795 52.2079C189.435 58.5279 189.582 64.9279 189.715 71.2079C189.875 79.8746 190.075 88.5679 190.488 97.2346C191.182 111.515 191.835 125.795 192.022 140.075C190.302 142.635 190.262 146.581 190.195 150.155C189.368 149.301 188.568 148.435 187.835 147.488C185.995 145.115 184.395 142.555 182.795 140.008C179.568 134.861 176.382 129.861 172.462 125.208C164.142 115.328 156.008 104.541 145.808 96.448V96.448ZM180.715 147.341C180.702 147.381 180.688 147.421 180.688 147.475C179.008 144.941 177.008 142.595 174.955 140.381C175.115 139.101 175.542 137.888 176.355 136.955C177.715 139.115 179.048 141.301 180.408 143.501C182.075 146.208 183.995 149.435 186.275 152.221C185.275 152.221 184.275 152.235 183.288 152.248C182.648 150.768 181.875 149.341 180.995 147.968C181.075 147.768 181.128 147.555 181.128 147.341C181.155 147.061 180.728 147.061 180.715 147.341V147.341ZM195.275 153.021C194.635 152.875 193.968 152.755 193.302 152.661C193.342 152.515 193.382 152.368 193.422 152.235C194.915 152.915 197.102 152.208 197.088 150.075C196.982 132.808 196.035 115.595 195.048 98.3679C194.542 89.6879 193.835 81.0212 193.315 72.3412C192.875 64.9146 192.675 57.4212 191.982 50.0079C192.755 49.2612 193.555 48.5281 194.382 47.8347C196.315 46.2214 194.248 43.6612 192.208 44.0879C190.262 43.4079 188.022 43.7012 185.968 43.6746C182.928 43.6612 179.888 43.6081 176.862 43.5681C170.755 43.4614 164.648 43.3146 158.555 43.0613C145.862 42.5413 133.168 41.8212 120.475 41.3545C107.728 40.8745 94.9685 40.2079 82.2085 40.1545C70.1952 40.1145 57.835 39.4481 45.915 41.2347C45.9017 41.0747 45.8885 40.9145 45.8752 40.7545C45.8218 39.8612 44.5551 39.8612 44.5017 40.7545C44.4751 41.0212 44.4617 41.3014 44.4483 41.5681C44.1417 41.7947 43.995 42.1679 43.9817 42.5412C43.835 42.4479 43.7018 42.3547 43.5551 42.248C43.2084 42.008 42.8084 42.5414 43.1017 42.8347C43.4884 43.2347 43.8884 43.608 44.2884 43.9946C43.2351 61.5013 43.5818 79.1413 43.9418 96.648C44.3285 115.675 44.7285 134.688 44.8752 153.715C44.8885 155.035 45.8751 155.715 46.8884 155.755C46.9018 155.768 46.9152 155.781 46.9418 155.795C52.6885 157.621 58.3418 158.168 64.3418 158.648C70.5152 159.155 76.6885 159.528 82.8752 159.621C95.6352 159.821 108.395 159.568 121.142 159.248C133.448 158.928 145.768 158.515 158.075 158.248C164.182 158.115 170.288 158.048 176.395 158.061C182.582 158.061 189.168 158.928 195.275 158.048C197.875 157.675 197.688 153.541 195.275 153.021" fill="black"/>
</svg>
