<svg width="240" height="200" viewBox="0 0 240 200" fill="none" xmlns="http://www.w3.org/2000/svg">
<path d="M166.487 112.078C163.938 118.015 160.785 123.716 157.196 129.072C157.565 128.378 157.934 127.685 158.314 127.003C161.053 122.04 163.714 117.031 166.487 112.078ZM132.322 157.882C130.667 159.38 128.89 160.811 127.112 162.242C134.792 151.744 141.355 140.173 148.476 129.34C156.134 117.691 163.904 106.086 171.942 94.6941C171.07 99.0877 169.829 103.414 168.264 107.64C164.821 113.364 161.59 119.211 158.314 125.036C155.486 130.055 152.076 134.851 149.058 139.804C143.77 146.02 138.359 152.392 132.322 157.882V157.882ZM125.569 173.667C123.311 173.958 121.008 174.092 118.694 174.081C118.94 173.768 119.208 173.488 119.465 173.186C121.5 173.321 123.546 173.455 125.569 173.667ZM132.445 177.435C124.216 180.308 115.228 182.119 106.43 181.728C112.411 181.202 118.258 179.346 124.026 176.987C127.034 176.641 129.929 176.551 132.445 177.435V177.435ZM107.391 175.456C113.45 175.467 119.521 175.646 125.558 175.132C124.764 175.467 123.959 175.802 123.166 176.127C117.397 176.887 111.416 178.15 107.391 175.456ZM105.837 174.092C105.938 174.092 106.027 174.081 106.117 174.081C106.642 174.181 107.156 174.271 107.682 174.36C107.145 174.36 106.608 174.36 106.083 174.36C105.994 174.282 105.915 174.181 105.837 174.092ZM95.0823 153.667C101.231 146.165 108.185 139.48 114.49 132.112C120.784 124.756 126.486 116.494 134.368 110.714C138.325 109.597 142.037 107.953 145.413 105.84C129.94 123.415 116.055 142.286 101.287 160.464C99.107 158.306 97.0388 156.037 95.0823 153.667V153.667ZM86.4404 141.816C96.1667 132.168 105.927 122.61 114.759 112.123C116.089 112.268 117.419 112.369 118.738 112.447C120.08 112.514 121.41 112.526 122.73 112.481C111.729 123.94 99.5095 134.337 90.1968 147.283C88.9 145.483 87.659 143.661 86.4404 141.816V141.816ZM115.127 17.9681C107.123 22.4959 98.4809 27.1577 91.1471 32.714C85.0877 37.32 79.8891 42.9322 74.2545 48.019C75.4619 45.6824 76.826 43.4129 78.3687 41.2329C81.1078 37.3648 84.4392 33.7314 88.1732 30.5228C92.9469 27.2472 98.3915 25.2012 103.333 21.9032C103.612 21.7132 103.445 21.1878 103.098 21.3331C101.611 21.9368 100.091 22.6076 98.5703 23.3231C105.446 19.6003 113.026 17.342 120.706 17.2861C120.728 17.342 120.751 17.3755 120.818 17.3867C121.757 17.5209 122.696 17.6662 123.635 17.8339C105.468 30.7352 86.541 42.8764 70.1628 58.0472C71.169 54.8386 72.4099 51.7082 73.9192 48.7009C79.5202 44.0613 84.7411 39.0305 90.4091 34.4357C98.1119 28.1863 108.319 25.2683 115.619 18.6052C115.966 18.2922 115.53 17.7445 115.127 17.9681V17.9681ZM144.765 25C142.126 27.2248 139.32 29.2371 136.492 31.2383C139.443 29.3042 142.45 27.4372 145.189 25.2236C146.62 26.0174 148.029 26.8671 149.382 27.7838C149.359 27.795 149.348 27.7838 149.326 27.7949C144.474 30.3215 140.695 34.8605 136.156 37.9014C135.776 38.1585 136.123 38.7734 136.514 38.5274C141.187 35.6207 145.659 32.0321 149.986 28.6447C150.109 28.5552 150.153 28.4433 150.164 28.3315C152.322 29.8408 154.368 31.529 156.246 33.3848C156.179 33.3736 156.101 33.396 156.034 33.4407C154.211 34.6034 152.736 36.7051 151.126 38.1696C149.125 40.0031 147.023 41.736 144.955 43.5136C144.642 43.7819 145.089 44.2067 145.402 43.9608C147.347 42.4068 149.315 40.8752 151.238 39.2989C152.971 37.8567 155.654 36.1014 156.582 33.9997C156.615 33.9214 156.626 33.8319 156.615 33.7537C157.834 34.9834 158.996 36.2915 160.081 37.6778C158.616 38.8181 157.476 40.5733 156.369 41.9261C154.424 44.3073 152.367 46.465 149.55 47.7842C146.799 45.2464 143.725 43.0329 140.438 41.1994C145.055 38.9746 149.617 35.4307 153.105 31.775C153.317 31.5626 153.038 31.16 152.781 31.3501C148.42 34.4468 145.078 38.5386 140.304 41.1211C136.771 39.1647 133.026 37.6554 129.191 36.6604C129.426 36.448 129.672 36.2357 129.918 36.0232C129.65 36.2245 129.393 36.4368 129.124 36.6493C128.811 36.5598 128.498 36.4815 128.185 36.4033C125.625 35.7996 123.02 35.4195 120.393 35.1624C126.598 30.3998 133.339 26.7888 140.047 22.6971C141.657 23.4014 143.233 24.1616 144.765 25V25ZM163.379 42.5297C161.411 43.9607 159.835 45.7831 158.314 47.6836C156.951 49.3717 155.508 51.1158 154.39 52.9939C153.094 51.3393 151.663 49.7742 150.131 48.3096C152.535 47.2252 154.435 45.6041 156.235 43.6477C157.275 42.5297 158.259 41.3448 159.298 40.2156C159.779 39.679 160.327 39.1983 160.841 38.7064C161.053 38.9858 161.277 39.2653 161.478 39.5671C162.138 40.5286 162.775 41.5124 163.379 42.5297ZM161.199 84.6659C166.04 79.7021 169.427 72.5695 172.099 66.1971C172.501 68.4442 172.814 70.7025 173.027 72.9608C168.398 80.943 163.01 88.4334 157.655 95.935C151.372 104.733 145.547 113.811 139.499 122.766C133.641 131.408 126.922 139.111 119.644 146.579C114.345 152.001 108.878 157.691 105.96 164.791C104.708 163.728 103.501 162.61 102.315 161.47C117.71 142.431 132.053 122.475 148.13 103.984C154.368 99.2889 159.063 92.76 161.199 84.6659V84.6659ZM170.69 59.9365C170.567 59.8917 170.433 59.9141 170.321 60.0371C167.091 63.4357 164.978 67.6728 162.227 71.4291C161.937 68.9361 161.378 66.5101 160.561 64.1847C163.748 61.2668 166.364 57.8458 168.991 54.436C169.628 56.236 170.187 58.0695 170.69 59.9365V59.9365ZM162.294 72.0105C165.38 68.3883 167.549 64.0842 170.88 60.6185C171.216 61.893 171.506 63.1898 171.775 64.4866C167.56 70.2441 165.85 77.4886 161.557 83.179C161.925 81.5244 162.194 79.8251 162.339 78.0588C162.507 76.0017 162.484 73.9781 162.294 72.0105V72.0105ZM168.499 53.1616C165.771 56.6161 163.412 60.3501 160.349 63.5363C160.047 62.6979 159.69 61.8705 159.321 61.0544C161.232 57.6558 163.759 54.5367 166.464 51.7642C166.833 51.3952 166.263 50.8138 165.894 51.1939C163.155 53.9889 160.841 57.1751 159.153 60.6967C158.516 59.3327 157.8 58.0024 157.006 56.7279C158.661 55.2186 160.114 53.5417 161.534 51.7977C162.898 50.1319 164.374 48.6115 165.838 47.0463C166.822 49.0251 167.705 51.071 168.499 53.1616V53.1616ZM165.324 46.0178C161.903 48.7903 159.734 52.994 156.637 56.1466C155.989 55.1405 155.307 54.1678 154.569 53.2287C157.845 50.1207 160.193 46.1072 163.837 43.3123C164.351 44.2067 164.855 45.1011 165.324 46.0178V46.0178ZM74.6236 95.622C77.5414 92.8159 80.5599 90.1216 83.556 87.4049C84.115 89.0483 84.7299 90.6693 85.4231 92.2233C85.4007 92.2345 85.3783 92.2345 85.3672 92.2457C80.5152 97.2653 74.9254 101.603 70.4312 106.958C69.9393 105.125 69.4921 103.28 69.0896 101.413C70.9566 99.5236 72.7007 97.489 74.6236 95.622V95.622ZM67.1443 88.221C72.6 84.0622 76.2558 78.1817 80.5823 72.9496C80.7276 74.9843 81.0183 77.142 81.4319 79.3444C77.5414 84.5989 72.9577 89.3054 67.6809 93.1959C67.4685 91.5414 67.2785 89.8868 67.1443 88.221V88.221ZM81.2531 62.8432C80.627 65.884 80.3586 68.9809 80.5152 72.0217C80.5152 72.0665 80.5264 72.1111 80.5264 72.1447C76.1328 77.1755 72.4212 82.9554 67.0773 87.036C66.8872 84.3529 66.8313 81.6474 66.8872 78.9531C72.3988 74.28 76.9713 68.679 81.2531 62.8432V62.8432ZM68.1505 66.2642C71.728 63.514 75.0371 60.1825 78.4134 57.2422C83.0641 53.2175 87.4131 48.7232 91.0577 43.7595C91.0912 43.7259 91.0241 43.67 90.9905 43.7036C87.0553 48.5108 82.3822 52.4797 77.7202 56.549C74.7912 59.098 71.3143 61.5352 68.5194 64.3972C68.933 62.4296 69.4362 60.4843 70.0175 58.5614C87.5249 43.9831 106.284 31.2383 124.842 18.0686C125.905 18.2699 126.967 18.5047 128.018 18.7507C121.164 24.3293 115.474 30.5899 107.514 34.7376C107.38 34.8158 107.402 35.0394 107.548 35.073C111.181 35.7102 115.172 31.8979 117.777 29.852C122.003 26.5317 125.681 22.6076 129.795 19.1755C132.847 19.9804 135.854 20.9754 138.784 22.1716C135.195 24.2622 131.584 26.3081 128.051 28.5105C125.916 29.852 123.859 31.3054 121.846 32.837C121.299 33.2507 120.36 34.3463 119.488 35.073C118.861 35.0282 118.224 34.9835 117.598 34.9388C117.598 34.9276 117.598 34.9164 117.587 34.894C117.587 34.8381 117.509 34.8381 117.498 34.894C117.498 34.9052 117.498 34.9164 117.498 34.9275C115.306 34.8046 113.104 34.7488 110.913 34.7376C110.253 34.7376 109.862 35.1511 109.739 35.6542C103.948 36.1908 98.5144 37.9014 93.5059 42.0044C87.4913 46.9458 83.299 54.1677 81.4767 61.8146H81.4654C77.0495 67.4827 72.3653 72.9049 66.9096 77.5557C67.0549 73.7546 67.4685 69.9759 68.1505 66.2642V66.2642ZM67.9604 95.2418C67.9157 94.9847 67.8934 94.7276 67.8599 94.4705C73.3267 90.77 77.8321 85.3367 81.5326 79.7916C82.0021 82.1617 82.6281 84.5653 83.3883 86.9242C80.0121 89.7415 76.6135 92.5363 73.3267 95.4654C72.0745 96.5722 70.0398 98.0032 68.743 99.6466C68.4523 98.1933 68.184 96.7175 67.9604 95.2418ZM70.8895 108.59C75.339 102.844 81.2531 98.428 85.5796 92.5587C86.5523 94.7052 87.6701 96.7399 88.8999 98.5622C83.1983 103.615 77.519 108.803 72.9018 114.896C72.1752 112.816 71.5044 110.714 70.8895 108.59V108.59ZM73.3267 116.081C77.7762 109.664 83.4442 104.208 89.1235 98.8864C89.4253 99.3113 89.7273 99.7361 90.0515 100.139C91.1359 101.547 92.3433 102.777 93.629 103.906C86.8653 108.97 79.632 114.728 75.8756 122.464C74.97 120.362 74.1092 118.238 73.3267 116.081V116.081ZM76.4123 123.672C79.8668 115.757 87.4019 109.664 93.7519 104.007C95.1605 105.225 96.6698 106.276 98.2573 107.182C92.019 114.583 82.9523 119.982 78.9724 129.038C78.078 127.26 77.2172 125.472 76.4123 123.672ZM79.7438 130.514C83.2431 121.078 92.7233 115.332 98.4585 107.305C100.75 108.579 103.199 109.585 105.737 110.346C98.1679 118.596 87.2789 124.108 81.6444 133.991C80.9959 132.839 80.3587 131.676 79.7438 130.514ZM85.4342 140.274C84.4057 138.664 83.4108 137.031 82.4493 135.388C87.9497 125.192 99.2746 119.435 106.53 110.58C109.124 111.296 111.807 111.788 114.513 112.101C105.368 122.095 95.5406 131.486 85.9373 141.045C85.7696 140.788 85.6019 140.531 85.4342 140.274V140.274ZM131.316 107.897C120.471 110.323 107.503 109.429 97.9443 103.448C89.7049 98.3051 86.9994 88.0645 84.6516 79.2885C81.2977 66.7338 84.73 55.3193 93.2936 45.6936C98.0785 40.3274 104.462 38.2703 111.159 37.2641C120.181 37.3648 129.158 38.4492 137.397 42.3397C146.207 46.4986 153.149 54.7715 156.839 63.704C160.528 72.5919 159.611 82.7318 155.24 91.1725C150.377 100.541 141.31 105.65 131.316 107.897V107.897ZM90.9681 148.356C100.292 135.142 112.88 124.79 123.266 112.458C126.732 112.324 130.119 111.821 133.373 110.983C126.184 116.338 120.65 123.705 114.881 130.469C108.297 138.194 101.008 145.193 94.6128 153.085C93.3606 151.543 92.142 149.966 90.9681 148.356V148.356ZM173.362 79.2549C166.721 95.8902 153.149 109.082 142.73 123.348C131.997 138.026 117.274 150.838 109.18 167.317C108.118 166.557 107.089 165.741 106.094 164.902C109.839 156.73 117.062 150.279 123.233 143.94C129.504 137.501 135.072 130.558 140.147 123.146C145.916 114.717 151.383 106.097 157.308 97.7685C162.775 90.088 168.343 82.4635 173.15 74.3471C173.284 75.9905 173.34 77.6227 173.362 79.2549V79.2549ZM122.171 166.266C118.951 167.474 115.798 168.569 112.523 169.508C112.053 169.218 111.595 168.927 111.125 168.636C110.812 168.446 110.51 168.234 110.208 168.033C114.345 159.614 120.359 152.37 126.486 145.293C132.836 137.948 138.873 130.592 144.597 122.744C154.603 108.993 167.526 96.494 173.373 80.3058C173.373 83.7827 173.139 87.226 172.658 90.5687C172.513 91.642 172.322 92.7152 172.132 93.7773C164.206 104.163 156.738 114.851 149.494 125.729C140.93 138.597 131.494 151.364 123.903 164.813C123.322 165.294 122.741 165.774 122.171 166.266ZM101.991 174.427C102.74 174.316 103.512 174.237 104.272 174.181C104.317 174.249 104.361 174.316 104.417 174.372C103.601 174.383 102.796 174.405 101.991 174.427V174.427ZM162.361 35.3188C157.521 29.1141 151.383 24.374 144.116 21.322C138.594 19.0078 132.031 16.66 125.737 16.5818C107.38 11.8751 89.1794 23.5802 77.8879 37.32C74.1316 41.8925 71.2473 46.9792 69.1008 52.3678C69.0337 52.4237 68.9554 52.4796 68.8883 52.5355C68.8436 52.5802 68.8883 52.6586 68.9331 52.625C68.9666 52.6027 69.0002 52.5803 69.0337 52.5468C65.6239 61.211 64.1146 70.6466 64.0252 80.0487C63.9916 80.1605 63.9916 80.2723 64.0252 80.3841C63.9916 85.1243 64.3158 89.8532 64.9419 94.4481C65.6574 99.7249 66.7754 104.856 68.2288 109.842C68.1058 110.133 68.2175 110.401 68.4411 110.569C71.8956 122.174 77.2396 133.04 83.9586 143.303C83.9809 143.404 84.0368 143.493 84.1263 143.56C85.0095 144.913 85.9149 146.266 86.854 147.596C88.7546 150.302 90.7669 152.94 92.8911 155.489C92.9134 155.556 92.9693 155.623 93.0364 155.668C96.7816 160.151 100.896 164.343 105.446 167.999C106.34 168.726 107.279 169.408 108.218 170.067C108.241 170.101 108.263 170.134 108.297 170.168C107.883 170.179 107.469 170.179 107.045 170.19C106.296 170.19 106.139 171.297 106.866 171.498C108.632 171.979 110.421 172.292 112.221 172.538C113.037 172.985 113.875 173.399 114.725 173.79C112.903 173.634 111.069 173.444 109.236 173.321C107.615 173.075 106.016 172.784 104.451 172.449C103.97 172.348 103.523 172.795 103.679 173.242C101.209 173.388 98.7716 173.801 96.4015 174.752C95.8761 174.953 95.876 175.881 96.5468 175.814C99.4871 175.568 102.438 175.478 105.39 175.456C108.844 178.821 113.819 178.452 118.951 177.714C110.521 180.643 101.913 182.018 92.8352 179.123C92.0973 178.888 91.8178 180.006 92.5221 180.263C105.904 185.16 121.209 182.901 134.289 178.083C134.759 177.904 134.949 177.222 134.435 176.954C132.311 175.814 129.739 175.59 127 175.735C127.816 175.389 128.621 175.02 129.437 174.662C129.639 174.573 129.717 174.427 129.728 174.271C129.784 174.26 129.829 174.26 129.873 174.248C130.488 174.103 130.511 173.108 129.873 172.985C127.827 172.605 125.759 172.37 123.68 172.191C123.803 171.856 123.702 171.431 123.255 171.308C122.696 171.152 122.148 171.018 121.589 170.906C125.882 166.624 131.07 163.046 135.474 159.011C142.383 152.661 148.577 145.014 154.446 137.725C166.129 123.213 174.268 104.868 176.191 86.2869C177.957 69.2939 172.971 48.9357 162.361 35.3188" fill="black"/>
</svg>
