<svg width="240" height="200" viewBox="0 0 240 200" fill="none" xmlns="http://www.w3.org/2000/svg">
<path d="M133.086 74.7024C132.366 74.7291 131.66 74.7558 130.94 74.7958C131.1 74.4224 131.193 73.9958 131.193 73.5158C131.193 68.7024 130.953 63.9557 130.62 59.1557C131.913 59.0624 133.206 58.9958 134.499 58.9291C133.486 64.1291 133.78 69.4624 133.086 74.7024V74.7024ZM145.433 77.5958C145.846 80.1424 146.486 82.4358 147.553 84.8624C146.526 84.9691 145.5 85.0224 144.473 85.0357C143.873 85.0491 138.873 85.0358 140.059 83.5291C140.099 83.4758 140.033 83.4091 139.993 83.4491C138.833 84.6224 139.966 85.2091 141.22 85.5158C143.353 86.0358 145.726 86.0357 147.993 85.8357C148.366 86.6091 148.753 87.3958 149.22 88.2224C150.206 89.9424 151.246 91.6224 152.353 93.2758C148.606 93.0758 144.446 93.6091 141.406 95.3558C141.126 95.5291 141.379 95.9424 141.659 95.7958C145.526 93.8624 149.353 94.8491 153.313 94.7158C155.233 97.5158 157.26 100.222 159.286 102.929C159.02 102.889 158.766 102.849 158.513 102.809C155.873 102.396 153.259 102.022 150.699 101.289C150.259 101.156 150.086 101.822 150.513 101.956C152.726 102.689 154.98 103.169 157.273 103.596C158.286 103.796 159.313 104.062 160.326 104.316C160.433 104.449 160.526 104.582 160.633 104.702C162.726 107.489 164.873 110.209 167.006 112.942C165.873 112.836 164.726 112.809 163.606 112.742C161.3 112.596 159.006 112.249 156.726 111.902C156.353 111.849 156.179 112.382 156.566 112.489C160.086 113.369 164.326 114.796 168.059 114.302C169.926 116.702 171.78 119.129 173.54 121.622C174.1 122.422 174.633 123.302 175.153 124.196C171.02 121.316 164.06 121.849 159.606 122.529C159.326 122.569 159.393 123.036 159.673 123.022C162.606 122.822 165.459 122.929 168.379 123.476C171.153 124.009 173.5 125.516 176.166 126.236C176.206 126.236 176.246 126.236 176.273 126.236C176.966 127.542 177.633 128.889 178.34 130.196C178.14 130.622 178.099 131.102 178.326 131.529C177.179 131.129 175.953 130.862 174.82 130.569C171.82 129.782 168.766 129.342 165.753 128.676C165.553 128.636 165.5 128.889 165.673 128.956C167.953 129.916 170.246 130.636 172.646 131.249C175.206 131.916 177.739 133.182 180.313 133.702C180.753 134.396 181.193 135.062 181.673 135.689C183.073 138.449 183.66 141.822 183.94 145.076C178.606 141.196 170.713 139.156 164.193 139.036C163.739 139.036 163.753 139.716 164.193 139.742C167.913 139.889 171.353 140.742 174.833 141.982C177.886 143.062 180.66 144.862 183.753 145.769C183.833 145.796 183.9 145.782 183.953 145.769C183.953 145.782 183.953 145.796 183.953 145.809C183.886 146.182 183.939 146.502 184.059 146.769C184.153 148.236 184.193 149.649 184.233 150.929C184.246 151.316 184.246 151.742 184.233 152.169C177.34 151.902 170.273 152.449 163.446 152.542C162.859 152.542 162.859 153.436 163.446 153.436C170.246 153.529 177.273 154.076 184.14 153.809C184.073 154.982 183.993 156.209 184.073 157.382C183.82 157.342 183.58 157.302 183.3 157.302C161.326 157.182 139.366 157.862 117.406 158.569C106.62 158.929 95.8195 158.969 85.0328 159.249C77.8462 159.436 69.4994 158.609 62.2594 160.382C64.8327 159.342 67.4995 158.516 69.8328 157.756C70.1395 157.662 70.0195 157.196 69.6995 157.276C65.9662 158.262 62.2861 159.529 58.7261 161.049C58.4327 161.182 58.0861 161.316 57.7261 161.462C57.5527 159.409 57.4329 157.422 57.4063 155.409C61.1263 153.809 64.8194 152.129 68.3128 150.049C68.4061 149.996 68.3395 149.822 68.2328 149.876C64.6195 151.316 61.0063 152.742 57.4063 154.182C57.4196 152.196 57.5396 150.156 57.8196 147.982C57.8996 147.356 58.0061 146.702 58.1128 146.062C58.5261 145.916 58.8862 145.769 59.1529 145.662C61.5929 144.596 64.0463 143.596 66.2729 142.129C66.8596 141.742 66.3261 140.809 65.7128 141.182C63.4194 142.609 60.8861 143.582 58.3795 144.596C58.6328 143.262 58.9128 141.916 59.1795 140.569C59.9661 139.516 60.6195 138.222 61.1662 136.942C65.7662 135.196 70.3127 132.169 74.3927 130.662C74.8194 130.516 74.6463 129.849 74.2063 129.996C71.3529 130.956 68.6328 132.196 65.8995 133.449C64.5928 134.049 63.2862 134.529 61.9662 134.969C62.2728 134.196 62.5394 133.516 62.7794 133.022C64.2194 130.089 65.8061 127.222 67.4461 124.396C70.4994 123.609 73.5928 123.036 76.6328 122.262C76.9528 122.182 76.8195 121.702 76.4995 121.782C74.0862 122.316 71.1261 122.622 68.1927 123.129C70.0994 119.862 72.0862 116.649 74.0328 113.422C77.4195 112.542 80.7929 111.596 84.1396 110.742C84.2063 110.716 84.1794 110.622 84.1128 110.636C81.1928 111.276 78.0196 111.569 74.8729 111.982C76.1529 109.836 77.3528 107.622 78.4995 105.396C81.1662 104.742 83.8196 103.956 86.4862 103.476C86.9262 103.382 86.7395 102.716 86.2995 102.796C83.9262 103.196 81.5263 103.662 79.1396 104.169C80.3929 101.662 81.5928 99.1291 82.7128 96.5558C83.0061 96.4758 83.2995 96.3958 83.5662 96.3158C86.2595 95.5158 88.9929 94.8624 91.7396 94.3024C92.0729 94.2491 91.9262 93.7824 91.6196 93.8224C88.7796 94.2358 85.9661 94.7691 83.1794 95.4357C83.5928 94.4624 84.0196 93.4891 84.4063 92.5158C84.5529 92.1558 84.6994 91.7691 84.8461 91.3824C88.1528 91.0624 91.4061 90.2757 94.7261 89.6357C94.8594 89.6091 94.7929 89.4224 94.6729 89.4357C91.4596 89.9291 88.2863 90.5691 85.0729 90.7824C85.8863 88.5824 86.6196 86.1291 86.8729 83.7024C86.9129 83.7691 86.9794 83.8091 87.0594 83.8224C88.5661 84.1824 90.1662 83.9558 91.6995 83.9158C93.7128 83.8624 95.7127 83.7958 97.7261 83.7424C98.0461 83.7291 98.0461 83.2491 97.7261 83.2491C95.9661 83.1958 94.1928 83.1424 92.4328 83.0891C90.6728 83.0358 88.7794 82.7424 87.0594 83.1558C86.9927 83.1691 86.9528 83.2091 86.9128 83.2491C86.9928 82.2624 86.9929 81.2891 86.8729 80.3424C93.8596 82.1691 102.366 81.0091 109.193 80.8891C120.379 80.6758 131.566 80.0091 142.753 80.0224C144.393 80.0224 145.286 78.8624 145.433 77.5958V77.5958ZM188.366 144.129C188.42 143.876 188.46 143.622 188.5 143.356C188.473 143.742 188.46 144.129 188.433 144.502C188.406 144.382 188.393 144.249 188.366 144.129V144.129ZM188.086 138.222C188.246 138.902 188.34 139.582 188.406 140.276C188.326 139.582 188.206 138.889 188.073 138.236L188.086 138.222ZM101.006 65.5824C100.886 64.4358 100.673 63.4624 100.393 62.5824C101.166 62.4891 101.939 62.3958 102.713 62.3158H102.726C103.219 67.0758 103.446 71.8624 104.073 76.6091C103.113 76.6224 102.139 76.6358 101.166 76.6624C101.206 76.4624 101.273 76.2758 101.286 76.0624C101.58 72.6091 101.366 69.0224 101.006 65.5824V65.5824ZM103.926 62.9158C103.926 62.9558 103.913 63.0091 103.913 63.0491C103.899 63.0091 103.9 62.9691 103.886 62.9291C103.9 62.9158 103.913 62.9158 103.926 62.9158ZM125.273 59.6224C124.94 64.2624 124.713 68.8491 124.713 73.5158C124.713 74.1691 124.886 74.7158 125.166 75.1558C120.646 75.4758 116.126 75.8491 111.606 76.2624C109.94 76.4224 108.193 76.5024 106.406 76.5558C106.593 71.6624 105.433 66.7957 105.82 61.9557C108.726 61.5957 111.633 61.2224 114.54 60.8624C114.926 61.0758 115.313 61.2491 115.713 61.3158C116.059 61.3558 116.473 61.0891 116.34 60.6891C116.326 60.6757 116.313 60.6624 116.299 60.6357C116.913 60.5691 117.526 60.4758 118.126 60.4091C120.499 60.1291 122.886 59.8624 125.273 59.6224V59.6224ZM151.593 73.8624C152.059 78.7424 155.166 88.8358 160.793 89.9558C161.233 90.0491 161.673 89.9691 162.033 89.7824C171.153 94.9158 195.26 94.0758 197.34 83.0891C201.353 77.9824 202.806 69.9558 201.926 64.2624C200.219 53.1958 192.646 44.7291 183.313 39.0758C172.619 32.5958 158.606 32.1291 146.473 31.6224C131.18 30.9957 115.873 32.0491 100.579 31.2891C83.9794 30.4757 65.7928 30.7291 52.8995 40.9691C52.8062 40.9291 52.6994 40.8891 52.5927 40.8357C52.2194 40.6757 51.7261 41.1691 52.1128 41.4758C52.1395 41.4891 52.1796 41.5158 52.2063 41.5425C49.3796 43.9025 46.8196 46.7557 44.6063 50.2224C39.9929 57.4624 37.2727 66.6891 37.0594 75.2357C37.0194 77.0757 37.2329 79.3558 37.8196 81.4758C37.6062 81.5424 37.4063 81.6091 37.2063 81.6891C36.9129 81.8091 36.9262 82.2891 37.2862 82.2758C37.5396 82.2758 37.7928 82.2624 38.0461 82.2357C39.0195 85.2357 40.8196 87.7558 43.8063 88.0758C43.7263 88.3824 43.7795 88.7158 44.0461 88.9958C50.7261 96.0091 69.4329 98.1558 76.2729 90.2491C76.5263 89.9558 76.6863 89.6224 76.8063 89.2891C83.6863 83.2358 84.5796 70.5291 78.7529 63.5291C78.1129 62.7558 76.6196 63.5825 77.0196 64.5425C77.4729 65.6225 77.8328 66.8224 78.0995 68.0891C73.2862 67.1558 67.2062 69.2091 62.8995 71.2758C62.7395 71.3558 62.8596 71.5824 63.0196 71.5424C65.4996 71.0758 67.9128 70.3691 70.3794 69.8224C72.9528 69.2624 75.6062 69.2891 78.1662 68.6758C78.1928 68.6624 78.1929 68.6491 78.2196 68.6357C78.9396 72.4624 78.7796 76.8358 77.4063 80.4891C76.2063 80.7958 75.0063 81.2091 73.8063 81.4224C71.1929 81.8891 68.6461 82.0757 65.9927 81.8357C65.8327 81.8091 65.7929 82.0891 65.9529 82.1291C68.8729 82.7024 73.1661 83.1424 76.5927 82.2491C75.9261 83.4891 75.0996 84.5958 74.0862 85.5291C73.9262 85.5558 73.7661 85.5958 73.5927 85.6491C73.0861 85.8224 72.5928 86.0091 72.0995 86.1824C72.0728 86.1824 72.0728 86.1557 72.0328 86.1691C69.0595 86.3557 65.5529 86.9957 63.0063 84.9691C62.9663 84.9291 62.8863 84.9957 62.9396 85.0357C64.4863 86.5824 66.9529 87.2491 69.2862 87.2357C66.4596 88.2757 63.7261 89.1558 60.3261 89.3158C55.3127 89.5424 50.6595 88.6758 45.8461 87.5558C45.8328 87.5424 45.8329 87.5291 45.8196 87.5158C45.6862 87.3424 45.5661 87.1691 45.4461 86.9958C47.3795 86.8758 48.9928 86.1158 50.9128 85.0491C50.9795 85.0091 50.9127 84.9158 50.8594 84.9558C49.1527 86.2358 47.0994 86.6758 45.0594 86.4758C43.9661 84.8358 43.1929 83.0624 42.6862 81.1824C42.8996 81.1291 43.0995 81.0624 43.3128 81.0224C45.1528 80.5291 46.9663 79.9158 48.6729 79.0491C48.7929 78.9824 48.6862 78.8224 48.5662 78.8758C46.8328 79.6224 45.0195 80.0891 43.1662 80.4891C42.9662 80.5291 42.7529 80.5691 42.5396 80.6091C42.0196 78.3691 41.8461 76.0224 41.9927 73.6091C44.9661 73.6091 48.0194 73.2224 50.9261 73.1158C51.1261 73.1024 51.1261 72.7158 50.9261 72.7158C48.0461 72.6091 45.0462 72.2358 42.0995 72.2224C42.2995 70.3558 42.6596 68.4624 43.1529 66.5824C46.7129 68.1024 51.3127 66.7958 54.7261 65.5958C55.0327 65.5024 54.9127 65.0224 54.5927 65.1291C52.5527 65.7291 50.5261 66.1958 48.3927 66.3558C46.5927 66.4758 45.0461 66.0357 43.4594 65.5024C44.0194 63.6224 44.6996 61.7824 45.4729 59.9958C49.6463 62.1424 55.1662 61.2757 59.2995 59.4891C59.4995 59.3957 59.3529 59.0491 59.1396 59.1291C56.6329 60.0491 54.1529 60.5157 51.4729 60.4357C49.4196 60.3557 47.7128 59.6491 46.0328 58.7557C47.2328 56.2091 48.6061 53.8091 50.0594 51.7024C54.7394 53.1557 60.2062 52.2624 64.5662 50.3824C64.7128 50.3158 64.6061 50.0491 64.4461 50.1158C59.5928 51.8624 55.4728 51.5291 50.9128 50.5024C51.1395 50.1824 51.3663 49.8891 51.6063 49.5958C53.3129 47.4091 55.2327 45.5691 57.3261 44.0224C63.3927 45.7424 70.6595 44.5291 76.5662 44.3557C76.7662 44.3557 76.7662 44.0624 76.5662 44.0624C70.2995 44.0091 64.6196 44.2224 58.8862 42.9291C70.6729 35.2624 87.0194 35.9558 100.579 36.5824C123.659 37.6624 146.873 35.0624 169.74 39.3824C174.94 40.3691 179.846 42.6091 183.993 45.6624C180.873 46.5424 177.9 47.8358 174.74 48.5958C174.553 48.6491 174.633 48.9157 174.82 48.8891C178.193 48.2357 181.406 46.9824 184.753 46.2491C186.686 47.7558 188.446 49.4358 189.966 51.2491C189.246 51.6358 188.539 52.0091 187.779 52.3024C185.553 53.1691 183.18 53.3425 180.82 53.0758C180.593 53.0491 180.54 53.4358 180.766 53.4624C183.806 53.9558 187.673 53.6224 190.686 52.1291C192.073 53.9158 193.246 55.8091 194.166 57.7691C190.7 58.5824 187.233 59.7691 183.793 60.6357C183.526 60.7024 183.646 61.0624 183.9 61.0224C187.313 60.5157 191.38 60.3024 194.673 58.8891C195.3 60.4091 195.766 61.9691 196.073 63.5425C196.033 63.5158 195.993 63.4891 195.926 63.5024C193.886 63.7691 191.966 64.6891 190.006 65.3158C187.5 66.1158 184.953 66.6224 182.326 66.7691C182.206 66.7824 182.193 66.9691 182.326 66.9691C186.713 67.0224 192.246 66.3157 196.1 64.1557C196.14 64.1291 196.153 64.0891 196.179 64.0624C196.419 65.5024 196.513 66.9558 196.473 68.4091C195.193 68.7158 193.913 69.0624 192.606 69.2891C189.726 69.7824 186.753 69.8624 183.846 69.6491C183.566 69.6224 183.5 70.0891 183.766 70.1291C187.633 70.7958 192.353 71.0491 196.366 69.9024C196.206 71.3824 195.886 72.8891 195.379 74.3558C191.126 75.3691 186.686 75.5424 182.326 75.7424C182.073 75.7424 182.073 76.1291 182.326 76.1424C186.579 76.3158 190.74 76.4624 194.873 75.6624C194.1 77.4891 193.046 79.2891 191.686 81.0357C191.153 81.1691 190.633 81.3024 190.086 81.4091C187.286 81.9558 184.406 82.0224 181.579 81.6758C181.233 81.6358 181.166 82.2091 181.5 82.2624C184.14 82.7024 187.38 82.8891 190.42 82.5024C189.82 83.1824 189.179 83.8491 188.459 84.4891C188.313 84.6224 188.219 84.7824 188.126 84.9158C185.913 85.2891 183.726 85.7424 181.526 86.1291C181.033 86.1424 180.553 86.1557 180.059 86.1691C179.873 86.1691 179.766 86.2891 179.74 86.4224C178.3 86.6491 176.846 86.8358 175.366 86.9291C172.473 87.1291 169.526 87.0491 166.633 86.8357C166.539 86.8224 166.433 86.8224 166.326 86.8224C167.593 86.4891 168.899 86.5158 170.179 86.7558C170.486 86.8091 170.619 86.3558 170.313 86.2758C168.406 85.7691 165.673 85.6891 163.74 86.7158C163.26 86.6758 162.779 86.6091 162.366 86.5024C162.059 85.9424 161.7 85.4624 161.286 84.9824C164.006 84.9558 167.126 83.3958 168.806 82.0491C168.886 81.9824 168.78 81.8358 168.686 81.8891C166.86 83.0091 164.94 83.5958 162.82 83.7291C161.806 83.7824 160.886 83.5824 159.953 83.3824C159.913 83.3158 159.873 83.2758 159.833 83.2091C159.006 82.1158 158.339 80.9158 157.766 79.6624C160.473 79.6891 163.126 79.1958 165.793 78.4891C166.166 78.3958 166.006 77.8224 165.633 77.9158C162.886 78.5291 160.153 78.9424 157.379 78.7424C157.019 77.8624 156.7 76.9824 156.406 76.0891C156.126 75.1958 155.926 74.3158 155.779 73.4624C159.593 74.4891 163.406 73.7424 167.246 73.0091C167.379 72.9824 167.313 72.7958 167.193 72.8224C163.299 73.3958 159.46 74.0224 155.673 72.7158C155.446 70.8491 155.553 69.0358 155.953 67.2891C159.98 67.8224 164.873 67.0091 168.74 66.1691C168.806 66.1557 168.779 66.0624 168.713 66.0624C166.406 66.4091 164.086 66.4891 161.74 66.5158C159.913 66.5291 158.006 66.2757 156.166 66.4357C156.486 65.3024 156.926 64.2091 157.473 63.1291C160.993 64.8491 165.099 64.3424 168.779 62.4224C168.886 62.3691 168.806 62.1958 168.699 62.2491C165.006 63.7958 161.313 63.9024 158.006 62.1691C158.326 61.6224 158.673 61.1024 159.046 60.5691C161.859 62.0091 166.046 61.7557 168.82 61.1691C169.273 61.0624 169.073 60.4357 168.633 60.4891C166.699 60.7557 164.873 60.6891 162.953 60.3024C162.126 60.1424 161.34 59.8091 160.553 59.4891C160.726 59.2624 160.833 58.9958 160.793 58.7158C160.353 55.3291 157.833 53.6757 154.846 52.7557C154.553 51.8491 154.166 50.9691 153.753 50.1824C153.66 50.0091 153.419 50.1558 153.499 50.3291C153.833 51.0891 154.073 51.8358 154.259 52.5824C152.526 52.1158 150.699 51.8624 149.033 51.6624C148.353 49.1024 147.086 46.5557 146.499 44.0891C146.366 43.5157 145.526 43.7691 145.633 44.3291C146.073 46.6224 146.646 49.1024 147.393 51.4624C143.673 51.0091 139.926 50.8491 136.179 50.9158C136.033 50.5958 135.886 50.2891 135.74 49.9824C134.806 47.9691 133.833 45.9824 132.779 44.0357C132.553 43.6357 131.993 43.9824 132.166 44.3824C132.939 46.1424 133.633 47.9291 134.299 49.7291C134.459 50.1291 134.593 50.5425 134.726 50.9425C131.166 51.0625 127.62 51.3424 124.086 51.7557C123.98 51.6357 123.873 51.5024 123.779 51.3824C122.686 49.9558 121.619 48.5024 120.526 47.0891C120.406 46.9291 120.139 47.1024 120.193 47.2891C120.713 48.9957 121.446 50.4491 122.366 51.9691C118.459 52.4624 114.513 53.0491 110.593 53.7824C109.913 52.5958 109.353 51.3557 108.873 50.0891C108.606 49.3824 107.486 49.6625 107.726 50.4091C108.126 51.6758 108.606 52.8758 109.179 54.0491C106.153 54.6358 103.153 55.3025 100.22 56.0758C99.2596 54.1958 98.5929 52.1824 98.1529 50.1291C98.0329 49.5558 97.2062 49.8091 97.2862 50.3691C97.5796 52.1691 98.0729 54.3424 98.8729 56.4224C97.0063 56.9157 95.0196 57.3157 93.0063 57.6891C92.3529 56.9691 91.6863 56.2625 91.1396 55.5425C89.7929 53.7958 88.5795 51.9558 87.3662 50.1291C87.1795 49.8624 86.7794 50.0891 86.9261 50.3824C88.0861 52.5291 89.2461 54.6624 90.5261 56.7291C90.7794 57.1291 91.0596 57.5691 91.3529 58.0091C90.0329 58.2491 88.7129 58.5158 87.4063 58.7958C86.8863 57.1024 85.0727 55.2624 83.7261 54.2891C82.2861 53.2357 80.7662 53.5691 79.4862 54.6758C79.3529 54.7958 79.5263 54.9958 79.6729 54.9158C81.3663 54.0091 82.7528 54.4624 84.0328 55.7824C84.9528 56.7024 85.4595 58.0624 86.2995 59.0491C83.2862 59.7558 80.3794 60.6624 77.8461 62.1024C77.6194 62.2224 77.5794 62.6224 77.8461 62.7291C83.0728 64.9691 89.2461 63.5424 94.7128 63.1158C95.0861 63.0758 95.4595 63.0358 95.8328 63.0091C96.1662 67.3025 95.2727 71.9158 95.4594 76.0624C95.4727 76.3424 95.5261 76.6091 95.5927 76.8491C92.4061 77.0224 89.2729 77.3691 86.3529 78.1024C86.1796 77.6491 86.0062 77.2091 85.7662 76.7824C85.7128 76.6891 85.5529 76.6491 85.4729 76.7424C84.9129 77.3824 84.4063 78.0891 83.9396 78.8091C83.8063 78.8491 83.6729 78.8891 83.5396 78.9424C83.4463 78.9691 83.4061 79.1158 83.5128 79.1558C83.5661 79.1824 83.6329 79.2091 83.6862 79.2357C81.3129 83.0891 80.0062 87.8491 78.0328 91.8357C74.5395 98.9157 70.0329 105.409 65.9396 112.142C64.1796 115.022 51.3396 133.542 52.7396 140.289C52.2063 142.516 51.8061 144.782 51.5261 147.142C51.1794 150.102 50.6195 153.596 50.7128 156.889C50.0061 157.196 50.2194 158.036 50.7927 158.129C50.9261 159.582 51.2061 160.982 51.7261 162.236C51.8327 162.502 52.0328 162.662 52.2461 162.716C52.6328 164.809 53.5528 166.729 55.6995 165.862C64.0595 170.916 75.5395 169.036 85.0328 168.729C95.8462 168.396 106.606 167.596 117.406 167.089C139.366 166.062 161.326 165.076 183.3 164.889C185.033 164.876 186.14 163.916 186.633 162.702C186.926 162.782 187.259 162.702 187.459 162.409C187.659 162.129 187.846 161.796 188.033 161.436C188.886 160.436 189.326 159.156 189.513 157.742C191.793 150.596 193.126 138.756 189.1 133.769C188.38 129.116 184.953 124.582 182.54 120.782C178.886 115.062 174.633 109.756 170.42 104.449C162.446 94.4224 153.046 84.4491 147.353 72.8624C146.806 71.7291 144.859 72.2491 144.966 73.5024C145.033 74.3557 145.113 75.1691 145.206 75.9691C144.833 75.0624 144.02 74.3824 142.753 74.3958C140.473 74.4224 138.206 74.4891 135.926 74.5691C136.286 72.4357 136.513 70.2624 136.726 68.1024C137.019 65.1157 137.673 61.9157 137.74 58.8357C138.993 58.8091 140.259 58.8091 141.513 58.8224C145.406 58.9024 149.246 59.4224 153.02 60.3958C153.566 60.5424 154.086 60.6624 154.593 60.7691C154.566 60.9157 154.593 61.0757 154.74 61.2224C154.78 61.2491 154.819 61.2758 154.859 61.3158C152.126 64.7024 151.166 69.3691 151.593 73.8624" fill="black"/>
<path d="M96.9776 111.916C97.2976 112.022 97.6044 112.129 97.8844 112.289C98.2844 112.542 97.6311 113.422 97.0844 114.076C96.7511 113.382 96.6043 112.689 96.9776 111.916V111.916ZM101.364 102.022C105.244 99.3158 110.404 98.9024 114.991 99.0091C124.244 99.2224 136.951 103.369 139.804 113.262C141.564 119.369 137.418 125.689 133.724 130.129C128.258 136.689 120.671 140.369 112.178 138.396C105.378 136.822 99.231 131.849 95.7776 125.742C97.231 125.782 98.7244 125.556 99.8711 124.649C100.751 123.942 101.218 122.756 100.858 121.649C100.498 120.489 99.3911 119.822 98.2044 119.796C97.4711 119.769 96.751 120.022 96.111 120.356C95.2843 120.782 94.7376 121.742 94.311 122.542C94.2976 122.569 94.2977 122.582 94.2977 122.609C92.8577 118.902 92.4176 114.956 93.3909 111.182C93.5776 111.476 93.7911 111.782 94.0177 112.062C94.3644 112.502 95.2442 112.396 95.4576 111.889C95.5376 111.702 95.6044 111.516 95.6844 111.329C95.7244 111.356 95.7376 111.396 95.7776 111.422C95.871 111.476 95.9642 111.516 96.0576 111.556C95.9776 111.622 95.9109 111.689 95.8576 111.769C95.1509 112.996 95.7776 114.422 96.3909 115.556C96.5909 115.956 97.1376 115.982 97.4443 115.689C98.4976 114.689 100.151 113.142 99.3511 111.529C98.8711 110.569 97.3777 110.169 96.431 109.862C96.3777 109.849 96.3377 109.862 96.2844 109.849C97.4711 106.916 98.751 103.836 101.364 102.022V102.022ZM97.431 122.689C97.3643 123.036 96.2845 123.182 96.0045 123.276C95.5645 123.436 95.1776 123.636 94.8443 123.916C94.7376 123.676 94.6309 123.436 94.5242 123.196C94.6442 123.249 94.7909 123.262 94.9242 123.156C95.2576 122.929 95.5911 122.716 95.9511 122.529C96.2577 122.369 96.5911 122.289 96.8844 122.089C97.0044 122.009 97.1243 121.942 97.231 121.876C97.4043 121.782 97.4576 121.769 97.5242 121.742C97.6309 121.702 97.7376 121.662 97.8443 121.636C97.8843 121.622 98.071 121.596 98.111 121.582C98.191 121.582 98.2711 121.582 98.3511 121.582C98.3911 121.582 98.4311 121.582 98.4844 121.582C98.4977 121.582 98.4976 121.582 98.511 121.582C98.591 121.609 98.6711 121.622 98.7511 121.649C98.7644 121.649 98.7643 121.649 98.7643 121.662C98.8043 121.676 98.8444 121.689 98.8844 121.716C98.8977 121.729 98.9642 121.769 98.9909 121.796C99.0442 121.836 99.0977 121.889 99.1511 121.942C99.1644 121.942 99.151 121.942 99.1643 121.942C99.1777 121.982 99.2044 122.009 99.2177 122.036C99.2444 122.076 99.2578 122.102 99.2711 122.142C99.2845 122.142 99.2844 122.142 99.2844 122.142C99.3111 122.222 99.3244 122.289 99.3511 122.356C99.3511 122.396 99.351 122.396 99.3643 122.409C99.351 122.422 99.351 122.436 99.3643 122.476C99.3643 122.529 99.3511 122.582 99.3511 122.636C99.3511 122.636 99.3243 122.809 99.311 122.849C99.2976 122.902 99.2977 122.916 99.2844 122.929C99.2844 122.929 99.2845 122.929 99.2711 122.956C99.2311 123.049 99.1643 123.142 99.111 123.236C99.0843 123.262 98.8842 123.489 98.7242 123.622C98.0976 124.142 97.1111 124.342 96.1378 124.409C96.4311 124.196 96.751 124.022 97.0443 123.849C97.471 123.622 98.0311 123.316 98.0177 122.769C98.0177 122.449 97.4977 122.356 97.431 122.689V122.689ZM92.0576 107.462C82.6976 119.769 91.6711 137.582 105.871 143.982C124.591 152.409 145.924 136.316 146.764 116.569C147.418 101.116 129.524 93.8358 116.844 92.7291C110.351 92.1691 103.031 93.1958 97.6044 97.0224C93.9911 99.5558 91.6042 103.516 92.0576 107.462Z" fill="black"/>
<path d="M62.9112 76.1825C67.4846 76.8491 74.1245 77.2358 78.2578 74.7291C78.5378 74.5558 78.4447 74.0491 78.0847 74.0758C75.9513 74.2225 73.8846 75.0491 71.7779 75.4491C68.8712 75.9825 65.8979 75.9825 62.9646 75.6891C62.6979 75.6625 62.6312 76.1425 62.9112 76.1825Z" fill="black"/>
<path d="M112.711 117.303C113.058 116.583 113.711 115.676 114.498 114.916C115.004 115.063 115.511 115.209 115.991 115.383C115.991 116.916 115.978 118.436 115.978 119.969C114.751 120.036 113.378 119.969 112.578 119.249C112.124 118.836 112.324 118.103 112.711 117.303V117.303ZM119.364 116.636C119.404 117.476 119.151 118.169 118.751 118.743C118.738 117.316 118.724 115.889 118.724 114.463C118.724 114.249 118.658 114.023 118.551 113.809C119.231 114.463 119.324 115.876 119.364 116.636ZM113.111 122.529C114.498 122.836 115.964 122.783 117.364 122.663C118.111 122.596 118.764 122.076 118.764 121.263C118.764 121.236 118.764 121.196 118.751 121.169C121.378 119.476 122.418 115.889 120.644 112.783C118.911 109.756 115.338 110.743 112.684 113.023C112.671 113.023 112.658 113.023 112.644 113.036C112.404 113.116 112.258 113.276 112.191 113.476C109.031 116.489 107.564 121.263 113.111 122.529" fill="black"/>
<path d="M109.483 102.676C109.697 102.636 110.257 102.396 110.457 102.556C110.603 102.676 110.55 103.036 110.55 103.289C110.563 103.542 110.577 103.809 110.577 104.062C110.123 104.156 109.603 104.236 109.31 104.102C109.297 104.089 109.284 104.089 109.27 104.089C109.284 104.076 109.284 104.062 109.27 104.036C109.297 104.142 109.27 103.916 109.27 103.889C109.27 103.796 109.27 103.702 109.283 103.609C109.297 103.289 109.297 102.982 109.257 102.689C109.323 102.689 109.403 102.689 109.483 102.676V102.676ZM108.257 102.462C108.27 103.022 108.03 103.622 108.083 104.196C108.243 105.729 110.243 105.489 111.323 105.356C111.71 105.302 112.017 105.062 112.03 104.636C112.057 103.889 112.083 103.129 112.123 102.369C112.137 101.756 111.457 101.156 110.937 100.956C110.43 100.756 109.91 100.822 109.39 100.902C109.19 100.929 108.963 100.929 108.777 100.982C108.603 101.022 108.39 101.009 108.204 101.062C107.684 101.262 107.59 101.849 107.99 102.249C108.07 102.329 108.163 102.396 108.257 102.462" fill="black"/>
<path d="M122.898 104.156C123.444 104.142 123.751 104.156 124.004 104.542C123.991 104.569 123.964 104.582 123.951 104.609C123.551 104.556 123.151 104.476 122.764 104.556C121.418 104.836 121.324 106.569 121.271 107.662C121.258 108.169 121.804 108.396 122.204 108.196C123.551 107.529 124.311 106.369 125.324 105.342C125.537 105.249 125.751 105.129 125.951 104.929C126.258 104.622 125.938 104.222 125.604 104.262C125.298 103.462 124.857 102.809 123.991 102.542C123.391 102.356 122.764 102.742 122.191 102.502C121.524 102.236 120.898 103.289 121.471 103.742C121.911 104.076 122.351 104.156 122.898 104.156Z" fill="black"/>
<path d="M132.539 111.756C132.792 111.662 133.112 111.702 133.379 111.649C133.419 111.649 133.446 111.636 133.472 111.636C134.992 111.889 135.512 112.889 135.539 114.236C134.206 113.836 132.939 113.396 131.686 112.716C131.886 112.316 132.152 111.916 132.539 111.756ZM130.686 113.422C132.379 114.622 134.126 115.236 136.046 115.942C136.406 116.076 136.899 115.796 136.966 115.422C137.272 113.769 137.326 111.862 135.819 110.782C135.232 110.356 134.552 110.142 133.859 110.022C133.086 109.902 131.966 109.702 131.206 109.916C130.672 110.062 130.272 110.702 130.726 111.156C130.886 111.316 131.099 111.409 131.326 111.462C130.992 111.822 130.726 112.262 130.486 112.676C130.326 112.956 130.432 113.249 130.686 113.422" fill="black"/>
<path d="M131.47 124.623C131.977 124.156 131.937 123.289 132.523 122.889C133.35 122.329 134.844 123.129 135.87 123.729C135.364 124.369 134.883 125.023 134.31 125.596C134.257 125.663 134.19 125.703 134.11 125.743C134.097 125.703 134.07 125.663 134.017 125.649C132.937 125.449 131.657 125.476 130.737 126.169C130.404 126.423 130.497 126.969 130.963 126.983C132.177 127.036 133.59 127.263 134.737 126.743C135.817 126.249 136.683 124.836 137.523 124.049C137.87 123.729 137.777 123.116 137.377 122.889C135.963 122.063 133.737 120.769 132.043 121.529C131.163 121.929 130.403 123.209 130.363 124.156C130.35 124.743 131.07 124.996 131.47 124.623" fill="black"/>
<path d="M117.7 135.583C117.1 135.289 116.553 134.863 116.02 134.409C116.246 134.143 116.473 133.863 116.66 133.636C117.58 132.596 118.566 132.609 119.766 132.956C119.513 134.156 119.02 136.209 117.7 135.583V135.583ZM120.526 132.076C119.18 131.516 117.766 131.183 116.473 132.023C115.926 132.383 115.5 132.876 115.046 133.329C114.993 133.369 114.94 133.423 114.886 133.463C114.74 133.356 114.606 133.236 114.473 133.129C114.233 132.969 113.953 133.343 114.166 133.529C114.273 133.609 114.38 133.716 114.486 133.809C114.166 134.089 113.886 134.369 113.846 134.863C113.82 135.076 114.006 135.289 114.206 135.343C114.713 135.476 115.166 135.236 115.566 134.876C116.326 135.636 117.166 136.369 118.086 136.529C119.873 136.836 120.566 133.916 120.9 132.743C120.993 132.436 120.793 132.183 120.526 132.076" fill="black"/>
<path d="M104.098 129.236C104.752 130.103 105.752 130.009 106.725 129.809C106.605 130.049 106.499 130.289 106.419 130.556C106.379 130.649 106.405 130.663 106.165 130.783C105.738 130.996 105.232 131.103 104.752 131.196C104.659 131.049 104.578 130.903 104.525 130.729C104.392 130.303 105.005 130.516 105.205 130.569C105.485 130.649 105.632 130.263 105.405 130.116C104.685 129.649 103.739 129.596 103.552 130.609C103.459 131.076 103.605 131.503 103.845 131.903C104.272 132.609 104.872 132.369 105.565 132.223C106.285 132.089 107.139 131.916 107.539 131.223C107.659 131.023 107.725 130.756 107.819 130.569C108.045 130.076 108.419 129.689 108.805 129.329C109.259 128.889 108.912 128.089 108.298 128.103C107.725 128.103 107.165 128.236 106.592 128.303C106.138 128.369 105.245 128.529 104.819 128.303C104.179 127.956 103.698 128.716 104.098 129.236" fill="black"/>
<path d="M123.206 128.436C122.766 128.676 122.379 128.996 121.993 129.329C121.859 129.436 121.699 129.529 121.579 129.649C121.513 129.716 121.299 130.196 121.379 130.023C121.299 130.209 121.246 130.463 121.379 130.636C121.966 131.396 122.699 130.983 123.379 130.583C123.979 130.223 124.473 129.823 125.059 129.649C124.779 130.196 124.5 130.716 124.206 130.983C124.366 130.836 123.993 131.063 124.126 131.009C123.926 131.089 123.726 131.156 123.526 131.223C123.433 131.249 123.326 131.289 123.233 131.329C122.526 131.543 121.833 131.849 121.54 131.983C120.82 132.316 121.34 133.556 122.086 133.276C122.993 132.943 124.26 132.796 125.086 132.249C125.18 132.209 125.246 132.156 125.299 132.076C126.126 131.383 126.619 130.116 127.166 129.249C127.473 128.769 127.166 128.143 126.659 127.983C125.446 127.609 124.3 127.836 123.206 128.436" fill="black"/>
<path d="M102.005 108.582C102.245 107.822 102.579 107.142 102.632 106.342C103.112 106.649 103.539 106.996 103.805 107.409C103.965 107.649 103.912 108.022 103.925 108.302C103.925 108.876 103.925 109.449 103.925 110.022C102.939 109.916 101.632 109.689 102.005 108.582V108.582ZM100.885 108.196C100.992 108.182 101.085 108.156 101.165 108.129C101.019 108.476 100.912 108.836 100.912 109.236C100.925 110.756 103.312 111.062 104.365 111.262C104.739 111.329 105.099 111.102 105.112 110.689C105.152 109.516 105.565 107.902 105.045 106.796C104.512 105.662 102.979 104.849 102.059 104.076C101.792 103.849 101.432 103.756 101.099 103.956C99.6187 104.809 100.005 106.236 100.192 107.662C100.245 108.049 100.499 108.249 100.885 108.196" fill="black"/>
</svg>
